{
.appVersion = "3234";
.formatVersion = 3;
axes = (
{
name = Weight;
tag = wght;
}
);
classes = (
{
automatic = 1;
code = "A Aacute Abreve Acircumflex Adieresis Agrave Amacron Aogonek Aring Atilde AE B C Cacute Ccaron Ccedilla Cdotaccent D Dcaron Dcroat Eth E Eacute Ecaron Ecircumflex Edieresis Edotaccent Egrave Emacron Eogonek F G Gbreve Gcommaaccent Gdotaccent H Hbar I IJ Iacute Icircumflex Idieresis Idotaccent Igrave Imacron Iogonek J K Kcommaaccent L Lacute Lcaron Lcommaaccent Ldot Lslash M N Nacute Ncaron Ncommaaccent Ntilde Eng O Oacute Ocircumflex Odieresis Ograve Ohungarumlaut Omacron Oslash Otilde OE P Thorn Q R Racute Rcaron Rcommaaccent S Sacute Scaron Scedilla Scommaaccent uni1E9E T Tcaron Tcommaaccent U Uacute Ubreve Ucircumflex Udieresis Ugrave Uhungarumlaut Umacron Uogonek Uring V W Wacute Wcircumflex Wdieresis Wgrave X Y Yacute Ycircumflex Ydieresis Ygrave Z Zacute Zcaron Zdotaccent";
name = Uppercase;
}
);
customParameters = (
{
name = panose;
value = (
0,
0,
0,
0,
0,
0,
0,
0,
0,
0
);
},
{
name = fsType;
value = (
);
},
{
name = "Write lastChange";
value = 0;
},
{
name = "Use Typo Metrics";
value = 1;
},
{
name = "Use Line Breaks";
value = 1;
},
{
name = "Enforce Compatibility Check";
value = 0;
},
{
name = "Variable Font Origin";
value = master01;
}
);
date = "2023-06-08 18:31:24 +0000";
familyName = Mekorot;
featurePrefixes = (
{
automatic = 1;
code = "languagesystem DFLT dflt;

languagesystem latn dflt;
languagesystem latn ROM;
languagesystem latn MOL;
languagesystem latn CAT;

languagesystem hebr dflt;
languagesystem hebr IWR;
";
name = Languagesystems;
}
);
features = (
{
automatic = 1;
code = "feature locl;
feature sups;
feature frac;
feature ordn;
feature case;
";
tag = aalt;
},
{
code = "lookup ccmp_Other_1 {
    @CombiningTopAccents = [acutecomb commaturnedabovecomb gravecomb tildecomb];
    sub [i j iogonek]' @CombiningTopAccents by [idotless_ogonekcomb];

glyphs = (
{
glyphname = A;
kernLeft = A;
kernRight = A;
layers = (
{
anchors = (
{
name = bottom;
pos = (286,0);
},
{
name = right;
pos = (622,0);
},
{
name = top;
pos = (471,650);
}
);
layerId = master01;
shapes = (
{
closed = 1;
nodes = (
(503,210,l),
(528,284,l),
(211,284,l),
(187,210,l)
);
},
{
closed = 1;
nodes = (
(565,657,l),
(416,657,l),
(34,68,l),
(-43,47,l),
(-58,0,l),
(188,0,l),
(202,47,l),
(129,68,l),
(468,609,l),
(451,608,l),
(490,68,l),
(405,47,l),
(390,0,l),
(676,0,l),
(691,47,l),
(615,68,l)
);
}
);
width = 747;
},
{
anchors = (
{
name = bottom;
pos = (298,0);
},
{
name = right;
pos = (661,0);
},
{
name = top;
pos = (506,650);
}
);
layerId = "48B243E4-A9BC-4CE2-9E97-0DBF8BE24EDB";
shapes = (
{
closed = 1;
nodes = (
(500,192,l),
(530,282,l),
(207,282,l),
(177,192,l)
);
},
{
closed = 1;
nodes = (
(621,653,l),
(410,653,l),
(30,72,l),
(-43,48,l),
(-59,0,l),
(199,0,l),
(214,48,l),
(144,72,l),
(479,598,l),
(452,595,l),
(492,72,l),
(411,48,l),
(395,0,l),
(737,0,l),
(753,48,l),
(676,73,l)
);
}
);
width = 805;
}
);
unicode = 65;
},
{
glyphname = Aogonek;
kernLeft = A;
kernRight = A;
layers = (
{
layerId = master01;
shapes = (
{
closed = 1;
nodes = (
(503,210,l),
(528,284,l),
(211,284,l),
(187,210,l)
);
},
{
closed = 1;
nodes = (
(565,657,l),
(416,657,l),
(34,68,l),
(-43,47,l),
(-58,0,l),
(188,0,l),
(202,47,l),
(129,68,l),
(468,609,l),
(451,608,l),
(490,68,l),
(405,47,l),
(390,0,l),
(676,0,l),
(691,47,l),
(615,68,l)
);
},
{
closed = 1;
nodes = (
(490,-113,o),
(497,-92,o),
(533,-42,cs),
(579,23,l),
(543,23,l),
(497,-27,ls),
(436,-92,o),
(423,-120,o),
(423,-154,cs),
(423,-187,o),
(442,-214,o),
(487,-214,cs),
(517,-214,o),
(544,-207,o),
(584,-182,c),
(584,-148,l),
(560,-160,o),
(545,-163,o),
(527,-163,cs),
(503,-163,o),
(490,-152,o),
(490,-132,cs)
);
}
);
width = 747;
},
{
layerId = "48B243E4-A9BC-4CE2-9E97-0DBF8BE24EDB";
shapes = (
{
closed = 1;
nodes = (
(500,192,l),
(530,282,l),
(207,282,l),
(177,192,l)
);
},
{
closed = 1;
nodes = (
(621,653,l),
(410,653,l),
(30,72,l),
(-43,48,l),
(-59,0,l),
(199,0,l),
(214,48,l),
(144,72,l),
(479,598,l),
(452,595,l),
(492,72,l),
(411,48,l),
(395,0,l),
(737,0,l),
(753,48,l),
(676,73,l)
);
},
{
closed = 1;
nodes = (
(531,-101,o),
(537,-83,o),
(573,-34,cs),
(624,35,l),
(582,35,l),
(531,-14,ls),
(460,-83,o),
(446,-110,o),
(446,-148,cs),
(446,-184,o),
(467,-214,o),
(518,-214,cs),
(549,-214,o),
(578,-206,o),
(624,-180,c),
(624,-137,l),
(600,-147,o),
(586,-150,o),
(568,-150,cs),
(543,-150,o),
(531,-141,o),
(531,-120,cs)
);
}
);
width = 805;
}
);
unicode = 260;
},
{
glyphname = AE;
kernLeft = AE;
kernRight = E;
layers = (
{
anchors = (
{
name = bottom;
pos = (473,0);
},
{
name = top;
pos = (672,650);
}
);
layerId = master01;
shapes = (
{
closed = 1;
nodes = (
(589,578,l),
(591,579,l),
(435,69,l),
(349,47,l),
(335,0,l),
(537,0,l),
(736,650,l),
(410,650,l),
(395,603,l),
(492,580,l),
(22,68,l),
(-56,47,l),
(-70,0,l),
(183,0,l),
(197,47,l),
(124,68,l)
);
},
{
closed = 1;
nodes = (
(870,-36,l),
(997,200,l),
(930,200,l),
(778,35,l),
(843,75,l),
(496,75,l),
(472,0,l),
(794,0,l),
(811,-36,l)
);
},
{
closed = 1;
nodes = (
(509,219,l),
(533,293,l),
(240,293,l),
(215,219,l)
);
},
{
closed = 1;
nodes = (
(823,221,l),
(859,338,l),
(895,455,l),
(834,455,l),
(802,375,l),
(587,375,l),
(564,302,l),
(779,302,l),
(762,221,l)
);
},
{
closed = 1;
nodes = (
(1038,474,l),
(1099,684,l),
(1048,684,l),
(998,650,l),
(670,650,l),
(647,575,l),
(1000,575,l),
(979,615,l),
(972,474,l)
);
}
);
width = 1038;
},
{
anchors = (
{
name = bottom;
pos = (520,0);
},
{
name = top;
pos = (719,650);
}
);
layerId = "48B243E4-A9BC-4CE2-9E97-0DBF8BE24EDB";
shapes = (
{
closed = 1;
nodes = (
(604,566,l),
(602,568,l),
(449,74,l),
(368,48,l),
(353,0,l),
(613,0,l),
(813,650,l),
(400,650,l),
(386,601,l),
(485,570,l),
(12,72,l),
(-61,48,l),
(-77,0,l),
(191,0,l),
(206,48,l),
(137,72,l)
);
},
{
closed = 1;
nodes = (
(932,-42,l),
(1073,215,l),
(993,215,l),
(820,39,l),
(913,93,l),
(551,93,l),
(523,0,l),
(850,0,l),
(866,-42,l)
);
},
{
closed = 1;
nodes = (
(549,201,l),
(579,291,l),
(259,291,l),
(228,201,l)
);
},
{
closed = 1;
nodes = (
(883,221,l),
(918,338,l),
(954,455,l),
(883,455,l),
(853,381,l),
(639,381,l),
(613,296,l),
(827,296,l),
(811,221,l)
);
},
{
closed = 1;
nodes = (
(1105,464,l),
(1163,690,l),
(1106,690,l),
(1049,650,l),
(721,650,l),
(694,556,l),
(1051,556,l),
(1029,613,l),
(1026,464,l)
);
}
);
width = 1103;
}
);
unicode = 198;
},
{
glyphname = B;
kernLeft = H;
layers = (
{
anchors = (
{
name = bottom;
pos = (293,0);
},
{
name = top;
pos = (431,650);
}
);
layerId = master01;
shapes = (
{
closed = 1;
nodes = (
(462,574,ls),
(526,574,o),
(553,551,o),
(553,507,cs),
(553,435,o),
(514,381,o),
(429,381,cs),
(249,381,l),
(223,307,l),
(403,307,ls),
(472,307,o),
(498,277,o),
(498,230,cs),
(498,134,o),
(447,77,o),
(342,77,cs),
(155,77,l),
(132,0,l),
(359,0,ls),
(532,0,o),
(620,90,o),
(620,219,cs),
(620,297,o),
(577,346,o),
(475,352,c),
(471,343,l),
(598,347,o),
(673,408,o),
(673,520,cs),
(673,594,o),
(628,650,o),
(498,650,cs),
(330,650,l),
(307,574,l)
);
},
{
closed = 1;
nodes = (
(80,69,l),
(-6,47,l),
(-21,0,l),
(182,0,l),
(381,650,l),
(171,650,l),
(156,603,l),
(237,581,l)
);
}
);
width = 686;
},
{
anchors = (
{
name = bottom;
pos = (319,0);
},
{
name = top;
pos = (463,650);
}
);
layerId = "48B243E4-A9BC-4CE2-9E97-0DBF8BE24EDB";
shapes = (
{
closed = 1;
nodes = (
(484,556,ls),
(536,556,o),
(555,538,o),
(555,503,cs),
(555,443,o),
(529,385,o),
(461,385,cs),
(278,385,l),
(249,297,l),
(431,297,ls),
(485,297,o),
(503,274,o),
(503,238,cs),
(503,160,o),
(469,100,o),
(383,100,cs),
(190,100,l),
(160,0,l),
(409,0,ls),
(595,0,o),
(686,86,o),
(686,223,cs),
(686,303,o),
(643,347,o),
(527,353,c),
(519,344,l),
(659,346,o),
(739,404,o),
(739,519,cs),
(739,598,o),
(689,650,o),
(543,650,cs),
(358,650,l),
(330,556,l)
);
},
{
closed = 1;
nodes = (
(71,74,l),
(-10,48,l),
(-25,0,l),
(235,0,l),
(435,650,l),
(166,650,l),
(152,601,l),
(227,577,l)
);
}
);
width = 746;
}
);
unicode = 66;
},
{
glyphname = C;
kernLeft = G;
kernRight = C;
layers = (
{
anchors = (
{
name = bottom;
pos = (342,0);
},
{
name = right;
pos = (571,0);
},
{
name = top;
pos = (492,650);
}
);
layerId = master01;
shapes = (
{
closed = 1;
nodes = (
(506,80,o),
(448,68,o),
(398,68,cs),
(273,68,o),
(202,129,o),
(202,258,cs),
(202,441,o),
(296,578,o),
(509,578,cs),
(561,578,o),
(604,571,o),
(643,546,c),
(625,592,l),
(623,435,l),
(694,435,l),
(759,684,l),
(704,684,l),
(643,629,l),
(688,631,l),
(643,648,o),
(590,660,o),
(525,660,cs),
(230,660,o),
(77,486,o),
(77,251,cs),
(77,91,o),
(168,-10,o),
(367,-10,cs),
(453,-10,o),
(523,3,o),
(578,24,c),
(653,206,l),
(581,206,l),
(459,41,l),
(558,99,l)
);
}
);
width = 704;
},
{
anchors = (
{
name = bottom;
pos = (360,0);
},
{
name = right;
pos = (600,0);
},
{
name = top;
pos = (484,650);
}
);
layerId = "48B243E4-A9BC-4CE2-9E97-0DBF8BE24EDB";
shapes = (
{
closed = 1;
nodes = (
(520,93,o),
(470,84,o),
(435,84,cs),
(319,84,o),
(254,138,o),
(254,263,cs),
(254,441,o),
(340,559,o),
(529,559,cs),
(576,559,o),
(617,550,o),
(647,529,c),
(609,605,l),
(627,422,l),
(713,422,l),
(757,690,l),
(694,690,l),
(623,627,l),
(712,632,l),
(663,650,o),
(608,662,o),
(538,662,cs),
(219,662,o),
(72,487,o),
(72,256,cs),
(72,98,o),
(164,-12,o),
(381,-12,cs),
(474,-12,o),
(542,0,o),
(600,18,c),
(684,221,l),
(601,221,l),
(459,42,l),
(566,108,l)
);
}
);
width = 723;
}
);
unicode = 67;
},
{
glyphname = Ccedilla;
kernLeft = G;
kernRight = C;
layers = (
{
layerId = master01;
shapes = (
{
closed = 1;
nodes = (
(506,80,o),
(448,68,o),
(398,68,cs),
(273,68,o),
(202,129,o),
(202,258,cs),
(202,441,o),
(296,578,o),
(509,578,cs),
(561,578,o),
(604,571,o),
(643,546,c),
(625,592,l),
(623,435,l),
(694,435,l),
(759,684,l),
(704,684,l),
(643,629,l),
(688,631,l),
(643,648,o),
(590,660,o),
(525,660,cs),
(230,660,o),
(77,486,o),
(77,251,cs),
(77,91,o),
(168,-10,o),
(367,-10,cs),
(453,-10,o),
(523,3,o),
(578,24,c),
(653,206,l),
(581,206,l),
(459,41,l),
(558,99,l)
);
},
{
closed = 1;
nodes = (
(234,-179,o),
(217,-155,o),
(210,-155,cs),
(196,-155,o),
(185,-168,o),
(185,-183,cs),
(185,-203,o),
(201,-214,o),
(249,-214,c),
(347,-214,o),
(389,-171,o),
(389,-115,cs),
(389,-83,o),
(367,-59,o),
(296,-45,c),
(292,-79,l),
(387,11,l),
(339,11,l),
(240,-84,l),
(236,-96,l),
(302,-106,o),
(320,-118,o),
(320,-136,cs),
(320,-162,o),
(301,-179,o),
(265,-179,cs)
);
}
);
width = 704;
},
{
layerId = "48B243E4-A9BC-4CE2-9E97-0DBF8BE24EDB";
shapes = (
{
closed = 1;
nodes = (
(520,93,o),
(470,84,o),
(435,84,cs),
(319,84,o),
(254,138,o),
(254,263,cs),
(254,441,o),
(340,559,o),
(529,559,cs),
(576,559,o),
(617,550,o),
(647,529,c),
(609,605,l),
(627,422,l),
(713,422,l),
(757,690,l),
(694,690,l),
(623,627,l),
(712,632,l),
(663,650,o),
(608,662,o),
(538,662,cs),
(219,662,o),
(72,487,o),
(72,256,cs),
(72,98,o),
(164,-12,o),
(381,-12,cs),
(474,-12,o),
(542,0,o),
(600,18,c),
(684,221,l),
(601,221,l),
(459,42,l),
(566,108,l)
);
},
{
closed = 1;
nodes = (
(248,-171,o),
(227,-149,o),
(217,-149,cs),
(202,-149,o),
(191,-162,o),
(191,-180,cs),
(191,-203,o),
(209,-214,o),
(260,-214,c),
(377,-214,o),
(419,-170,o),
(419,-109,cs),
(419,-74,o),
(395,-48,o),
(317,-37,c),
(307,-84,l),
(422,18,l),
(360,18,l),
(247,-84,l),
(242,-101,l),
(313,-108,o),
(330,-118,o),
(330,-135,cs),
(330,-157,o),
(314,-171,o),
(279,-171,cs)
);
}
);
width = 723;
}
);
unicode = 199;
},
{
glyphname = D;
kernLeft = H;
kernRight = D;
layers = (
{
anchors = (
{
name = bottom;
pos = (339,0);
},
{
name = top;
pos = (490,650);
}
);
layerId = master01;
shapes = (
{
closed = 1;
nodes = (
(143,75,l),
(114,0,l),
(306,0,ls),
(576,0,o),
(736,164,o),
(736,416,cs),
(736,563,o),
(657,650,o),
(437,650,cs),
(313,650,l),
(294,575,l),
(430,575,ls),
(563,575,o),
(611,517,o),
(611,421,cs),
(611,229,o),
(508,75,o),
(304,75,cs)
);
},
{
closed = 1;
nodes = (
(80,69,l),
(-6,47,l),
(-21,0,l),
(182,0,l),
(381,650,l),
(171,650,l),
(156,603,l),
(237,581,l)
);
}
);
width = 757;
},
{
anchors = (
{
name = bottom;
pos = (341,0);
},
{
name = top;
pos = (495,650);
}
);
layerId = "48B243E4-A9BC-4CE2-9E97-0DBF8BE24EDB";
shapes = (
{
closed = 1;
nodes = (
(180,93,l),
(137,0,l),
(326,0,ls),
(594,0,o),
(769,156,o),
(769,418,cs),
(769,555,o),
(696,650,o),
(476,650,cs),
(335,650,l),
(323,556,l),
(449,556,ls),
(547,556,o),
(588,511,o),
(588,434,cs),
(588,292,o),
(505,93,o),
(338,93,cs)
);
},
{
closed = 1;
nodes = (
(71,74,l),
(-10,48,l),
(-25,0,l),
(235,0,l),
(435,650,l),
(166,650,l),
(152,601,l),
(227,577,l)
);
}
);
width = 784;
}
);
unicode = 68;
},
{
glyphname = Dcroat;
kernLeft = H;
kernRight = D;
layers = (
{
layerId = master01;
shapes = (
{
closed = 1;
nodes = (
(415,293,l),
(436,361,l),
(91,361,l),
(70,293,l)
);
},
{
closed = 1;
nodes = (
(144,75,l),
(116,0,l),
(307,0,ls),
(577,0,o),
(737,164,o),
(737,416,cs),
(737,563,o),
(659,650,o),
(439,650,cs),
(314,650,l),
(295,575,l),
(431,575,ls),
(565,575,o),
(613,517,o),
(613,421,cs),
(613,229,o),
(510,75,o),
(305,75,cs)
);
},
{
closed = 1;
nodes = (
(81,69,l),
(-5,47,l),
(-19,0,l),
(184,0,l),
(383,650,l),
(172,650,l),
(158,603,l),
(239,581,l)
);
}
);
width = 758;
},
{
layerId = "48B243E4-A9BC-4CE2-9E97-0DBF8BE24EDB";
shapes = (
{
closed = 1;
nodes = (
(445,285,l),
(472,372,l),
(91,372,l),
(64,285,l)
);
},
{
closed = 1;
nodes = (
(182,93,l),
(139,0,l),
(328,0,ls),
(596,0,o),
(771,156,o),
(771,418,cs),
(771,555,o),
(698,650,o),
(478,650,cs),
(337,650,l),
(325,556,l),
(451,556,ls),
(549,556,o),
(590,511,o),
(590,434,cs),
(590,292,o),
(507,93,o),
(340,93,cs)
);
},
{
closed = 1;
nodes = (
(73,74,l),
(-8,48,l),
(-23,0,l),
(237,0,l),
(437,650,l),
(168,650,l),
(154,601,l),
(229,577,l)
);
}
);
width = 786;
}
);
unicode = 272;
},
{
glyphname = E;
kernLeft = H;
kernRight = E;
layers = (
{
anchors = (
{
name = bottom;
pos = (279,0);
},
{
name = right;
pos = (512,0);
},
{
name = top;
pos = (457,650);
}
);
layerId = master01;
shapes = (
{
closed = 1;
nodes = (
(80,69,l),
(-6,47,l),
(-21,0,l),
(182,0,l),
(381,650,l),
(171,650,l),
(156,603,l),
(237,581,l)
);
},
{
closed = 1;
nodes = (
(616,474,l),
(683,474,l),
(744,684,l),
(693,684,l),
(643,650,l),
(315,650,l),
(291,575,l),
(645,575,l),
(624,615,l)
);
},
{
closed = 1;
nodes = (
(515,-36,l),
(642,200,l),
(574,200,l),
(423,35,l),
(488,75,l),
(140,75,l),
(116,0,l),
(439,0,l),
(456,-36,l)
);
},
{
closed = 1;
nodes = (
(504,338,l),
(540,455,l),
(478,455,l),
(446,375,l),
(231,375,l),
(209,302,l),
(424,302,l),
(407,221,l),
(468,221,l)
);
}
);
width = 682;
},
{
anchors = (
{
name = bottom;
pos = (295,0);
},
{
name = right;
pos = (534,0);
},
{
name = top;
pos = (477,650);
}
);
layerId = "48B243E4-A9BC-4CE2-9E97-0DBF8BE24EDB";
shapes = (
{
closed = 1;
nodes = (
(71,74,l),
(-10,48,l),
(-25,0,l),
(235,0,l),
(435,650,l),
(166,650,l),
(152,601,l),
(227,577,l)
);
},
{
closed = 1;
nodes = (
(647,464,l),
(727,464,l),
(785,690,l),
(728,690,l),
(671,650,l),
(343,650,l),
(316,556,l),
(673,556,l),
(651,613,l)
);
},
{
closed = 1;
nodes = (
(554,-42,l),
(695,215,l),
(615,215,l),
(442,39,l),
(535,93,l),
(173,93,l),
(145,0,l),
(472,0,l),
(488,-42,l)
);
},
{
closed = 1;
nodes = (
(540,338,l),
(576,455,l),
(505,455,l),
(475,381,l),
(261,381,l),
(235,296,l),
(449,296,l),
(433,221,l),
(504,221,l)
);
}
);
width = 725;
}
);
unicode = 69;
},
{
glyphname = Eogonek;
kernLeft = H;
kernRight = E;
layers = (
{
layerId = master01;
shapes = (
{
closed = 1;
nodes = (
(80,69,l),
(-6,47,l),
(-21,0,l),
(182,0,l),
(381,650,l),
(171,650,l),
(156,603,l),
(237,581,l)
);
},
{
closed = 1;
nodes = (
(468,221,l),
(504,338,l),
(540,455,l),
(478,455,l),
(446,375,l),
(231,375,l),
(209,302,l),
(424,302,l),
(407,221,l)
);
},
{
closed = 1;
nodes = (
(744,684,l),
(693,684,l),
(643,650,l),
(315,650,l),
(291,575,l),
(645,575,l),
(624,615,l),
(616,474,l),
(683,474,l)
);
},
{
closed = 1;
nodes = (
(515,-36,l),
(642,200,l),
(574,200,l),
(423,35,l),
(488,75,l),
(140,75,l),
(116,0,l),
(439,0,l),
(456,-36,l)
);
},
{
closed = 1;
nodes = (
(380,-113,o),
(384,-95,o),
(421,-46,cs),
(474,23,l),
(438,23,l),
(385,-31,ls),
(321,-94,o),
(312,-119,o),
(312,-154,cs),
(312,-187,o),
(331,-214,o),
(376,-214,cs),
(406,-214,o),
(433,-207,o),
(474,-182,c),
(474,-148,l),
(449,-160,o),
(435,-163,o),
(417,-163,cs),
(392,-163,o),
(380,-152,o),
(380,-132,cs)
);
}
);
width = 682;
},
{
layerId = "48B243E4-A9BC-4CE2-9E97-0DBF8BE24EDB";
shapes = (
{
closed = 1;
nodes = (
(71,74,l),
(-10,48,l),
(-25,0,l),
(235,0,l),
(435,650,l),
(166,650,l),
(152,601,l),
(227,577,l)
);
},
{
closed = 1;
nodes = (
(504,221,l),
(540,338,l),
(576,455,l),
(505,455,l),
(475,381,l),
(261,381,l),
(235,296,l),
(449,296,l),
(433,221,l)
);
},
{
closed = 1;
nodes = (
(785,690,l),
(728,690,l),
(671,650,l),
(343,650,l),
(316,556,l),
(673,556,l),
(651,613,l),
(647,464,l),
(727,464,l)
);
},
{
closed = 1;
nodes = (
(554,-42,l),
(695,215,l),
(615,215,l),
(442,39,l),
(535,93,l),
(173,93,l),
(145,0,l),
(472,0,l),
(488,-42,l)
);
},
{
closed = 1;
nodes = (
(404,-101,o),
(410,-86,o),
(455,-38,cs),
(525,35,l),
(482,35,l),
(414,-17,ls),
(332,-79,o),
(319,-106,o),
(319,-148,cs),
(319,-184,o),
(340,-214,o),
(391,-214,cs),
(422,-214,o),
(451,-206,o),
(497,-180,c),
(497,-137,l),
(472,-147,o),
(459,-150,o),
(441,-150,cs),
(416,-150,o),
(404,-141,o),
(404,-120,cs)
);
}
);
width = 725;
}
);
unicode = 280;
},
{
glyphname = F;
kernLeft = H;
layers = (
{
anchors = (
{
name = bottom;
pos = (120,0);
},
{
name = top;
pos = (441,650);
}
);
layerId = master01;
shapes = (
{
closed = 1;
nodes = (
(461,419,l),
(429,339,l),
(214,339,l),
(191,266,l),
(407,266,l),
(389,184,l),
(451,184,l),
(487,302,l),
(522,419,l)
);
},
{
closed = 1;
nodes = (
(731,684,l),
(680,684,l),
(630,650,l),
(315,650,l),
(291,575,l),
(631,575,l),
(610,613,l),
(601,461,l),
(668,461,l)
);
},
{
closed = 1;
nodes = (
(381,650,l),
(171,650,l),
(156,603,l),
(237,581,l),
(80,69,l),
(-6,47,l),
(-21,0,l),
(269,0,l),
(283,47,l),
(203,68,l)
);
}
);
width = 633;
},
{
anchors = (
{
name = bottom;
pos = (142,0);
},
{
name = top;
pos = (456,650);
}
);
layerId = "48B243E4-A9BC-4CE2-9E97-0DBF8BE24EDB";
shapes = (
{
closed = 1;
nodes = (
(482,416,l),
(452,342,l),
(238,342,l),
(212,257,l),
(426,257,l),
(410,181,l),
(481,181,l),
(517,299,l),
(553,416,l)
);
},
{
closed = 1;
nodes = (
(773,690,l),
(716,690,l),
(659,650,l),
(343,650,l),
(316,556,l),
(661,556,l),
(639,611,l),
(630,447,l),
(709,447,l)
);
},
{
closed = 1;
nodes = (
(435,650,l),
(166,650,l),
(152,601,l),
(227,577,l),
(71,74,l),
(-10,48,l),
(-25,0,l),
(317,0,l),
(331,48,l),
(257,73,l)
);
}
);
width = 672;
}
);
unicode = 70;
},
{
glyphname = G;
kernLeft = G;
kernRight = G;
layers = (
{
anchors = (
{
name = bottom;
pos = (352,0);
},
{
name = top;
pos = (496,650);
}
);
layerId = master01;
shapes = (
{
closed = 1;
nodes = (
(275,68,o),
(202,130,o),
(202,266,cs),
(202,444,o),
(293,578,o),
(501,578,cs),
(558,578,o),
(606,572,o),
(648,546,c),
(633,592,l),
(631,435,l),
(703,435,l),
(767,684,l),
(712,684,l),
(651,629,l),
(693,631,l),
(646,649,o),
(590,660,o),
(522,660,cs),
(229,660,o),
(77,488,o),
(77,251,cs),
(77,92,o),
(163,-10,o),
(384,-10,cs),
(486,-10,o),
(583,12,o),
(668,49,c),
(686,100,l),
(622,100,l),
(666,242,l),
(739,264,l),
(754,311,l),
(464,311,l),
(450,264,l),
(543,243,l),
(483,47,l),
(543,102,l),
(490,76,o),
(441,68,o),
(398,68,cs)
);
}
);
width = 771;
},
{
anchors = (
{
name = bottom;
pos = (378,0);
},
{
name = top;
pos = (491,650);
}
);
layerId = "48B243E4-A9BC-4CE2-9E97-0DBF8BE24EDB";
shapes = (
{
closed = 1;
nodes = (
(323,84,o),
(252,139,o),
(252,266,cs),
(252,440,o),
(341,559,o),
(519,559,cs),
(573,559,o),
(622,551,o),
(655,529,c),
(628,605,l),
(647,422,l),
(733,422,l),
(776,690,l),
(714,690,l),
(643,627,l),
(721,632,l),
(667,652,o),
(606,662,o),
(530,662,cs),
(230,662,o),
(71,493,o),
(71,253,cs),
(71,94,o),
(179,-12,o),
(405,-12,cs),
(525,-12,o),
(611,4,o),
(700,36,c),
(728,103,l),
(664,103,l),
(705,237,l),
(776,262,l),
(791,311,l),
(449,311,l),
(435,262,l),
(520,238,l),
(458,36,l),
(558,110,l),
(512,92,o),
(465,84,o),
(433,84,cs)
);
}
);
width = 803;
}
);
unicode = 71;
},
{
glyphname = H;
kernLeft = H;
kernRight = H;
layers = (
{
anchors = (
{
name = bottom;
pos = (348,0);
},
{
name = top;
pos = (510,650);
}
);
layerId = master01;
shapes = (
{
closed = 1;
nodes = (
(644,294,l),
(665,369,l),
(226,369,l),
(205,294,l)
);
},
{
closed = 1;
nodes = (
(80,69,l),
(-6,47,l),
(-21,0,l),
(269,0,l),
(283,47,l),
(203,68,l),
(360,581,l),
(446,603,l),
(460,650,l),
(171,650,l),
(156,603,l),
(237,581,l)
);
},
{
closed = 1;
nodes = (
(506,69,l),
(420,47,l),
(406,0,l),
(695,0,l),
(710,47,l),
(629,68,l),
(786,581,l),
(872,603,l),
(886,650,l),
(597,650,l),
(583,603,l),
(663,581,l)
);
}
);
width = 813;
},
{
anchors = (
{
name = bottom;
pos = (363,0);
},
{
name = top;
pos = (546,650);
}
);
layerId = "48B243E4-A9BC-4CE2-9E97-0DBF8BE24EDB";
shapes = (
{
closed = 1;
nodes = (
(666,285,l),
(690,378,l),
(251,378,l),
(227,285,l)
);
},
{
closed = 1;
nodes = (
(71,74,l),
(-10,48,l),
(-25,0,l),
(317,0,l),
(331,48,l),
(257,73,l),
(412,576,l),
(494,601,l),
(508,650,l),
(166,650,l),
(152,601,l),
(227,577,l)
);
},
{
closed = 1;
nodes = (
(500,74,l),
(419,48,l),
(405,0,l),
(746,0,l),
(761,48,l),
(686,73,l),
(841,576,l),
(923,601,l),
(937,650,l),
(595,650,l),
(581,601,l),
(656,577,l)
);
}
);
width = 860;
}
);
unicode = 72;
},
{
glyphname = Hbar;
kernLeft = H;
kernRight = H;
layers = (
{
layerId = master01;
shapes = (
{
closed = 1;
nodes = (
(645,294,l),
(666,369,l),
(227,369,l),
(206,294,l)
);
},
{
closed = 1;
nodes = (
(834,455,l),
(854,523,l),
(140,523,l),
(119,455,l)
);
},
{
closed = 1;
nodes = (
(81,69,l),
(-5,47,l),
(-20,0,l),
(270,0,l),
(284,47,l),
(204,68,l),
(361,581,l),
(447,603,l),
(461,650,l),
(172,650,l),
(158,603,l),
(238,581,l)
);
},
{
closed = 1;
nodes = (
(507,69,l),
(421,47,l),
(407,0,l),
(696,0,l),
(711,47,l),
(630,68,l),
(787,581,l),
(873,603,l),
(887,650,l),
(598,650,l),
(584,603,l),
(664,581,l)
);
}
);
width = 815;
},
{
layerId = "48B243E4-A9BC-4CE2-9E97-0DBF8BE24EDB";
shapes = (
{
closed = 1;
nodes = (
(667,285,l),
(692,378,l),
(253,378,l),
(228,285,l)
);
},
{
closed = 1;
nodes = (
(880,449,l),
(907,537,l),
(141,537,l),
(114,449,l)
);
},
{
closed = 1;
nodes = (
(73,74,l),
(-8,48,l),
(-23,0,l),
(319,0,l),
(333,48,l),
(258,73,l),
(414,576,l),
(495,601,l),
(509,650,l),
(168,650,l),
(153,601,l),
(228,577,l)
);
},
{
closed = 1;
nodes = (
(502,74,l),
(421,48,l),
(407,0,l),
(748,0,l),
(763,48,l),
(687,73,l),
(843,576,l),
(924,601,l),
(938,650,l),
(597,650,l),
(583,601,l),
(657,577,l)
);
}
);
width = 863;
}
);
unicode = 294;
},
{
glyphname = I;
kernLeft = H;
kernRight = H;
layers = (
{
anchors = (
{
name = bottom;
pos = (131,0);
},
{
name = right;
pos = (194,0);
},
{
name = top;
pos = (308,650);
}
);
layerId = master01;
shapes = (
{
closed = 1;
nodes = (
(80,69,l),
(-6,47,l),
(-21,0,l),
(269,0,l),
(283,47,l),
(203,68,l),
(360,581,l),
(446,603,l),
(460,650,l),
(171,650,l),
(156,603,l),
(237,581,l)
);
}
);
width = 387;
},
{
anchors = (
{
name = bottom;
pos = (146,0);
},
{
name = right;
pos = (228,0);
},
{
name = top;
pos = (337,650);
}
);
layerId = "48B243E4-A9BC-4CE2-9E97-0DBF8BE24EDB";
shapes = (
{
closed = 1;
nodes = (
(71,74,l),
(-10,48,l),
(-25,0,l),
(317,0,l),
(331,48,l),
(257,73,l),
(412,576,l),
(494,601,l),
(508,650,l),
(166,650,l),
(152,601,l),
(227,577,l)
);
}
);
width = 431;
}
);
unicode = 73;
},
{
glyphname = Iogonek;
kernLeft = H;
kernRight = H;
layers = (
{
layerId = master01;
shapes = (
{
closed = 1;
nodes = (
(80,69,l),
(-6,47,l),
(-21,0,l),
(269,0,l),
(283,47,l),
(203,68,l),
(360,581,l),
(446,603,l),
(460,650,l),
(171,650,l),
(156,603,l),
(237,581,l)
);
},
{
closed = 1;
nodes = (
(63,-113,o),
(69,-93,o),
(108,-43,cs),
(162,23,l),
(125,23,l),
(73,-28,ls),
(7,-90,o),
(-5,-119,o),
(-5,-154,cs),
(-5,-187,o),
(14,-214,o),
(59,-214,cs),
(89,-214,o),
(116,-207,o),
(157,-182,c),
(157,-148,l),
(132,-160,o),
(118,-163,o),
(100,-163,cs),
(75,-163,o),
(63,-152,o),
(63,-132,cs)
);
}
);
width = 387;
},
{
layerId = "48B243E4-A9BC-4CE2-9E97-0DBF8BE24EDB";
shapes = (
{
closed = 1;
nodes = (
(71,74,l),
(-10,48,l),
(-25,0,l),
(317,0,l),
(331,48,l),
(257,73,l),
(412,576,l),
(494,601,l),
(508,650,l),
(166,650,l),
(152,601,l),
(227,577,l)
);
},
{
closed = 1;
nodes = (
(99,-101,o),
(103,-85,o),
(143,-37,cs),
(205,35,l),
(162,35,l),
(103,-16,ls),
(27,-79,o),
(13,-107,o),
(13,-148,cs),
(13,-184,o),
(34,-214,o),
(86,-214,cs),
(116,-214,o),
(146,-206,o),
(191,-180,c),
(191,-137,l),
(167,-147,o),
(153,-150,o),
(136,-150,cs),
(110,-150,o),
(99,-141,o),
(99,-120,cs)
);
}
);
width = 431;
}
);
unicode = 302;
},
{
glyphname = J;
kernLeft = J;
kernRight = J;
layers = (
{
anchors = (
{
name = bottom;
pos = (149,0);
},
{
name = top;
pos = (446,650);
}
);
layerId = master01;
shapes = (
{
closed = 1;
nodes = (
(500,581,l),
(586,603,l),
(600,650,l),
(311,650,l),
(297,603,l),
(377,581,l),
(255,182,ls),
(229,100,o),
(194,75,o),
(130,75,cs),
(53,75,o),
(43,138,o),
(22,138,cs),
(-10,138,o),
(-32,115,o),
(-32,81,cs),
(-32,27,o),
(8,-8,o),
(122,-8,cs),
(254,-8,o),
(337,49,o),
(370,156,cs)
);
}
);
width = 511;
},
{
anchors = (
{
name = bottom;
pos = (173,0);
},
{
name = top;
pos = (492,650);
}
);
layerId = "48B243E4-A9BC-4CE2-9E97-0DBF8BE24EDB";
shapes = (
{
closed = 1;
nodes = (
(568,576,l),
(649,601,l),
(663,650,l),
(322,650,l),
(308,601,l),
(383,577,l),
(265,197,ls),
(240,118,o),
(207,93,o),
(147,93,cs),
(78,93,o),
(63,163,o),
(32,163,cs),
(-8,163,o),
(-33,132,o),
(-33,90,cs),
(-33,29,o),
(14,-10,o),
(136,-10,cs),
(307,-10,o),
(410,68,o),
(444,177,cs)
);
}
);
width = 568;
}
);
unicode = 74;
},
{
glyphname = K;
kernLeft = H;
kernRight = K;
layers = (
{
anchors = (
{
name = bottom;
pos = (359,0);
},
{
name = top;
pos = (502,650);
}
);
layerId = master01;
shapes = (
{
closed = 1;
nodes = (
(437,388,l),
(426,326,l),
(741,582,l),
(820,603,l),
(834,650,l),
(589,650,l),
(574,603,l),
(638,584,l),
(379,374,l),
(256,374,l),
(234,298,l),
(351,298,l),
(493,49,l),
(488,34,l),
(478,0,l),
(677,0,l),
(692,49,l),
(624,65,l)
);
},
{
closed = 1;
nodes = (
(80,69,l),
(-6,47,l),
(-21,0,l),
(269,0,l),
(283,47,l),
(203,68,l),
(360,581,l),
(446,603,l),
(460,650,l),
(171,650,l),
(156,603,l),
(237,581,l)
);
}
);
width = 759;
},
{
anchors = (
{
name = bottom;
pos = (390,0);
},
{
name = top;
pos = (531,650);
}
);
layerId = "48B243E4-A9BC-4CE2-9E97-0DBF8BE24EDB";
shapes = (
{
closed = 1;
nodes = (
(534,414,l),
(510,336,l),
(800,579,l),
(879,601,l),
(894,650,l),
(626,650,l),
(611,601,l),
(673,580,l),
(440,383,l),
(289,383,l),
(263,290,l),
(394,290,l),
(503,50,l),
(501,44,l),
(488,0,l),
(742,0,l),
(758,51,l),
(698,71,l)
);
},
{
closed = 1;
nodes = (
(71,74,l),
(-10,48,l),
(-25,0,l),
(317,0,l),
(331,48,l),
(257,73,l),
(412,576,l),
(494,601,l),
(508,650,l),
(166,650,l),
(152,601,l),
(227,577,l)
);
}
);
width = 817;
}
);
unicode = 75;
},
{
glyphname = L;
kernLeft = H;
kernRight = L;
layers = (
{
anchors = (
{
name = bottom;
pos = (243,0);
},
{
name = mid;
pos = (542,362);
},
{
name = right;
pos = (470,650);
},
{
name = top;
pos = (317,650);
}
);
layerId = master01;
shapes = (
{
closed = 1;
nodes = (
(446,603,l),
(460,650,l),
(171,650,l),
(156,603,l),
(237,581,l),
(80,69,l),
(-6,47,l),
(-21,0,l),
(182,0,l),
(360,581,l)
);
},
{
closed = 1;
nodes = (
(443,75,l),
(93,75,l),
(69,0,l),
(399,0,l),
(420,-36,l),
(478,-36,l),
(586,221,l),
(518,221,l),
(383,37,l)
);
}
);
width = 615;
},
{
anchors = (
{
name = bottom;
pos = (261,0);
},
{
name = mid;
pos = (598,379);
},
{
name = right;
pos = (528,650);
},
{
name = top;
pos = (341,650);
}
);
layerId = "48B243E4-A9BC-4CE2-9E97-0DBF8BE24EDB";
shapes = (
{
closed = 1;
nodes = (
(494,601,l),
(508,650,l),
(166,650,l),
(152,601,l),
(227,577,l),
(71,74,l),
(-10,48,l),
(-25,0,l),
(235,0,l),
(412,576,l)
);
},
{
closed = 1;
nodes = (
(473,93,l),
(104,93,l),
(76,0,l),
(426,0,l),
(455,-42,l),
(521,-42,l),
(643,242,l),
(562,242,l),
(401,47,l)
);
}
);
width = 662;
}
);
unicode = 76;
},
{
glyphname = Ldot;
kernLeft = kern_H2;
kernRight = kern_L1;
layers = (
{
layerId = master01;
shapes = (
{
ref = L;
},
{
closed = 1;
nodes = (
(588,306,o),
(612,335,o),
(612,373,cs),
(612,403,o),
(592,418,o),
(552,418,cs),
(496,418,o),
(472,391,o),
(472,353,cs),
(472,323,o),
(493,306,o),
(532,306,cs)
);
}
);
userData = {
com.typemytype.robofont.layerData = {
mask = {
anchors = (
);
components = (
);
contours = (
{
points = (
{
segmentType = line;
smooth = 0;
x = 10;
y = 0;
},
{
segmentType = line;
smooth = 0;
x = 482;
y = 0;
},
{
segmentType = line;
smooth = 0;
x = 521;
y = 222;
},
{
segmentType = line;
smooth = 0;
x = 505;
y = 222;
},
{
segmentType = line;
smooth = 0;
x = 412;
y = 50;
},
{
segmentType = line;
smooth = 0;
x = 181;
y = 50;
},
{
segmentType = line;
smooth = 0;
x = 278;
y = 604;
},
{
segmentType = line;
smooth = 0;
x = 370;
y = 644;
},
{
segmentType = line;
smooth = 0;
x = 373;
y = 660;
},
{
segmentType = line;
smooth = 0;
x = 126;
y = 660;
},
{
segmentType = line;
smooth = 0;
x = 123;
y = 644;
},
{
segmentType = line;
smooth = 0;
x = 192;
y = 604;
},
{
segmentType = line;
smooth = 0;
x = 96;
y = 56;
},
{
segmentType = line;
smooth = 0;
x = 13;
y = 16;
}
);
},
{
points = (
{
segmentType = curve;
smooth = 1;
x = 489;
y = 290;
},
{
smooth = 0;
x = 520;
y = 290;
},
{
smooth = 0;
x = 546;
y = 316;
},
{
segmentType = curve;
smooth = 1;
x = 546;
y = 347;
},
{
smooth = 0;
x = 546;
y = 378;
},
{
smooth = 0;
x = 520;
y = 404;
},
{
segmentType = curve;
smooth = 1;
x = 489;
y = 404;
},
{
smooth = 0;
x = 458;
y = 404;
},
{
smooth = 0;
x = 432;
y = 378;
},
{
segmentType = curve;
smooth = 1;
x = 432;
y = 347;
},
{
smooth = 0;
x = 432;
y = 316;
},
{
smooth = 0;
x = 458;
y = 290;
}
);
}
);
lib = {
};
name = Ldot;
unicodes = (
);
width = 598;
};
};
};
width = 619;
},
{
layerId = "48B243E4-A9BC-4CE2-9E97-0DBF8BE24EDB";
shapes = (
{
ref = L;
},
{
closed = 1;
nodes = (
(657,314,o),
(685,351,o),
(685,395,cs),
(685,427,o),
(662,444,o),
(614,444,cs),
(540,444,o),
(512,408,o),
(512,364,cs),
(512,333,o),
(535,314,o),
(583,314,cs)
);
}
);
userData = {
com.typemytype.robofont.layerData = {
mask = {
anchors = (
);
components = (
);
contours = (
{
points = (
{
segmentType = line;
smooth = 0;
x = -30;
y = 0;
},
{
segmentType = line;
smooth = 0;
x = 489;
y = 0;
},
{
segmentType = line;
smooth = 0;
x = 535;
y = 245;
},
{
segmentType = line;
smooth = 0;
x = 519;
y = 245;
},
{
segmentType = line;
smooth = 0;
x = 395;
y = 55;
},
{
segmentType = line;
smooth = 0;
x = 230;
y = 55;
},
{
segmentType = line;
smooth = 0;
x = 327;
y = 602;
},
{
segmentType = line;
smooth = 0;
x = 424;
y = 644;
},
{
segmentType = line;
smooth = 0;
x = 427;
y = 660;
},
{
segmentType = line;
smooth = 0;
x = 86;
y = 660;
},
{
segmentType = line;
smooth = 0;
x = 83;
y = 644;
},
{
segmentType = line;
smooth = 0;
x = 156;
y = 602;
},
{
segmentType = line;
smooth = 0;
x = 60;
y = 58;
},
{
segmentType = line;
smooth = 0;
x = -27;
y = 16;
}
);
},
{
points = (
{
segmentType = curve;
smooth = 1;
x = 484;
y = 279;
},
{
smooth = 0;
x = 529;
y = 279;
},
{
smooth = 0;
x = 561;
y = 310;
},
{
segmentType = curve;
smooth = 1;
x = 561;
y = 355;
},
{
smooth = 0;
x = 561;
y = 400;
},
{
smooth = 0;
x = 529;
y = 433;
},
{
segmentType = curve;
smooth = 1;
x = 484;
y = 433;
},
{
smooth = 0;
x = 440;
y = 433;
},
{
smooth = 0;
x = 407;
y = 400;
},
{
segmentType = curve;
smooth = 1;
x = 407;
y = 355;
},
{
smooth = 0;
x = 407;
y = 310;
},
{
smooth = 0;
x = 440;
y = 279;
}
);
}
);
lib = {
};
name = Ldot;
unicodes = (
);
width = 570;
};
};
};
width = 670;
}
);
unicode = 319;
},
{
glyphname = Lslash;
kernRight = L;
layers = (
{
layerId = master01;
shapes = (
{
closed = 1;
nodes = (
(457,603,l),
(471,650,l),
(182,650,l),
(168,603,l),
(248,581,l),
(91,69,l),
(5,47,l),
(-10,0,l),
(193,0,l),
(371,581,l)
);
},
{
closed = 1;
nodes = (
(454,75,l),
(104,75,l),
(80,0,l),
(410,0,l),
(431,-36,l),
(490,-36,l),
(597,221,l),
(529,221,l),
(395,37,l)
);
},
{
closed = 1;
nodes = (
(276,358,l),
(221,351,l),
(79,284,l),
(55,205,l),
(197,272,l),
(251,279,l),
(468,381,l),
(492,460,l)
);
}
);
width = 626;
},
{
layerId = "48B243E4-A9BC-4CE2-9E97-0DBF8BE24EDB";
shapes = (
{
closed = 1;
nodes = (
(506,601,l),
(520,650,l),
(179,650,l),
(164,601,l),
(239,577,l),
(83,74,l),
(2,48,l),
(-12,0,l),
(247,0,l),
(425,576,l)
);
},
{
closed = 1;
nodes = (
(485,93,l),
(116,93,l),
(88,0,l),
(439,0,l),
(467,-42,l),
(533,-42,l),
(655,242,l),
(575,242,l),
(413,47,l)
);
},
{
closed = 1;
nodes = (
(314,366,l),
(243,364,l),
(73,286,l),
(43,188,l),
(213,265,l),
(284,267,l),
(511,372,l),
(542,470,l)
);
}
);
width = 674;
}
);
unicode = 321;
},
{
glyphname = M;
layers = (
{
anchors = (
{
name = bottom;
pos = (410,0);
},
{
name = top;
pos = (595,650);
}
);
layerId = master01;
shapes = (
{
closed = 1;
nodes = (
(324,596,l),
(331,0,l),
(465,0,l),
(861,635,l),
(866,650,l),
(789,650,l),
(406,26,l),
(448,32,l),
(440,650,l),
(187,650,l),
(173,603,l),
(253,573,l),
(63,68,l),
(-17,47,l),
(-31,0,l),
(200,0,l),
(214,47,l),
(140,69,l),
(342,602,l)
);
},
{
closed = 1;
nodes = (
(699,69,l),
(614,47,l),
(600,0,l),
(879,0,l),
(894,47,l),
(821,68,l),
(942,577,l),
(1032,603,l),
(1046,650,l),
(835,650,l)
);
}
);
width = 990;
},
{
anchors = (
{
name = bottom;
pos = (424,0);
},
{
name = top;
pos = (617,650);
}
);
layerId = "48B243E4-A9BC-4CE2-9E97-0DBF8BE24EDB";
shapes = (
{
closed = 1;
nodes = (
(328,593,l),
(316,0,l),
(511,0,l),
(868,633,l),
(873,650,l),
(774,650,l),
(430,26,l),
(495,47,l),
(507,650,l),
(177,650,l),
(163,601,l),
(242,567,l),
(57,72,l),
(-23,48,l),
(-36,0,l),
(214,0,l),
(228,48,l),
(155,73,l),
(354,609,l)
);
},
{
closed = 1;
nodes = (
(711,74,l),
(634,48,l),
(620,0,l),
(948,0,l),
(962,48,l),
(895,73,l),
(1011,573,l),
(1095,601,l),
(1109,650,l),
(839,650,l)
);
}
);
width = 1053;
}
);
unicode = 77;
},
{
glyphname = N;
kernLeft = N;
kernRight = N;
layers = (
{
anchors = (
{
name = bottom;
pos = (337,0);
},
{
name = top;
pos = (508,650);
}
);
layerId = master01;
shapes = (
{
closed = 1;
nodes = (
(406,650,l),
(174,650,l),
(160,604,l),
(236,579,l),
(78,68,l),
(-8,47,l),
(-22,0,l),
(226,0,l),
(240,47,l),
(157,69,l),
(317,588,l),
(301,590,l),
(437,0,l),
(585,0,l),
(763,581,l),
(850,603,l),
(863,650,l),
(615,650,l),
(601,603,l),
(684,581,l),
(522,53,l),
(546,39,l)
);
}
);
width = 778;
},
{
anchors = (
{
name = bottom;
pos = (348,0);
},
{
name = top;
pos = (530,650);
}
);
layerId = "48B243E4-A9BC-4CE2-9E97-0DBF8BE24EDB";
shapes = (
{
closed = 1;
nodes = (
(463,650,l),
(166,650,l),
(153,604,l),
(225,571,l),
(71,72,l),
(-12,48,l),
(-25,0,l),
(238,0,l),
(251,48,l),
(171,73,l),
(330,591,l),
(305,576,l),
(411,0,l),
(624,0,l),
(802,578,l),
(884,601,l),
(898,650,l),
(635,650,l),
(621,601,l),
(701,577,l),
(535,33,l),
(574,37,l)
);
}
);
width = 809;
}
);
unicode = 78;
},
{
glyphname = Eng;
kernLeft = N;
kernRight = N;
layers = (
{
layerId = master01;
shapes = (
{
closed = 1;
nodes = (
(403,650,l),
(174,650,l),
(160,604,l),
(236,579,l),
(78,68,l),
(-8,47,l),
(-22,0,l),
(226,0,l),
(240,47,l),
(157,69,l),
(317,588,l),
(301,590,l),
(511,-37,l),
(570,141,l)
);
},
{
closed = 1;
nodes = (
(761,581,l),
(847,603,l),
(860,650,l),
(612,650,l),
(599,603,l),
(681,581,l),
(485,-59,ls),
(467,-116,o),
(440,-130,o),
(398,-130,cs),
(344,-130,o),
(325,-88,o),
(311,-88,cs),
(282,-88,o),
(263,-116,o),
(263,-148,cs),
(263,-187,o),
(301,-214,o),
(369,-214,cs),
(473,-214,o),
(530,-168,o),
(561,-66,cs)
);
}
);
width = 775;
},
{
layerId = "48B243E4-A9BC-4CE2-9E97-0DBF8BE24EDB";
shapes = (
{
closed = 1;
nodes = (
(461,650,l),
(166,650,l),
(153,604,l),
(225,571,l),
(71,72,l),
(-12,48,l),
(-25,0,l),
(238,0,l),
(251,48,l),
(171,73,l),
(330,591,l),
(305,576,l),
(525,-30,l),
(607,228,l)
);
},
{
closed = 1;
nodes = (
(793,578,l),
(875,601,l),
(889,650,l),
(626,650,l),
(612,601,l),
(692,577,l),
(503,-42,ls),
(485,-99,o),
(462,-110,o),
(418,-110,cs),
(365,-110,o),
(338,-65,o),
(322,-65,cs),
(286,-65,o),
(261,-94,o),
(261,-137,cs),
(261,-180,o),
(299,-214,o),
(381,-214,cs),
(501,-214,o),
(567,-158,o),
(599,-52,cs)
);
}
);
width = 800;
}
);
unicode = 330;
},
{
glyphname = O;
kernLeft = O;
kernRight = O;
layers = (
{
anchors = (
{
name = bottom;
pos = (309,0);
},
{
name = horn;
pos = (673,650);
},
{
name = right;
pos = (396,0);
},
{
name = top;
pos = (500,650);
}
);
layerId = master01;
shapes = (
{
closed = 1;
nodes = (
(194,413,o),
(295,577,o),
(467,577,cs),
(577,577,o),
(627,516,o),
(627,415,cs),
(627,237,o),
(526,72,o),
(355,72,cs),
(245,72,o),
(194,134,o),
(194,235,cs)
);
},
{
closed = 1;
nodes = (
(750,564,o),
(655,660,o),
(471,660,cs),
(238,660,o),
(72,465,o),
(72,239,cs),
(72,86,o),
(167,-10,o),
(351,-10,cs),
(584,-10,o),
(750,185,o),
(750,411,cs)
);
}
);
width = 768;
},
{
anchors = (
{
name = bottom;
pos = (337,0);
},
{
name = horn;
pos = (666,650);
},
{
name = right;
pos = (437,0);
},
{
name = top;
pos = (505,650);
}
);
layerId = "48B243E4-A9BC-4CE2-9E97-0DBF8BE24EDB";
shapes = (
{
closed = 1;
nodes = (
(246,394,o),
(327,556,o),
(480,556,cs),
(567,556,o),
(609,510,o),
(609,421,cs),
(609,256,o),
(528,94,o),
(375,94,cs),
(288,94,o),
(246,140,o),
(246,229,cs)
);
},
{
closed = 1;
nodes = (
(786,568,o),
(688,662,o),
(485,662,cs),
(228,662,o),
(69,478,o),
(69,244,cs),
(69,82,o),
(167,-12,o),
(370,-12,cs),
(628,-12,o),
(786,172,o),
(786,406,cs)
);
}
);
width = 802;
}
);
unicode = 79;
},
{
glyphname = Oslash;
kernLeft = O;
kernRight = O;
layers = (
{
anchors = (
{
name = bottom;
pos = (315,0);
},
{
name = top;
pos = (506,650);
}
);
layerId = master01;
shapes = (
{
closed = 1;
nodes = (
(746,650,l),
(656,574,l),
(625,548,l),
(169,154,l),
(132,127,l),
(-19,0,l),
(87,0,l),
(177,76,l),
(208,102,l),
(664,496,l),
(701,523,l),
(852,650,l)
);
},
{
closed = 1;
nodes = (
(200,413,o),
(301,577,o),
(473,577,cs),
(583,577,o),
(633,516,o),
(633,415,cs),
(633,237,o),
(532,72,o),
(360,72,cs),
(250,72,o),
(200,134,o),
(200,235,cs)
);
},
{
closed = 1;
nodes = (
(755,564,o),
(660,660,o),
(476,660,cs),
(243,660,o),
(78,465,o),
(78,239,cs),
(78,86,o),
(173,-10,o),
(357,-10,cs),
(590,-10,o),
(755,185,o),
(755,411,cs)
);
}
);
width = 780;
},
{
anchors = (
{
name = bottom;
pos = (342,0);
},
{
name = top;
pos = (510,650);
}
);
layerId = "48B243E4-A9BC-4CE2-9E97-0DBF8BE24EDB";
shapes = (
{
closed = 1;
nodes = (
(763,650,l),
(669,573,l),
(626,542,l),
(195,175,l),
(141,141,l),
(-32,0,l),
(102,0,l),
(196,77,l),
(239,108,l),
(670,475,l),
(723,509,l),
(897,650,l)
);
},
{
closed = 1;
nodes = (
(251,394,o),
(332,556,o),
(485,556,cs),
(572,556,o),
(614,510,o),
(614,421,cs),
(614,256,o),
(533,94,o),
(380,94,cs),
(293,94,o),
(251,140,o),
(251,229,cs)
);
},
{
closed = 1;
nodes = (
(791,568,o),
(693,662,o),
(490,662,cs),
(232,662,o),
(74,478,o),
(74,244,cs),
(74,82,o),
(172,-12,o),
(375,-12,cs),
(632,-12,o),
(791,172,o),
(791,406,cs)
);
}
);
width = 812;
}
);
unicode = 216;
},
{
glyphname = OE;
kernLeft = O;
kernRight = E;
layers = (
{
layerId = master01;
shapes = (
{
closed = 1;
nodes = (
(432,0,l),
(555,0,l),
(754,650,l),
(631,650,l)
);
},
{
closed = 1;
nodes = (
(226,650,o),
(73,475,o),
(73,226,cs),
(73,82,o),
(154,0,o),
(361,0,cs),
(812,0,l),
(829,-36,l),
(888,-36,l),
(1015,200,l),
(948,200,l),
(796,35,l),
(861,75,l),
(379,75,l),
(245,75,o),
(197,133,o),
(197,228,cs),
(197,419,o),
(297,575,o),
(505,575,cs),
(1018,575,l),
(997,615,l),
(989,474,l),
(1056,474,l),
(1117,684,l),
(1066,684,l),
(1016,650,l),
(503,650,ls)
);
},
{
closed = 1;
nodes = (
(877,338,l),
(913,455,l),
(851,455,l),
(819,375,l),
(604,375,l),
(582,302,l),
(797,302,l),
(780,221,l),
(841,221,l)
);
}
);
width = 1055;
},
{
layerId = "48B243E4-A9BC-4CE2-9E97-0DBF8BE24EDB";
shapes = (
{
closed = 1;
nodes = (
(414,0,l),
(600,0,l),
(801,650,l),
(615,650,l)
);
},
{
closed = 1;
nodes = (
(219,650,o),
(65,471,o),
(65,220,cs),
(65,83,o),
(144,0,o),
(354,0,cs),
(838,0,l),
(854,-42,l),
(920,-42,l),
(1061,215,l),
(981,215,l),
(808,39,l),
(901,93,l),
(385,93,l),
(287,93,o),
(247,138,o),
(247,216,cs),
(247,353,o),
(320,556,o),
(496,556,cs),
(1039,556,l),
(1017,613,l),
(1013,464,l),
(1093,464,l),
(1151,690,l),
(1094,690,l),
(1037,650,l),
(509,650,ls)
);
},
{
closed = 1;
nodes = (
(906,338,l),
(942,455,l),
(871,455,l),
(840,381,l),
(627,381,l),
(601,296,l),
(815,296,l),
(799,221,l),
(870,221,l)
);
}
);
width = 1091;
}
);
unicode = 338;
},
{
glyphname = P;
kernLeft = H;
layers = (
{
anchors = (
{
name = bottom;
pos = (120,0);
},
{
name = top;
pos = (441,650);
}
);
layerId = master01;
shapes = (
{
closed = 1;
nodes = (
(205,330,l),
(176,255,l),
(392,255,ls),
(586,255,o),
(676,359,o),
(676,498,cs),
(676,595,o),
(615,650,o),
(465,650,cs),
(298,650,l),
(281,575,l),
(430,575,ls),
(524,575,o),
(556,545,o),
(556,494,cs),
(556,400,o),
(506,330,o),
(399,330,cs)
);
},
{
closed = 1;
nodes = (
(381,650,l),
(171,650,l),
(156,603,l),
(237,581,l),
(80,69,l),
(-6,47,l),
(-21,0,l),
(269,0,l),
(283,47,l),
(203,68,l)
);
}
);
width = 644;
},
{
anchors = (
{
name = bottom;
pos = (142,0);
},
{
name = top;
pos = (460,650);
}
);
layerId = "48B243E4-A9BC-4CE2-9E97-0DBF8BE24EDB";
shapes = (
{
closed = 1;
nodes = (
(243,334,l),
(197,241,l),
(446,241,ls),
(648,241,o),
(734,359,o),
(734,491,cs),
(734,592,o),
(673,650,o),
(506,650,cs),
(326,650,l),
(320,556,l),
(459,556,ls),
(532,556,o),
(559,535,o),
(559,490,cs),
(559,415,o),
(521,334,o),
(434,334,cs)
);
},
{
closed = 1;
nodes = (
(435,650,l),
(166,650,l),
(152,601,l),
(227,577,l),
(71,74,l),
(-10,48,l),
(-25,0,l),
(317,0,l),
(331,48,l),
(257,73,l)
);
}
);
width = 699;
}
);
unicode = 80;
},
{
glyphname = Thorn;
kernLeft = H;
layers = (
{
layerId = master01;
shapes = (
{
closed = 1;
nodes = (
(167,204,l),
(137,129,l),
(353,129,ls),
(548,129,o),
(637,233,o),
(637,372,cs),
(637,469,o),
(576,524,o),
(427,524,cs),
(259,524,l),
(242,448,l),
(391,448,ls),
(485,448,o),
(517,419,o),
(517,368,cs),
(517,274,o),
(467,204,o),
(360,204,cs)
);
},
{
closed = 1;
nodes = (
(80,69,l),
(-6,47,l),
(-21,0,l),
(269,0,l),
(283,47,l),
(203,68,l),
(360,581,l),
(446,603,l),
(460,650,l),
(171,650,l),
(156,603,l),
(237,581,l)
);
}
);
width = 654;
},
{
layerId = "48B243E4-A9BC-4CE2-9E97-0DBF8BE24EDB";
shapes = (
{
closed = 1;
nodes = (
(208,217,l),
(162,124,l),
(410,124,ls),
(612,124,o),
(698,242,o),
(698,374,cs),
(698,475,o),
(637,532,o),
(470,532,cs),
(290,532,l),
(284,439,l),
(423,439,ls),
(496,439,o),
(524,417,o),
(524,373,cs),
(524,298,o),
(485,217,o),
(399,217,cs)
);
},
{
closed = 1;
nodes = (
(71,74,l),
(-10,48,l),
(-25,0,l),
(317,0,l),
(331,48,l),
(257,73,l),
(412,576,l),
(494,601,l),
(508,650,l),
(166,650,l),
(152,601,l),
(227,577,l)
);
}
);
width = 709;
}
);
unicode = 222;
},
{
glyphname = Q;
kernLeft = O;
kernRight = O;
layers = (
{
anchors = (
{
name = bottom;
pos = (195,-89);
},
{
name = top;
pos = (500,650);
}
);
layerId = master01;
shapes = (
{
closed = 1;
nodes = (
(340,-184,o),
(384,-214,o),
(469,-214,cs),
(512,-214,o),
(540,-210,o),
(573,-204,c),
(589,-140,l),
(487,-146,o),
(463,-142,o),
(394,-75,cs),
(270,45,l),
(279,19,l),
(564,-44,o),
(749,171,o),
(749,411,cs),
(749,564,o),
(653,660,o),
(471,660,cs),
(239,660,o),
(72,463,o),
(72,239,cs),
(72,170,o),
(92,115,o),
(134,61,cs),
(280,-111,ls)
);
},
{
closed = 1;
nodes = (
(194,410,o),
(297,577,o),
(468,577,cs),
(577,577,o),
(627,516,o),
(627,416,cs),
(627,240,o),
(524,72,o),
(353,72,cs),
(244,72,o),
(194,133,o),
(194,234,cs)
);
}
);
width = 768;
},
{
anchors = (
{
name = bottom;
pos = (231,-151);
},
{
name = top;
pos = (504,650);
}
);
layerId = "48B243E4-A9BC-4CE2-9E97-0DBF8BE24EDB";
shapes = (
{
closed = 1;
nodes = (
(298,-180,o),
(349,-214,o),
(472,-214,cs),
(525,-214,o),
(559,-208,o),
(592,-201,c),
(612,-126,l),
(503,-128,o),
(474,-123,o),
(410,-56,cs),
(292,68,l),
(313,22,l),
(612,-29,o),
(785,168,o),
(785,406,cs),
(785,569,o),
(682,662,o),
(485,662,cs),
(231,662,o),
(68,473,o),
(68,244,cs),
(68,181,o),
(85,129,o),
(134,54,cs),
(241,-96,ls)
);
},
{
closed = 1;
nodes = (
(245,382,o),
(334,556,o),
(484,556,cs),
(568,556,o),
(608,511,o),
(608,424,cs),
(608,268,o),
(519,94,o),
(369,94,cs),
(284,94,o),
(245,139,o),
(245,226,cs)
);
}
);
width = 800;
}
);
unicode = 81;
},
{
glyphname = R;
kernLeft = H;
kernRight = R;
layers = (
{
anchors = (
{
name = bottom;
pos = (351,0);
},
{
name = top;
pos = (450,650);
}
);
layerId = master01;
shapes = (
{
closed = 1;
nodes = (
(238,358,l),
(217,286,l),
(384,286,ls),
(441,286,o),
(450,275,o),
(457,191,cs),
(465,100,ls),
(473,7,o),
(497,-7,o),
(633,0,c),
(648,55,l),
(605,55,o),
(593,61,o),
(586,123,cs),
(578,200,ls),
(569,283,o),
(551,315,o),
(480,322,c),
(480,319,l),
(622,328,o),
(693,406,o),
(693,516,cs),
(693,595,o),
(643,650,o),
(508,650,cs),
(330,650,l),
(305,575,l),
(478,575,ls),
(541,575,o),
(568,549,o),
(568,503,cs),
(568,425,o),
(532,358,o),
(421,358,cs)
);
},
{
closed = 1;
nodes = (
(381,650,l),
(171,650,l),
(156,603,l),
(237,581,l),
(80,69,l),
(-6,47,l),
(-21,0,l),
(269,0,l),
(283,47,l),
(203,68,l)
);
}
);
width = 710;
},
{
anchors = (
{
name = bottom;
pos = (377,0);
},
{
name = top;
pos = (488,650);
}
);
layerId = "48B243E4-A9BC-4CE2-9E97-0DBF8BE24EDB";
shapes = (
{
closed = 1;
nodes = (
(241,358,l),
(221,274,l),
(405,274,ls),
(466,274,o),
(472,257,o),
(478,183,cs),
(483,108,ls),
(490,9,o),
(513,-13,o),
(703,0,c),
(720,65,l),
(675,65,o),
(666,72,o),
(661,130,cs),
(655,193,ls),
(648,276,o),
(627,311,o),
(545,320,c),
(545,317,l),
(703,326,o),
(771,402,o),
(771,513,cs),
(771,594,o),
(717,650,o),
(572,650,cs),
(340,650,l),
(307,556,l),
(526,556,ls),
(569,556,o),
(588,538,o),
(588,500,cs),
(588,430,o),
(556,358,o),
(465,358,cs)
);
},
{
closed = 1;
nodes = (
(435,650,l),
(166,650,l),
(152,601,l),
(227,577,l),
(71,74,l),
(-10,48,l),
(-25,0,l),
(317,0,l),
(331,48,l),
(257,73,l)
);
}
);
width = 783;
}
);
unicode = 82;
},
{
glyphname = S;
kernLeft = S;
kernRight = S;
layers = (
{
anchors = (
{
name = bottom;
pos = (267,0);
},
{
name = top;
pos = (390,650);
}
);
layerId = master01;
shapes = (
{
closed = 1;
nodes = (
(510,588,l),
(515,450,l),
(583,450,l),
(638,684,l),
(583,684,l),
(530,629,l),
(591,620,l),
(546,648,o),
(486,660,o),
(417,660,cs),
(228,660,o),
(137,577,o),
(137,451,cs),
(137,358,o),
(197,328,o),
(271,303,cs),
(345,277,o),
(418,261,o),
(418,191,cs),
(418,115,o),
(357,66,o),
(229,66,cs),
(178,66,o),
(137,73,o),
(103,83,c),
(162,16,l),
(105,206,l),
(38,206,l),
(42,14,l),
(88,0,o),
(140,-10,o),
(222,-10,cs),
(426,-10,o),
(532,81,o),
(532,224,cs),
(532,329,o),
(454,362,o),
(378,388,cs),
(302,413,o),
(248,427,o),
(248,487,cs),
(248,547,o),
(287,586,o),
(404,586,cs),
(458,586,o),
(506,574,o),
(530,555,c)
);
}
);
width = 599;
},
{
anchors = (
{
name = bottom;
pos = (287,0);
},
{
name = top;
pos = (403,650);
}
);
layerId = "48B243E4-A9BC-4CE2-9E97-0DBF8BE24EDB";
shapes = (
{
closed = 1;
nodes = (
(526,591,l),
(544,447,l),
(626,447,l),
(668,690,l),
(606,690,l),
(546,628,l),
(624,621,l),
(583,648,o),
(513,662,o),
(439,662,cs),
(235,662,o),
(125,577,o),
(125,435,cs),
(125,349,o),
(175,317,o),
(252,287,cs),
(330,257,o),
(410,246,o),
(410,188,cs),
(410,123,o),
(357,85,o),
(237,85,cs),
(176,85,o),
(122,98,o),
(77,115,c),
(181,12,l),
(116,221,l),
(40,221,l),
(37,13,l),
(82,0,o),
(144,-12,o),
(222,-12,cs),
(461,-12,o),
(579,84,o),
(579,243,cs),
(579,344,o),
(500,379,o),
(424,404,cs),
(347,428,o),
(289,440,o),
(289,490,cs),
(289,538,o),
(320,567,o),
(431,567,cs),
(477,567,o),
(529,556,o),
(556,539,c)
);
}
);
width = 636;
}
);
unicode = 83;
},
{
glyphname = Scedilla;
kernLeft = S;
kernRight = S;
layers = (
{
layerId = master01;
shapes = (
{
closed = 1;
nodes = (
(510,588,l),
(515,450,l),
(583,450,l),
(638,684,l),
(583,684,l),
(530,629,l),
(591,620,l),
(546,648,o),
(486,660,o),
(417,660,cs),
(228,660,o),
(137,577,o),
(137,451,cs),
(137,358,o),
(197,328,o),
(271,303,cs),
(345,277,o),
(418,261,o),
(418,191,cs),
(418,115,o),
(357,66,o),
(229,66,cs),
(178,66,o),
(137,73,o),
(103,83,c),
(162,16,l),
(105,206,l),
(38,206,l),
(42,14,l),
(88,0,o),
(140,-10,o),
(222,-10,cs),
(426,-10,o),
(532,81,o),
(532,224,cs),
(532,329,o),
(454,362,o),
(378,388,cs),
(302,413,o),
(248,427,o),
(248,487,cs),
(248,547,o),
(287,586,o),
(404,586,cs),
(458,586,o),
(506,574,o),
(530,555,c)
);
},
{
closed = 1;
nodes = (
(273,-214,o),
(315,-171,o),
(315,-115,cs),
(315,-83,o),
(293,-59,o),
(222,-45,c),
(218,-79,l),
(313,11,l),
(264,11,l),
(166,-84,l),
(162,-96,l),
(228,-106,o),
(246,-118,o),
(246,-136,cs),
(246,-162,o),
(227,-179,o),
(191,-179,cs),
(160,-179,o),
(143,-155,o),
(136,-155,cs),
(121,-155,o),
(111,-168,o),
(111,-183,cs),
(111,-203,o),
(127,-214,o),
(175,-214,c)
);
}
);
width = 599;
},
{
layerId = "48B243E4-A9BC-4CE2-9E97-0DBF8BE24EDB";
shapes = (
{
closed = 1;
nodes = (
(526,591,l),
(544,447,l),
(626,447,l),
(668,690,l),
(606,690,l),
(546,628,l),
(624,621,l),
(583,648,o),
(513,662,o),
(439,662,cs),
(235,662,o),
(125,577,o),
(125,435,cs),
(125,349,o),
(175,317,o),
(252,287,cs),
(330,257,o),
(410,246,o),
(410,188,cs),
(410,123,o),
(357,85,o),
(237,85,cs),
(176,85,o),
(122,98,o),
(77,115,c),
(181,12,l),
(116,221,l),
(40,221,l),
(37,13,l),
(82,0,o),
(144,-12,o),
(222,-12,cs),
(461,-12,o),
(579,84,o),
(579,243,cs),
(579,344,o),
(500,379,o),
(424,404,cs),
(347,428,o),
(289,440,o),
(289,490,cs),
(289,538,o),
(320,567,o),
(431,567,cs),
(477,567,o),
(529,556,o),
(556,539,c)
);
},
{
closed = 1;
nodes = (
(304,-214,o),
(346,-170,o),
(346,-109,cs),
(346,-74,o),
(322,-48,o),
(244,-37,c),
(234,-84,l),
(348,18,l),
(287,18,l),
(174,-84,l),
(169,-101,l),
(239,-108,o),
(257,-118,o),
(257,-135,cs),
(257,-157,o),
(241,-171,o),
(206,-171,cs),
(175,-171,o),
(154,-149,o),
(144,-149,cs),
(129,-149,o),
(118,-162,o),
(118,-180,cs),
(118,-203,o),
(135,-214,o),
(187,-214,c)
);
}
);
width = 636;
}
);
unicode = 350;
},
{
glyphname = T;
kernLeft = T;
kernRight = T;
layers = (
{
anchors = (
{
name = bottom;
pos = (288,0);
},
{
name = top;
pos = (468,650);
}
);
layerId = master01;
shapes = (
{
closed = 1;
nodes = (
(655,593,l),
(670,428,l),
(735,428,l),
(772,692,l),
(717,692,l),
(662,638,l),
(726,650,l),
(211,650,l),
(266,638,l),
(247,692,l),
(192,692,l),
(86,428,l),
(157,428,l),
(268,590,l),
(220,571,l),
(675,571,l)
);
},
{
closed = 1;
nodes = (
(236,69,l),
(149,47,l),
(135,0,l),
(425,0,l),
(438,47,l),
(359,68,l),
(527,616,l),
(403,616,l)
);
}
);
width = 700;
},
{
anchors = (
{
name = bottom;
pos = (308,0);
},
{
name = top;
pos = (500,650);
}
);
layerId = "48B243E4-A9BC-4CE2-9E97-0DBF8BE24EDB";
shapes = (
{
closed = 1;
nodes = (
(685,587,l),
(708,409,l),
(784,409,l),
(822,694,l),
(754,694,l),
(691,634,l),
(766,650,l),
(216,650,l),
(284,634,l),
(258,694,l),
(189,694,l),
(76,409,l),
(159,409,l),
(288,579,l),
(221,555,l),
(718,555,l)
);
},
{
closed = 1;
nodes = (
(232,74,l),
(150,48,l),
(135,0,l),
(477,0,l),
(491,48,l),
(418,73,l),
(582,605,l),
(396,605,l)
);
}
);
width = 749;
}
);
unicode = 84;
},
{
glyphname = U;
kernLeft = U;
kernRight = U;
layers = (
{
anchors = (
{
name = bottom;
pos = (315,0);
},
{
name = horn;
pos = (772,650);
},
{
name = right;
pos = (406,0);
},
{
name = top;
pos = (505,650);
}
);
layerId = master01;
shapes = (
{
closed = 1;
nodes = (
(338,581,l),
(424,603,l),
(438,650,l),
(149,650,l),
(134,603,l),
(215,581,l),
(120,272,ls),
(59,73,o),
(149,-10,o),
(337,-10,cs),
(504,-10,o),
(592,60,o),
(646,237,cs),
(751,581,l),
(838,603,l),
(851,650,l),
(603,650,l),
(589,603,l),
(672,581,l),
(567,237,ls),
(532,126,o),
(476,82,o),
(363,82,cs),
(254,82,o),
(200,132,o),
(234,243,cs)
);
}
);
width = 762;
},
{
anchors = (
{
name = bottom;
pos = (333,0);
},
{
name = horn;
pos = (792,650);
},
{
name = right;
pos = (435,0);
},
{
name = top;
pos = (533,650);
}
);
layerId = "48B243E4-A9BC-4CE2-9E97-0DBF8BE24EDB";
shapes = (
{
closed = 1;
nodes = (
(389,576,l),
(470,601,l),
(485,650,l),
(143,650,l),
(129,601,l),
(204,577,l),
(108,269,ls),
(50,82,o),
(144,-12,o),
(354,-12,cs),
(536,-12,o),
(625,60,o),
(680,241,cs),
(784,578,l),
(866,601,l),
(880,650,l),
(617,650,l),
(603,601,l),
(683,577,l),
(584,252,ls),
(552,147,o),
(503,112,o),
(404,112,cs),
(304,112,o),
(259,154,o),
(289,250,cs)
);
}
);
width = 786;
}
);
unicode = 85;
},
{
glyphname = Uogonek;
kernLeft = U;
kernRight = U;
layers = (
{
layerId = master01;
shapes = (
{
closed = 1;
nodes = (
(338,581,l),
(424,603,l),
(438,650,l),
(149,650,l),
(134,603,l),
(215,581,l),
(120,272,ls),
(59,73,o),
(149,-10,o),
(337,-10,cs),
(504,-10,o),
(592,60,o),
(646,237,cs),
(751,581,l),
(838,603,l),
(851,650,l),
(603,650,l),
(589,603,l),
(672,581,l),
(567,237,ls),
(532,126,o),
(476,82,o),
(364,82,cs),
(254,82,o),
(200,132,o),
(234,243,cs)
);
},
{
closed = 1;
nodes = (
(275,-113,o),
(279,-95,o),
(319,-46,cs),
(376,23,l),
(339,23,l),
(283,-31,ls),
(217,-93,o),
(207,-119,o),
(207,-154,cs),
(207,-187,o),
(226,-214,o),
(271,-214,cs),
(301,-214,o),
(328,-207,o),
(369,-182,c),
(369,-148,l),
(344,-160,o),
(330,-163,o),
(312,-163,cs),
(287,-163,o),
(275,-152,o),
(275,-132,cs)
);
}
);
width = 762;
},
{
layerId = "48B243E4-A9BC-4CE2-9E97-0DBF8BE24EDB";
shapes = (
{
closed = 1;
nodes = (
(389,576,l),
(470,601,l),
(485,650,l),
(143,650,l),
(129,601,l),
(204,577,l),
(108,269,ls),
(50,82,o),
(144,-12,o),
(354,-12,cs),
(536,-12,o),
(625,60,o),
(680,241,cs),
(784,578,l),
(866,601,l),
(880,650,l),
(617,650,l),
(603,601,l),
(683,577,l),
(584,252,ls),
(552,147,o),
(503,112,o),
(407,112,cs),
(304,112,o),
(259,154,o),
(289,250,cs)
);
},
{
closed = 1;
nodes = (
(306,-101,o),
(310,-86,o),
(354,-38,cs),
(421,35,l),
(378,35,l),
(311,-17,ls),
(231,-79,o),
(220,-107,o),
(220,-148,cs),
(220,-184,o),
(241,-214,o),
(292,-214,cs),
(323,-214,o),
(353,-206,o),
(398,-180,c),
(398,-137,l),
(374,-147,o),
(360,-150,o),
(343,-150,cs),
(317,-150,o),
(306,-141,o),
(306,-120,cs)
);
}
);
width = 786;
}
);
unicode = 370;
},
{
glyphname = V;
layers = (
{
anchors = (
{
name = bottom;
pos = (318,0);
},
{
name = top;
pos = (484,650);
}
);
layerId = master01;
shapes = (
{
closed = 1;
nodes = (
(230,-7,l),
(379,-7,l),
(746,582,l),
(822,603,l),
(837,650,l),
(591,650,l),
(577,603,l),
(651,582,l),
(327,41,l),
(344,42,l),
(308,581,l),
(393,603,l),
(408,650,l),
(122,650,l),
(108,603,l),
(183,581,l)
);
}
);
width = 728;
},
{
anchors = (
{
name = bottom;
pos = (342,0);
},
{
name = top;
pos = (526,650);
}
);
layerId = "48B243E4-A9BC-4CE2-9E97-0DBF8BE24EDB";
shapes = (
{
closed = 1;
nodes = (
(224,-3,l),
(436,-3,l),
(798,578,l),
(869,601,l),
(884,650,l),
(627,650,l),
(612,601,l),
(684,578,l),
(366,51,l),
(393,55,l),
(365,578,l),
(446,601,l),
(462,650,l),
(120,650,l),
(104,601,l),
(181,577,l)
);
}
);
width = 775;
}
);
unicode = 86;
},
{
glyphname = W;
kernLeft = W;
kernRight = W;
layers = (
{
anchors = (
{
name = bottom;
pos = (448,0);
},
{
name = top;
pos = (636,650);
}
);
layerId = master01;
shapes = (
{
closed = 1;
nodes = (
(669,48,l),
(697,44,l),
(721,650,l),
(573,650,l),
(237,50,l),
(261,50,l),
(320,580,l),
(404,603,l),
(418,650,l),
(131,650,l),
(117,603,l),
(192,580,l),
(134,0,l),
(293,0,l),
(605,546,l),
(587,542,l),
(565,0,l),
(722,0,l),
(1019,582,l),
(1095,603,l),
(1110,650,l),
(872,650,l),
(858,603,l),
(932,582,l)
);
}
);
width = 1000;
},
{
anchors = (
{
name = bottom;
pos = (502,0);
},
{
name = top;
pos = (697,650);
}
);
layerId = "48B243E4-A9BC-4CE2-9E97-0DBF8BE24EDB";
shapes = (
{
closed = 1;
nodes = (
(738,54,l),
(766,42,l),
(817,650,l),
(595,650,l),
(300,61,l),
(326,61,l),
(374,574,l),
(449,601,l),
(464,650,l),
(125,650,l),
(110,601,l),
(187,574,l),
(144,0,l),
(371,0,l),
(640,523,l),
(614,509,l),
(575,0,l),
(808,0,l),
(1103,578,l),
(1174,601,l),
(1189,650,l),
(937,650,l),
(922,601,l),
(994,578,l)
);
}
);
width = 1079;
}
);
unicode = 87;
},
{
glyphname = X;
layers = (
{
anchors = (
{
name = bottom;
pos = (306,0);
},
{
name = top;
pos = (497,650);
}
);
layerId = master01;
shapes = (
{
closed = 1;
nodes = (
(447,316,l),
(743,581,l),
(821,603,l),
(835,650,l),
(589,650,l),
(575,603,l),
(643,581,l),
(420,377,l),
(357,353,l),
(41,69,l),
(-38,47,l),
(-52,0,l),
(194,0,l),
(208,47,l),
(141,69,l),
(384,292,l)
);
},
{
closed = 1;
nodes = (
(398,47,l),
(384,0,l),
(675,0,l),
(690,47,l),
(616,71,l),
(468,363,l),
(456,386,l),
(356,582,l),
(432,603,l),
(446,650,l),
(157,650,l),
(143,603,l),
(217,580,l),
(349,322,l),
(360,300,l),
(477,69,l)
);
}
);
width = 758;
},
{
anchors = (
{
name = bottom;
pos = (326,0);
},
{
name = top;
pos = (522,650);
}
);
layerId = "48B243E4-A9BC-4CE2-9E97-0DBF8BE24EDB";
shapes = (
{
closed = 1;
nodes = (
(483,294,l),
(787,575,l),
(863,601,l),
(877,650,l),
(613,650,l),
(599,601,l),
(665,577,l),
(450,372,l),
(352,364,l),
(39,74,l),
(-37,48,l),
(-51,0,l),
(213,0,l),
(227,48,l),
(161,73,l),
(385,286,l)
);
},
{
closed = 1;
nodes = (
(385,48,l),
(370,0,l),
(732,0,l),
(748,48,l),
(677,82,l),
(522,372,l),
(509,394,l),
(411,578,l),
(482,601,l),
(497,650,l),
(145,650,l),
(130,601,l),
(200,574,l),
(336,319,l),
(349,295,l),
(466,75,l)
);
}
);
width = 805;
}
);
unicode = 88;
},
{
glyphname = Y;
kernLeft = Y;
kernRight = Y;
layers = (
{
anchors = (
{
name = bottom;
pos = (296,0);
},
{
name = top;
pos = (472,650);
}
);
layerId = master01;
shapes = (
{
closed = 1;
nodes = (
(378,312,l),
(410,312,l),
(313,580,l),
(390,603,l),
(404,650,l),
(128,650,l),
(113,603,l),
(189,580,l),
(307,269,l),
(245,69,l),
(159,47,l),
(145,0,l),
(435,0,l),
(448,47,l),
(368,68,l),
(431,273,l),
(728,582,l),
(803,603,l),
(817,650,l),
(571,650,l),
(556,603,l),
(628,581,l)
);
}
);
width = 709;
},
{
anchors = (
{
name = bottom;
pos = (319,0);
},
{
name = top;
pos = (503,650);
}
);
layerId = "48B243E4-A9BC-4CE2-9E97-0DBF8BE24EDB";
shapes = (
{
closed = 1;
nodes = (
(421,315,l),
(461,315,l),
(366,572,l),
(441,601,l),
(456,650,l),
(124,650,l),
(109,601,l),
(185,571,l),
(306,273,l),
(244,74,l),
(163,48,l),
(148,0,l),
(490,0,l),
(504,48,l),
(429,73,l),
(492,275,l),
(784,578,l),
(853,601,l),
(869,650,l),
(606,650,l),
(591,601,l),
(662,575,l)
);
}
);
width = 761;
}
);
unicode = 89;
},
{
glyphname = Z;
kernLeft = Z;
kernRight = Z;
layers = (
{
anchors = (
{
name = bottom;
pos = (237,0);
},
{
name = top;
pos = (443,650);
}
);
layerId = master01;
shapes = (
{
closed = 1;
nodes = (
(272,650,l),
(246,684,l),
(196,684,l),
(124,454,l),
(191,454,l),
(258,575,l),
(583,575,l),
(545,607,l),
(10,71,l),
(-11,0,l),
(404,0,l),
(415,-36,l),
(473,-36,l),
(581,207,l),
(517,207,l),
(420,75,l),
(96,75,l),
(129,42,l),
(664,579,l),
(686,650,l)
);
}
);
width = 631;
},
{
anchors = (
{
name = bottom;
pos = (269,0);
},
{
name = top;
pos = (471,650);
}
);
layerId = "48B243E4-A9BC-4CE2-9E97-0DBF8BE24EDB";
shapes = (
{
closed = 1;
nodes = (
(277,650,l),
(246,688,l),
(191,688,l),
(112,440,l),
(190,440,l),
(266,556,l),
(620,556,l),
(519,601,l),
(24,90,l),
(-3,0,l),
(435,0,l),
(455,-43,l),
(518,-43,l),
(634,226,l),
(558,226,l),
(451,93,l),
(119,93,l),
(204,49,l),
(699,559,l),
(727,650,l)
);
}
);
width = 674;
}
);
unicode = 90;
},
{
glyphname = a;
kernLeft = a;
kernRight = a;
layers = (
{
anchors = (
{
name = bottom;
pos = (231,0);
},
{
name = right;
pos = (548,0);
},
{
name = top;
pos = (402,472);
}
);
layerId = master01;
shapes = (
{
closed = 1;
nodes = (
(337,7,o),
(352,-10,o),
(399,-10,cs),
(443,-10,o),
(512,8,o),
(610,89,c),
(589,124,l),
(520,79,o),
(460,67,o),
(410,72,c),
(434,35,l),
(589,472,l),
(510,472,l),
(452,388,l),
(434,343,ls),
(384,211,o),
(261,65,o),
(193,65,cs),
(154,65,o),
(130,85,o),
(130,125,cs),
(130,231,o),
(239,418,o),
(360,418,cs),
(398,418,o),
(431,401,o),
(455,349,c),
(459,377,l),
(443,445,o),
(404,482,o),
(339,482,cs),
(165,482,o),
(18,262,o),
(18,108,cs),
(18,30,o),
(73,-10,o),
(145,-10,cs),
(215,-10,o),
(280,25,o),
(409,223,c),
(421,223,l),
(353,49,ls)
);
}
);
width = 624;
},
{
anchors = (
{
name = bottom;
pos = (252,0);
},
{
name = right;
pos = (597,0);
},
{
name = top;
pos = (433,476);
}
);
layerId = "48B243E4-A9BC-4CE2-9E97-0DBF8BE24EDB";
shapes = (
{
closed = 1;
nodes = (
(338,7,o),
(357,-12,o),
(419,-12,cs),
(483,-12,o),
(564,11,o),
(666,99,c),
(641,137,l),
(574,93,o),
(522,84,o),
(454,87,c),
(488,35,l),
(645,476,l),
(517,476,l),
(453,389,l),
(427,328,ls),
(383,220,o),
(288,90,o),
(230,90,cs),
(200,90,o),
(182,104,o),
(182,134,cs),
(182,227,o),
(290,400,o),
(380,400,cs),
(411,400,o),
(436,387,o),
(456,339,c),
(466,364,l),
(446,447,o),
(405,489,o),
(337,489,cs),
(176,489,o),
(16,283,o),
(16,117,cs),
(16,30,o),
(80,-12,o),
(150,-12,cs),
(227,-12,o),
(287,20,o),
(406,211,c),
(420,211,l),
(361,63,ls)
);
}
);
width = 672;
}
);
unicode = 97;
},
{
glyphname = aogonek;
kernLeft = a;
kernRight = a;
layers = (
{
layerId = master01;
shapes = (
{
closed = 1;
nodes = (
(589,124,l),
(520,79,o),
(460,67,o),
(410,72,c),
(434,35,l),
(589,472,l),
(510,472,l),
(452,388,l),
(434,343,ls),
(384,211,o),
(261,65,o),
(193,65,cs),
(154,65,o),
(130,85,o),
(130,125,cs),
(130,231,o),
(239,418,o),
(360,418,cs),
(398,418,o),
(431,401,o),
(455,349,c),
(459,377,l),
(443,445,o),
(404,482,o),
(339,482,cs),
(165,482,o),
(18,262,o),
(18,108,cs),
(18,30,o),
(73,-10,o),
(145,-10,cs),
(215,-10,o),
(280,25,o),
(409,223,c),
(421,223,l),
(353,49,ls),
(337,7,o),
(352,-10,o),
(399,-10,cs),
(425,-10,o),
(461,-3,o),
(508,20,c),
(503,28,l),
(441,-26,ls),
(365,-91,o),
(349,-119,o),
(349,-154,cs),
(349,-187,o),
(368,-214,o),
(413,-214,cs),
(443,-214,o),
(470,-207,o),
(511,-182,c),
(511,-148,l),
(486,-160,o),
(472,-163,o),
(454,-163,cs),
(429,-163,o),
(417,-152,o),
(417,-132,cs),
(417,-112,o),
(421,-91,o),
(473,-43,cs),
(536,16,ls),
(560,39,o),
(585,64,o),
(610,89,c)
);
}
);
width = 628;
},
{
layerId = "48B243E4-A9BC-4CE2-9E97-0DBF8BE24EDB";
shapes = (
{
closed = 1;
nodes = (
(641,137,l),
(574,93,o),
(522,84,o),
(454,87,c),
(488,35,l),
(645,476,l),
(517,476,l),
(453,389,l),
(427,328,ls),
(383,220,o),
(288,90,o),
(230,90,cs),
(200,90,o),
(182,104,o),
(182,134,cs),
(182,227,o),
(290,400,o),
(380,400,cs),
(411,400,o),
(436,387,o),
(456,339,c),
(466,364,l),
(446,447,o),
(405,489,o),
(337,489,cs),
(176,489,o),
(16,283,o),
(16,117,cs),
(16,30,o),
(80,-12,o),
(150,-12,cs),
(227,-12,o),
(287,20,o),
(406,211,c),
(420,211,l),
(361,63,ls),
(338,7,o),
(357,-12,o),
(419,-12,cs),
(454,-12,o),
(495,-5,o),
(543,17,c),
(536,27,l),
(489,-11,ls),
(404,-78,o),
(383,-107,o),
(383,-148,cs),
(383,-184,o),
(403,-214,o),
(455,-214,cs),
(485,-214,o),
(515,-206,o),
(561,-180,c),
(561,-137,l),
(536,-147,o),
(523,-150,o),
(505,-150,cs),
(480,-150,o),
(468,-141,o),
(468,-120,cs),
(468,-100,o),
(474,-80,o),
(526,-33,cs),
(577,14,ls),
(605,40,o),
(636,69,o),
(666,99,c)
);
}
);
width = 677;
}
);
unicode = 261;
},
{
glyphname = ae;
kernLeft = a;
kernRight = e;
layers = (
{
anchors = (
{
name = bottom;
pos = (357,0);
},
{
name = top;
pos = (508,472);
}
);
layerId = master01;
shapes = (
{
closed = 1;
nodes = (
(567,472,l),
(499,472,l),
(452,388,l),
(434,343,ls),
(384,211,o),
(261,65,o),
(193,65,cs),
(154,65,o),
(130,85,o),
(130,125,cs),
(130,231,o),
(239,418,o),
(360,418,cs),
(398,418,o),
(431,401,o),
(455,349,c),
(459,377,l),
(443,445,o),
(404,482,o),
(339,482,cs),
(165,482,o),
(18,262,o),
(18,108,cs),
(18,30,o),
(73,-10,o),
(145,-10,cs),
(215,-10,o),
(280,25,o),
(409,223,c),
(421,223,l),
(379,70,o),
(434,-10,o),
(568,-10,cs),
(661,-10,o),
(743,33,o),
(805,162,c),
(757,162,l),
(714,96,o),
(662,70,o),
(602,70,cs),
(534,70,o),
(507,96,o),
(507,181,cs),
(507,333,o),
(592,424,o),
(683,424,cs),
(726,424,o),
(748,400,o),
(748,362,cs),
(748,311,o),
(742,297,o),
(492,255,c),
(489,209,l),
(590,219,o),
(710,239,o),
(820,269,c),
(837,298,o),
(847,334,o),
(847,365,cs),
(847,431,o),
(813,482,o),
(724,482,cs),
(651,482,o),
(592,453,o),
(546,405,c),
(555,405,l)
);
}
);
width = 866;
},
{
anchors = (
{
name = bottom;
pos = (377,0);
},
{
name = top;
pos = (544,476);
}
);
layerId = "48B243E4-A9BC-4CE2-9E97-0DBF8BE24EDB";
shapes = (
{
closed = 1;
nodes = (
(604,476,l),
(512,476,l),
(453,389,l),
(427,328,ls),
(383,220,o),
(288,90,o),
(230,90,cs),
(200,90,o),
(182,104,o),
(182,134,cs),
(182,227,o),
(290,400,o),
(380,400,cs),
(411,400,o),
(436,387,o),
(456,339,c),
(466,364,l),
(446,447,o),
(405,489,o),
(337,489,cs),
(176,489,o),
(16,283,o),
(16,117,cs),
(16,30,o),
(80,-12,o),
(150,-12,cs),
(227,-12,o),
(287,20,o),
(406,211,c),
(420,211,l),
(398,71,o),
(461,-12,o),
(600,-12,cs),
(710,-12,o),
(800,35,o),
(864,175,c),
(815,175,l),
(773,117,o),
(724,95,o),
(665,95,cs),
(592,95,o),
(569,122,o),
(569,204,cs),
(569,350,o),
(644,420,o),
(720,420,cs),
(755,420,o),
(772,402,o),
(772,371,cs),
(772,316,o),
(764,303,o),
(531,258,c),
(528,210,l),
(637,220,o),
(765,238,o),
(881,266,c),
(901,303,o),
(909,338,o),
(909,370,cs),
(909,436,o),
(873,489,o),
(781,489,cs),
(690,489,o),
(633,453,o),
(588,399,c),
(585,399,l)
);
}
);
width = 920;
}
);
unicode = 230;
},
{
glyphname = b;
layers = (
{
anchors = (
{
name = UCtop;
pos = (420,650);
},
{
name = bottom;
pos = (181,0);
}
);
layerId = master01;
shapes = (
{
closed = 1;
nodes = (
(178,210,ls),
(213,316,o),
(299,400,o),
(364,400,cs),
(404,400,o),
(424,375,o),
(424,331,cs),
(424,196,o),
(330,50,o),
(232,50,cs),
(183,50,o),
(153,76,o),
(153,119,cs),
(153,131,o),
(156,145,o),
(161,161,cs)
);
},
{
closed = 1;
nodes = (
(60,177,ls),
(53,155,o),
(50,134,o),
(50,115,cs),
(50,38,o),
(106,-10,o),
(216,-10,cs),
(389,-10,o),
(537,180,o),
(537,348,cs),
(537,424,o),
(492,482,o),
(415,482,cs),
(351,482,o),
(277,441,o),
(194,313,c),
(181,313,l),
(323,683,l),
(301,683,l),
(93,648,l),
(85,612,l),
(112,600,o),
(159,578,o),
(176,570,c)
);
}
);
width = 562;
},
{
anchors = (
{
name = UCtop;
pos = (453,650);
},
{
name = bottom;
pos = (202,0);
}
);
layerId = "48B243E4-A9BC-4CE2-9E97-0DBF8BE24EDB";
shapes = (
{
closed = 1;
nodes = (
(219,206,ls),
(251,306,o),
(315,378,o),
(367,378,cs),
(398,378,o),
(411,359,o),
(411,318,cs),
(411,198,o),
(328,65,o),
(254,65,cs),
(217,65,o),
(197,85,o),
(197,118,cs),
(197,131,o),
(200,147,o),
(206,165,cs)
);
},
{
closed = 1;
nodes = (
(55,184,ls),
(49,164,o),
(46,146,o),
(46,128,cs),
(46,45,o),
(114,-12,o),
(235,-12,cs),
(414,-12,o),
(580,174,o),
(580,350,cs),
(580,432,o),
(532,489,o),
(451,489,cs),
(385,489,o),
(323,452,o),
(243,330,c),
(228,330,l),
(378,685,l),
(352,685,l),
(80,643,l),
(69,598,l),
(96,582,o),
(145,553,o),
(162,543,c)
);
}
);
width = 598;
}
);
unicode = 98;
},
{
glyphname = c;
kernLeft = o;
kernRight = c;
layers = (
{
anchors = (
{
name = bottom;
pos = (202,0);
},
{
name = right;
pos = (368,0);
},
{
name = top;
pos = (324,472);
}
);
layerId = master01;
shapes = (
{
closed = 1;
nodes = (
(334,425,o),
(352,409,o),
(372,381,cs),
(393,352,o),
(408,335,o),
(419,335,cs),
(451,335,o),
(484,364,o),
(484,399,cs),
(484,447,o),
(435,482,o),
(340,482,cs),
(161,482,o),
(36,338,o),
(36,158,cs),
(36,43,o),
(95,-10,o),
(211,-10,cs),
(321,-10,o),
(391,49,o),
(441,165,c),
(394,165,l),
(353,96,o),
(304,70,o),
(244,70,cs),
(177,70,o),
(146,96,o),
(146,181,cs),
(146,322,o),
(217,425,o),
(319,425,cs)
);
}
);
width = 489;
},
{
anchors = (
{
name = bottom;
pos = (216,0);
},
{
name = right;
pos = (407,0);
},
{
name = top;
pos = (352,476);
}
);
layerId = "48B243E4-A9BC-4CE2-9E97-0DBF8BE24EDB";
shapes = (
{
closed = 1;
nodes = (
(363,421,o),
(382,400,o),
(402,371,cs),
(421,343,o),
(436,318,o),
(446,318,cs),
(488,318,o),
(527,349,o),
(527,395,cs),
(527,448,o),
(479,489,o),
(365,489,cs),
(161,489,o),
(34,347,o),
(34,174,cs),
(34,46,o),
(97,-12,o),
(233,-12,cs),
(354,-12,o),
(433,45,o),
(485,185,c),
(437,185,l),
(398,121,o),
(353,95,o),
(292,95,cs),
(223,95,o),
(197,122,o),
(197,204,cs),
(197,331,o),
(254,421,o),
(342,421,cs)
);
}
);
width = 528;
}
);
unicode = 99;
},
{
glyphname = ccedilla;
kernLeft = o;
kernRight = c;
layers = (
{
layerId = master01;
shapes = (
{
closed = 1;
nodes = (
(208,-214,o),
(250,-171,o),
(250,-115,cs),
(250,-83,o),
(227,-59,o),
(156,-45,c),
(152,-79,l),
(248,11,l),
(199,11,l),
(101,-84,l),
(97,-96,l),
(163,-106,o),
(181,-118,o),
(181,-136,cs),
(181,-162,o),
(162,-179,o),
(126,-179,cs),
(94,-179,o),
(78,-155,o),
(70,-155,cs),
(56,-155,o),
(46,-168,o),
(46,-183,cs),
(46,-203,o),
(62,-214,o),
(110,-214,c)
);
},
{
closed = 1;
nodes = (
(334,425,o),
(352,409,o),
(372,381,cs),
(393,352,o),
(408,335,o),
(419,335,cs),
(451,335,o),
(484,364,o),
(484,399,cs),
(484,447,o),
(435,482,o),
(340,482,cs),
(161,482,o),
(36,338,o),
(36,158,cs),
(36,43,o),
(95,-10,o),
(211,-10,cs),
(321,-10,o),
(391,49,o),
(441,165,c),
(394,165,l),
(353,96,o),
(304,70,o),
(244,70,cs),
(177,70,o),
(146,96,o),
(146,181,cs),
(146,322,o),
(217,425,o),
(319,425,cs)
);
}
);
width = 489;
},
{
layerId = "48B243E4-A9BC-4CE2-9E97-0DBF8BE24EDB";
shapes = (
{
closed = 1;
nodes = (
(233,-214,o),
(275,-170,o),
(275,-109,cs),
(275,-74,o),
(251,-48,o),
(173,-37,c),
(163,-84,l),
(278,18,l),
(216,18,l),
(103,-84,l),
(98,-101,l),
(169,-108,o),
(186,-118,o),
(186,-135,cs),
(186,-157,o),
(170,-171,o),
(135,-171,cs),
(104,-171,o),
(83,-149,o),
(73,-149,cs),
(58,-149,o),
(47,-162,o),
(47,-180,cs),
(47,-203,o),
(65,-214,o),
(116,-214,c)
);
},
{
closed = 1;
nodes = (
(363,421,o),
(382,400,o),
(402,371,cs),
(421,343,o),
(436,318,o),
(446,318,cs),
(488,318,o),
(527,349,o),
(527,395,cs),
(527,448,o),
(479,489,o),
(365,489,cs),
(161,489,o),
(34,347,o),
(34,174,cs),
(34,46,o),
(97,-12,o),
(233,-12,cs),
(354,-12,o),
(433,45,o),
(485,185,c),
(437,185,l),
(398,121,o),
(353,95,o),
(292,95,cs),
(223,95,o),
(197,122,o),
(197,204,cs),
(197,331,o),
(254,421,o),
(342,421,cs)
);
}
);
width = 528;
}
);
unicode = 231;
},
{
glyphname = d;
kernLeft = a;
kernRight = d;
layers = (
{
anchors = (
{
name = UCtop;
pos = (445,650);
},
{
name = bottom;
pos = (238,0);
},
{
name = center;
pos = (538,555);
},
{
name = right;
pos = (651,673);
}
);
layerId = master01;
shapes = (
{
closed = 1;
nodes = (
(459,377,l),
(443,445,o),
(404,482,o),
(339,482,cs),
(165,482,o),
(18,262,o),
(18,108,cs),
(18,30,o),
(73,-10,o),
(145,-10,cs),
(214,-10,o),
(279,25,o),
(408,223,c),
(421,223,l),
(353,48,ls),
(337,6,o),
(352,-10,o),
(400,-10,cs),
(443,-10,o),
(513,8,o),
(611,89,c),
(589,124,l),
(520,79,o),
(461,67,o),
(410,72,c),
(435,35,l),
(654,683,l),
(633,683,l),
(426,648,l),
(418,612,l),
(444,600,o),
(492,578,o),
(509,570,c),
(445,369,ls),
(397,217,o),
(262,65,o),
(192,65,cs),
(154,65,o),
(130,85,o),
(130,125,cs),
(130,231,o),
(238,418,o),
(360,418,cs),
(398,418,o),
(431,401,o),
(455,349,c)
);
}
);
width = 623;
},
{
anchors = (
{
name = UCtop;
pos = (486,650);
},
{
name = bottom;
pos = (262,0);
},
{
name = center;
pos = (588,555);
},
{
name = right;
pos = (714,673);
}
);
layerId = "48B243E4-A9BC-4CE2-9E97-0DBF8BE24EDB";
shapes = (
{
closed = 1;
nodes = (
(465,364,l),
(445,447,o),
(405,489,o),
(337,489,cs),
(176,489,o),
(16,283,o),
(16,117,cs),
(16,30,o),
(80,-12,o),
(149,-12,cs),
(226,-12,o),
(287,20,o),
(405,211,c),
(419,211,l),
(361,62,ls),
(339,6,o),
(359,-12,o),
(422,-12,cs),
(486,-12,o),
(567,11,o),
(668,99,c),
(644,137,l),
(577,93,o),
(525,84,o),
(457,87,c),
(491,35,l),
(718,685,l),
(692,685,l),
(423,643,l),
(412,598,l),
(438,582,o),
(488,552,o),
(504,542,c),
(434,340,ls),
(395,222,o),
(288,90,o),
(229,90,cs),
(199,90,o),
(182,104,o),
(182,134,cs),
(182,227,o),
(290,400,o),
(379,400,cs),
(411,400,o),
(435,387,o),
(456,339,c)
);
}
);
width = 674;
}
);
unicode = 100;
},
{
glyphname = dcroat;
kernLeft = a;
kernRight = d;
layers = (
{
layerId = master01;
shapes = (
{
closed = 1;
nodes = (
(459,377,l),
(443,445,o),
(404,482,o),
(339,482,cs),
(165,482,o),
(18,262,o),
(18,108,cs),
(18,30,o),
(73,-10,o),
(145,-10,cs),
(214,-10,o),
(279,25,o),
(408,223,c),
(421,223,l),
(353,48,ls),
(337,6,o),
(352,-10,o),
(400,-10,cs),
(443,-10,o),
(513,8,o),
(611,89,c),
(589,124,l),
(520,79,o),
(461,67,o),
(410,72,c),
(435,35,l),
(654,683,l),
(633,683,l),
(444,655,l),
(436,619,l),
(459,609,o),
(499,592,o),
(514,585,c),
(445,369,ls),
(397,218,o),
(262,65,o),
(192,65,cs),
(154,65,o),
(130,85,o),
(130,125,cs),
(130,231,o),
(238,418,o),
(360,418,cs),
(398,418,o),
(431,401,o),
(455,349,c)
);
},
{
closed = 1;
nodes = (
(693,527,l),
(710,583,l),
(372,583,l),
(355,527,l)
);
}
);
width = 624;
},
{
layerId = "48B243E4-A9BC-4CE2-9E97-0DBF8BE24EDB";
shapes = (
{
closed = 1;
nodes = (
(465,364,l),
(445,447,o),
(405,489,o),
(337,489,cs),
(176,489,o),
(16,283,o),
(16,117,cs),
(16,30,o),
(80,-12,o),
(149,-12,cs),
(226,-12,o),
(287,20,o),
(405,211,c),
(419,211,l),
(361,62,ls),
(339,6,o),
(359,-12,o),
(422,-12,cs),
(486,-12,o),
(567,11,o),
(668,99,c),
(644,137,l),
(577,93,o),
(525,84,o),
(457,87,c),
(491,35,l),
(718,685,l),
(692,685,l),
(482,665,l),
(471,620,l),
(488,610,o),
(510,599,o),
(522,590,c),
(434,340,ls),
(395,223,o),
(288,90,o),
(229,90,cs),
(199,90,o),
(182,104,o),
(182,134,cs),
(182,227,o),
(290,400,o),
(379,400,cs),
(411,400,o),
(435,387,o),
(456,339,c)
);
},
{
closed = 1;
nodes = (
(749,526,l),
(766,584,l),
(388,584,l),
(371,526,l)
);
}
);
width = 674;
}
);
unicode = 273;
},
{
glyphname = eth;
layers = (
{
layerId = master01;
shapes = (
{
closed = 1;
nodes = (
(420,398,o),
(380,461,o),
(289,461,cs),
(149,461,o),
(35,320,o),
(35,150,cs),
(35,58,o),
(96,-10,o),
(220,-10,cs),
(398,-10,o),
(520,145,o),
(520,359,cs),
(520,529,o),
(441,646,o),
(185,683,c),
(171,627,l),
(371,583,o),
(438,510,o),
(407,302,c),
(422,319,l)
);
},
{
closed = 1;
nodes = (
(174,60,o),
(145,90,o),
(145,143,cs),
(145,268,o),
(215,395,o),
(326,395,cs),
(377,395,o),
(406,365,o),
(406,312,cs),
(406,186,o),
(337,60,o),
(226,60,cs)
);
},
{
closed = 1;
nodes = (
(515,636,l),
(489,683,l),
(215,526,l),
(241,480,l)
);
}
);
width = 553;
},
{
layerId = "48B243E4-A9BC-4CE2-9E97-0DBF8BE24EDB";
shapes = (
{
closed = 1;
nodes = (
(417,380,o),
(383,453,o),
(273,453,cs),
(138,453,o),
(31,324,o),
(31,159,cs),
(31,63,o),
(94,-12,o),
(242,-12,cs),
(452,-12,o),
(566,161,o),
(566,357,cs),
(566,521,o),
(472,654,o),
(170,685,c),
(152,609,l),
(408,560,o),
(445,475,o),
(386,233,c),
(418,290,l)
);
},
{
closed = 1;
nodes = (
(213,84,o),
(193,105,o),
(193,151,cs),
(193,246,o),
(244,368,o),
(334,368,cs),
(374,368,o),
(395,348,o),
(395,301,cs),
(395,206,o),
(343,84,o),
(254,84,cs)
);
},
{
closed = 1;
nodes = (
(532,635,l),
(504,685,l),
(218,521,l),
(246,471,l)
);
}
);
width = 593;
}
);
unicode = 240;
},
{
glyphname = e;
kernLeft = o;
kernRight = e;
layers = (
{
anchors = (
{
name = bottom;
pos = (205,0);
},
{
name = right;
pos = (386,0);
},
{
name = top;
pos = (321,472);
}
);
layerId = master01;
shapes = (
{
closed = 1;
nodes = (
(365,424,o),
(387,400,o),
(387,362,cs),
(387,311,o),
(380,297,o),
(130,255,c),
(127,209,l),
(228,219,o),
(348,239,o),
(459,269,c),
(476,298,o),
(486,334,o),
(486,365,cs),
(486,431,o),
(446,482,o),
(342,482,cs),
(163,482,o),
(36,341,o),
(36,153,cs),
(36,45,o),
(91,-10,o),
(206,-10,cs),
(299,-10,o),
(381,33,o),
(443,162,c),
(395,162,l),
(353,96,o),
(300,70,o),
(240,70,cs),
(173,70,o),
(146,96,o),
(146,181,cs),
(146,333,o),
(230,424,o),
(322,424,cs)
);
}
);
width = 504;
},
{
anchors = (
{
name = bottom;
pos = (212,0);
},
{
name = right;
pos = (434,0);
},
{
name = top;
pos = (345,476);
}
);
layerId = "48B243E4-A9BC-4CE2-9E97-0DBF8BE24EDB";
shapes = (
{
closed = 1;
nodes = (
(381,420,o),
(398,402,o),
(398,371,cs),
(398,316,o),
(390,303,o),
(157,258,c),
(154,210,l),
(263,220,o),
(391,238,o),
(507,266,c),
(527,303,o),
(535,338,o),
(535,370,cs),
(535,436,o),
(487,489,o),
(366,489,cs),
(150,489,o),
(32,337,o),
(32,161,cs),
(32,50,o),
(95,-12,o),
(226,-12,cs),
(336,-12,o),
(426,35,o),
(490,175,c),
(441,175,l),
(399,117,o),
(350,95,o),
(291,95,cs),
(218,95,o),
(195,122,o),
(195,204,cs),
(195,350,o),
(270,420,o),
(346,420,cs)
);
}
);
width = 546;
}
);
unicode = 101;
},
{
glyphname = eogonek;
kernLeft = o;
kernRight = e;
layers = (
{
layerId = master01;
shapes = (
{
closed = 1;
nodes = (
(414,106,o),
(429,131,o),
(443,162,c),
(395,162,l),
(353,96,o),
(300,70,o),
(240,70,cs),
(173,70,o),
(146,96,o),
(146,181,cs),
(146,333,o),
(230,424,o),
(322,424,cs),
(365,424,o),
(387,400,o),
(387,362,cs),
(387,311,o),
(380,297,o),
(130,255,c),
(127,209,l),
(228,219,o),
(348,239,o),
(459,269,c),
(476,298,o),
(486,334,o),
(486,365,cs),
(486,431,o),
(446,482,o),
(342,482,cs),
(163,482,o),
(36,341,o),
(36,153,cs),
(36,45,o),
(91,-10,o),
(206,-10,cs),
(245,-10,o),
(283,-3,o),
(318,16,c),
(308,28,l),
(270,-14,ls),
(202,-88,o),
(186,-119,o),
(186,-154,cs),
(186,-187,o),
(205,-214,o),
(250,-214,cs),
(280,-214,o),
(307,-207,o),
(348,-182,c),
(348,-148,l),
(323,-160,o),
(309,-163,o),
(291,-163,cs),
(266,-163,o),
(254,-152,o),
(254,-132,cs),
(254,-113,o),
(261,-84,o),
(305,-30,cs),
(396,85,ls)
);
}
);
width = 504;
},
{
layerId = "48B243E4-A9BC-4CE2-9E97-0DBF8BE24EDB";
shapes = (
{
closed = 1;
nodes = (
(459,115,o),
(474,141,o),
(490,175,c),
(441,175,l),
(399,117,o),
(350,95,o),
(291,95,cs),
(218,95,o),
(195,122,o),
(195,204,cs),
(195,350,o),
(270,420,o),
(346,420,cs),
(381,420,o),
(398,402,o),
(398,371,cs),
(398,316,o),
(390,303,o),
(157,258,c),
(154,210,l),
(263,220,o),
(391,238,o),
(507,266,c),
(527,303,o),
(535,338,o),
(535,370,cs),
(535,436,o),
(487,489,o),
(366,489,cs),
(150,489,o),
(32,337,o),
(32,161,cs),
(32,50,o),
(95,-12,o),
(226,-12,cs),
(273,-12,o),
(317,-3,o),
(357,18,c),
(343,35,l),
(319,9,ls),
(244,-68,o),
(219,-106,o),
(219,-148,cs),
(219,-184,o),
(240,-214,o),
(292,-214,cs),
(322,-214,o),
(352,-206,o),
(398,-180,c),
(398,-137,l),
(373,-147,o),
(360,-150,o),
(342,-150,cs),
(316,-150,o),
(305,-141,o),
(305,-120,cs),
(305,-101,o),
(317,-67,o),
(360,-12,cs),
(441,92,ls)
);
}
);
width = 546;
}
);
unicode = 281;
},
{
glyphname = f;
kernLeft = f;
kernRight = f;
layers = (
{
anchors = (
{
name = UCtop;
pos = (430,650);
},
{
name = bottom;
pos = (3,-204);
}
);
layerId = master01;
shapes = (
{
closed = 1;
nodes = (
(431,412,l),
(431,472,l),
(65,472,l),
(65,412,l)
);
},
{
closed = 1;
nodes = (
(308,495,ls),
(328,591,o),
(369,630,o),
(440,630,cs),
(460,630,o),
(472,629,o),
(482,619,cs),
(493,609,o),
(498,588,o),
(503,549,cs),
(567,549,o),
(593,571,o),
(593,612,cs),
(593,655,o),
(552,683,o),
(459,683,cs),
(318,683,o),
(219,595,o),
(193,456,cs),
(110,11,ls),
(85,-116,o),
(43,-157,o),
(-7,-157,cs),
(-25,-157,o),
(-37,-154,o),
(-45,-143,cs),
(-54,-131,o),
(-58,-110,o),
(-61,-73,cs),
(-123,-73,o),
(-149,-95,o),
(-149,-137,cs),
(-149,-185,o),
(-117,-214,o),
(-47,-214,cs),
(85,-214,o),
(182,-110,o),
(229,118,cs)
);
}
);
width = 388;
},
{
anchors = (
{
name = UCtop;
pos = (465,650);
},
{
name = bottom;
pos = (55,-201);
}
);
layerId = "48B243E4-A9BC-4CE2-9E97-0DBF8BE24EDB";
shapes = (
{
closed = 1;
nodes = (
(483,403,l),
(483,476,l),
(62,476,l),
(62,403,l)
);
},
{
closed = 1;
nodes = (
(364,504,ls),
(381,583,o),
(412,612,o),
(475,612,cs),
(498,612,o),
(513,610,o),
(523,599,cs),
(534,589,o),
(538,569,o),
(540,536,cs),
(622,536,o),
(648,558,o),
(648,604,cs),
(648,653,o),
(608,685,o),
(493,685,cs),
(335,685,o),
(218,602,o),
(190,452,cs),
(103,-32,ls),
(87,-115,o),
(57,-142,o),
(12,-142,cs),
(-5,-142,o),
(-16,-140,o),
(-26,-127,cs),
(-36,-115,o),
(-39,-91,o),
(-41,-49,cs),
(-119,-49,o),
(-152,-73,o),
(-152,-122,cs),
(-152,-182,o),
(-120,-214,o),
(-28,-214,cs),
(112,-214,o),
(229,-107,o),
(288,160,cs)
);
}
);
width = 437;
}
);
unicode = 102;
},
{
glyphname = g;
kernLeft = g;
kernRight = g;
layers = (
{
anchors = (
{
name = bottom;
pos = (182,-204);
},
{
name = top;
pos = (291,472);
}
);
layerId = master01;
shapes = (
{
closed = 1;
nodes = (
(542,395,o),
(580,455,o),
(580,472,cs),
(580,477,o),
(577,478,o),
(572,478,cs),
(545,478,o),
(442,473,o),
(349,473,c),
(351,434,l),
(469,416,o),
(519,395,o),
(529,395,cs)
);
},
{
closed = 1;
nodes = (
(180,209,o),
(162,232,o),
(162,279,cs),
(161,351,o),
(213,427,o),
(290,427,c),
(335,427,o),
(353,405,o),
(353,358,cs),
(353,286,o),
(301,210,o),
(225,210,c)
);
},
{
closed = 1;
nodes = (
(159,482,o),
(61,383,o),
(62,274,cs),
(62,210,o),
(103,154,o),
(219,154,c),
(356,154,o),
(453,254,o),
(453,363,cs),
(453,427,o),
(412,482,o),
(295,482,c)
);
},
{
closed = 1;
nodes = (
(362,-213,o),
(443,-149,o),
(443,-58,cs),
(443,9,o),
(400,50,o),
(252,71,cs),
(131,88,o),
(115,96,o),
(115,120,cs),
(115,142,o),
(135,155,o),
(202,157,c),
(201,171,l),
(100,163,o),
(30,146,o),
(30,81,cs),
(30,41,o),
(48,6,o),
(179,-13,cs),
(318,-33,o),
(344,-47,o),
(344,-84,cs),
(344,-126,o),
(293,-158,o),
(194,-158,cs),
(77,-158,o),
(37,-128,o),
(37,-84,cs),
(37,-36,o),
(65,-4,o),
(180,-3,c),
(107,37,l),
(100,5,l),
(-24,-16,o),
(-61,-46,o),
(-61,-104,cs),
(-61,-165,o),
(-3,-213,o),
(168,-213,cs)
);
}
);
width = 518;
},
{
anchors = (
{
name = bottom;
pos = (190,-201);
},
{
name = top;
pos = (321,476);
}
);
layerId = "48B243E4-A9BC-4CE2-9E97-0DBF8BE24EDB";
shapes = (
{
closed = 1;
nodes = (
(609,389,o),
(650,459,o),
(650,481,cs),
(650,487,o),
(644,489,o),
(640,489,cs),
(613,489,o),
(507,477,o),
(387,479,c),
(381,436,l),
(501,422,o),
(577,389,o),
(585,389,cs)
);
},
{
closed = 1;
nodes = (
(220,220,o),
(204,235,o),
(204,275,cs),
(203,332,o),
(240,419,o),
(312,419,c),
(346,419,o),
(363,404,o),
(363,364,cs),
(364,307,o),
(326,221,o),
(254,221,c)
);
},
{
closed = 1;
nodes = (
(152,489,o),
(58,385,o),
(59,279,cs),
(60,209,o),
(111,151,o),
(246,151,c),
(414,151,o),
(508,254,o),
(507,361,cs),
(506,430,o),
(456,489,o),
(320,489,c)
);
},
{
closed = 1;
nodes = (
(408,-214,o),
(489,-141,o),
(489,-43,cs),
(489,27,o),
(440,71,o),
(279,84,cs),
(142,96,o),
(121,102,o),
(121,124,cs),
(121,145,o),
(139,158,o),
(210,156,c),
(227,172,l),
(101,172,o),
(16,145,o),
(16,67,cs),
(16,15,o),
(42,-21,o),
(178,-35,cs),
(327,-51,o),
(345,-61,o),
(345,-91,cs),
(345,-126,o),
(299,-150,o),
(210,-150,cs),
(92,-150,o),
(55,-125,o),
(55,-84,cs),
(55,-51,o),
(71,-28,o),
(137,-24,c),
(107,-1,l),
(102,-15,l),
(-33,-32,o),
(-72,-58,o),
(-72,-112,cs),
(-72,-170,o),
(-27,-214,o),
(162,-214,cs)
);
}
);
width = 576;
}
);
unicode = 103;
},
{
glyphname = h;
kernLeft = h;
kernRight = n;
layers = (
{
anchors = (
{
name = UCtop;
pos = (410,650);
},
{
name = bottom;
pos = (237,0);
},
{
name = center;
pos = (256,555);
}
);
layerId = master01;
shapes = (
{
closed = 1;
nodes = (
(219,276,o),
(313,391,o),
(400,391,cs),
(429,391,o),
(443,380,o),
(443,361,cs),
(443,347,o),
(439,330,o),
(423,293,cs),
(324,57,ls),
(304,9,o),
(323,-10,o),
(366,-10,cs),
(424,-10,o),
(499,10,o),
(602,87,c),
(580,124,l),
(505,84,o),
(454,71,o),
(406,75,c),
(425,40,l),
(526,278,ls),
(550,337,o),
(557,370,o),
(557,395,cs),
(557,445,o),
(525,482,o),
(456,482,cs),
(354,482,o),
(270,421,o),
(170,213,c),
(152,213,l),
(333,683,l),
(312,683,l),
(105,648,l),
(96,612,l),
(123,600,o),
(171,578,o),
(188,570,c),
(16,0,l),
(129,0,l),
(163,105,l)
);
}
);
width = 622;
},
{
anchors = (
{
name = UCtop;
pos = (445,650);
},
{
name = bottom;
pos = (262,0);
},
{
name = center;
pos = (262,555);
}
);
layerId = "48B243E4-A9BC-4CE2-9E97-0DBF8BE24EDB";
shapes = (
{
closed = 1;
nodes = (
(270,276,o),
(335,365,o),
(402,365,cs),
(424,365,o),
(434,355,o),
(434,339,cs),
(434,325,o),
(430,307,o),
(411,260,cs),
(333,69,ls),
(311,14,o),
(338,-12,o),
(392,-12,cs),
(467,-12,o),
(549,10,o),
(659,96,c),
(635,137,l),
(550,92,o),
(503,85,o),
(447,90,c),
(488,41,l),
(577,261,ls),
(603,326,o),
(610,362,o),
(610,390,cs),
(610,446,o),
(573,489,o),
(496,489,cs),
(389,489,o),
(313,432,o),
(213,213,c),
(195,213,l),
(388,685,l),
(362,685,l),
(93,643,l),
(82,598,l),
(108,582,o),
(158,553,o),
(175,543,c),
(10,0,l),
(178,0,l),
(208,91,l)
);
}
);
width = 670;
}
);
unicode = 104;
},
{
glyphname = hbar;
kernLeft = h;
kernRight = n;
layers = (
{
layerId = master01;
shapes = (
{
closed = 1;
nodes = (
(219,276,o),
(313,391,o),
(400,391,cs),
(429,391,o),
(443,380,o),
(443,361,cs),
(443,347,o),
(439,330,o),
(423,293,cs),
(324,57,ls),
(304,9,o),
(323,-10,o),
(367,-10,cs),
(424,-10,o),
(499,10,o),
(602,87,c),
(580,124,l),
(505,84,o),
(454,71,o),
(406,75,c),
(425,40,l),
(526,278,ls),
(551,337,o),
(557,370,o),
(557,395,cs),
(557,445,o),
(525,482,o),
(456,482,cs),
(354,482,o),
(271,421,o),
(170,213,c),
(152,213,l),
(333,683,l),
(312,683,l),
(118,655,l),
(110,619,l),
(136,607,o),
(176,591,o),
(192,584,c),
(16,0,l),
(129,0,l),
(163,105,l)
);
},
{
closed = 1;
nodes = (
(423,527,l),
(440,583,l),
(102,583,l),
(85,527,l)
);
}
);
width = 622;
},
{
layerId = "48B243E4-A9BC-4CE2-9E97-0DBF8BE24EDB";
shapes = (
{
closed = 1;
nodes = (
(270,276,o),
(336,365,o),
(402,365,cs),
(424,365,o),
(434,355,o),
(434,339,cs),
(434,325,o),
(430,307,o),
(412,260,cs),
(334,69,ls),
(312,14,o),
(339,-12,o),
(392,-12,cs),
(468,-12,o),
(550,10,o),
(659,96,c),
(636,137,l),
(550,92,o),
(504,85,o),
(447,90,c),
(488,41,l),
(577,261,ls),
(603,326,o),
(611,362,o),
(611,390,cs),
(611,446,o),
(574,489,o),
(496,489,cs),
(389,489,o),
(314,432,o),
(213,213,c),
(195,213,l),
(388,685,l),
(362,685,l),
(137,665,l),
(126,620,l),
(152,606,o),
(172,597,o),
(189,588,c),
(10,0,l),
(179,0,l),
(209,91,l)
);
},
{
closed = 1;
nodes = (
(462,526,l),
(479,584,l),
(102,584,l),
(84,526,l)
);
}
);
width = 670;
}
);
unicode = 295;
},
{
glyphname = i;
kernLeft = i;
kernRight = i;
layers = (
{
anchors = (
{
name = bottom;
pos = (117,0);
},
{
name = right;
pos = (209,0);
},
{
name = top;
pos = (317,650);
}
);
layerId = master01;
shapes = (
{
closed = 1;
nodes = (
(40,7,o),
(54,-10,o),
(105,-10,cs),
(160,-10,o),
(232,10,o),
(331,86,c),
(309,123,l),
(246,83,o),
(189,72,o),
(137,75,c),
(162,40,l),
(303,397,ls),
(328,459,o),
(314,482,o),
(257,482,cs),
(209,482,o),
(138,466,o),
(22,375,c),
(47,338,l),
(125,388,o),
(181,401,o),
(231,398,c),
(209,433,l),
(67,76,ls)
);
},
{
closed = 1;
nodes = (
(224,573,o),
(249,553,o),
(301,553,cs),
(365,553,o),
(395,585,o),
(395,630,cs),
(395,663,o),
(370,683,o),
(319,683,cs),
(254,683,o),
(224,650,o),
(224,606,cs)
);
}
);
width = 361;
},
{
anchors = (
{
name = bottom;
pos = (125,0);
},
{
name = right;
pos = (241,0);
},
{
name = top;
pos = (344,650);
}
);
layerId = "48B243E4-A9BC-4CE2-9E97-0DBF8BE24EDB";
shapes = (
{
closed = 1;
nodes = (
(31,13,o),
(51,-12,o),
(118,-12,cs),
(193,-12,o),
(280,14,o),
(387,96,c),
(361,137,l),
(299,98,o),
(247,87,o),
(173,93,c),
(215,41,l),
(353,378,ls),
(384,455,o),
(371,489,o),
(285,489,cs),
(217,489,o),
(138,465,o),
(14,368,c),
(42,327,l),
(119,379,o),
(169,390,o),
(239,387,c),
(204,436,l),
(67,98,ls)
);
},
{
closed = 1;
nodes = (
(226,564,o),
(257,543,o),
(326,543,cs),
(415,543,o),
(446,578,o),
(446,626,cs),
(446,664,o),
(415,685,o),
(347,685,cs),
(257,685,o),
(226,650,o),
(226,602,cs)
);
}
);
width = 407;
}
);
unicode = 105;
},
{
glyphname = dotlessi;
kernLeft = i;
kernRight = i;
layers = (
{
anchors = (
{
name = bottom;
pos = (117,0);
},
{
name = right;
pos = (209,0);
},
{
name = top;
pos = (261,475);
}
);
layerId = master01;
shapes = (
{
closed = 1;
nodes = (
(40,7,o),
(54,-10,o),
(105,-10,cs),
(160,-10,o),
(232,10,o),
(331,86,c),
(309,123,l),
(246,83,o),
(189,72,o),
(137,75,c),
(162,40,l),
(303,397,ls),
(328,459,o),
(314,482,o),
(257,482,cs),
(209,482,o),
(138,466,o),
(22,375,c),
(47,338,l),
(125,388,o),
(181,401,o),
(231,398,c),
(209,433,l),
(67,76,ls)
);
}
);
width = 361;
},
{
anchors = (
{
name = bottom;
pos = (125,0);
},
{
name = right;
pos = (241,0);
},
{
name = top;
pos = (292,477);
}
);
layerId = "48B243E4-A9BC-4CE2-9E97-0DBF8BE24EDB";
shapes = (
{
closed = 1;
nodes = (
(31,13,o),
(51,-12,o),
(118,-12,cs),
(193,-12,o),
(280,14,o),
(387,96,c),
(361,137,l),
(299,98,o),
(247,87,o),
(173,93,c),
(215,41,l),
(353,378,ls),
(384,455,o),
(371,489,o),
(285,489,cs),
(217,489,o),
(138,465,o),
(14,368,c),
(42,327,l),
(119,379,o),
(169,390,o),
(239,387,c),
(204,436,l),
(67,98,ls)
);
}
);
width = 407;
}
);
unicode = 305;
},
{
color = 4;
glyphname = idotless_ogonekcomb;
kernLeft = kernLC_i2;
kernRight = kernLC_i1;
layers = (
{
anchors = (
{
name = top;
pos = (172,510);
}
);
layerId = master01;
shapes = (
{
closed = 1;
nodes = (
(172,-10,o),
(217,32,o),
(256,132,c),
(243,138,l),
(219,87,o),
(191,63,o),
(168,63,cs),
(150,63,o),
(146,79,o),
(153,119,cs),
(214,460,l),
(211,460,l),
(38,430,l),
(38,424,l),
(125,390,l),
(72,89,ls),
(61,29,o),
(78,-10,o),
(125,-10,cs)
);
},
{
closed = 1;
nodes = (
(120,-240,o),
(150,-223,o),
(171,-193,c),
(173,-180,l),
(170,-180,l),
(152,-192,o),
(134,-196,o),
(120,-196,cs),
(85,-196,o),
(64,-179,o),
(64,-140,cs),
(64,-92,o),
(94,-37,o),
(149,25,c),
(125,25,l),
(49,-46,o),
(3,-103,o),
(3,-159,cs),
(3,-210,o),
(34,-240,o),
(84,-240,cs)
);
}
);
userData = {
com.typemytype.robofont.layerData = {
mask = {
anchors = (
);
components = (
);
contours = (
{
points = (
{
segmentType = curve;
smooth = 1;
x = 125;
y = -10;
},
{
smooth = 0;
x = 172;
y = -10;
},
{
smooth = 0;
x = 217;
y = 32;
},
{
segmentType = curve;
smooth = 0;
x = 256;
y = 132;
},
{
segmentType = line;
smooth = 0;
x = 243;
y = 138;
},
{
smooth = 0;
x = 219;
y = 87;
},
{
smooth = 0;
x = 191;
y = 63;
},
{
segmentType = curve;
smooth = 1;
x = 168;
y = 63;
},
{
smooth = 0;
x = 150;
y = 63;
},
{
smooth = 0;
x = 146;
y = 79;
},
{
segmentType = curve;
smooth = 1;
x = 153;
y = 119;
},
{
segmentType = line;
smooth = 0;
x = 214;
y = 460;
},
{
segmentType = line;
smooth = 0;
x = 211;
y = 460;
},
{
segmentType = line;
smooth = 0;
x = 38;
y = 430;
},
{
segmentType = line;
smooth = 0;
x = 38;
y = 424;
},
{
segmentType = line;
smooth = 0;
x = 125;
y = 390;
},
{
segmentType = line;
smooth = 1;
x = 72;
y = 89;
},
{
smooth = 0;
x = 61;
y = 29;
},
{
smooth = 0;
x = 78;
y = -10;
}
);
},
{
points = (
{
segmentType = curve;
smooth = 1;
x = 196;
y = 585;
},
{
smooth = 0;
x = 227;
y = 585;
},
{
smooth = 0;
x = 253;
y = 611;
},
{
segmentType = curve;
smooth = 1;
x = 253;
y = 642;
},
{
smooth = 0;
x = 253;
y = 673;
},
{
smooth = 0;
x = 227;
y = 699;
},
{
segmentType = curve;
smooth = 1;
x = 196;
y = 699;
},
{
smooth = 0;
x = 165;
y = 699;
},
{
smooth = 0;
x = 139;
y = 673;
},
{
segmentType = curve;
smooth = 1;
x = 139;
y = 642;
},
{
smooth = 0;
x = 139;
y = 611;
},
{
smooth = 0;
x = 165;
y = 585;
}
);
},
{
points = (
{
segmentType = curve;
smooth = 1;
x = 84;
y = -240;
},
{
smooth = 0;
x = 120;
y = -240;
},
{
smooth = 0;
x = 150;
y = -223;
},
{
segmentType = curve;
smooth = 0;
x = 171;
y = -193;
},
{
segmentType = line;
smooth = 0;
x = 173;
y = -180;
},
{
segmentType = line;
smooth = 0;
x = 170;
y = -180;
},
{
smooth = 0;
x = 152;
y = -192;
},
{
smooth = 0;
x = 134;
y = -196;
},
{
segmentType = curve;
smooth = 1;
x = 120;
y = -196;
},
{
smooth = 0;
x = 85;
y = -196;
},
{
smooth = 0;
x = 64;
y = -179;
},
{
segmentType = curve;
smooth = 1;
x = 64;
y = -140;
},
{
smooth = 0;
x = 64;
y = -92;
},
{
smooth = 0;
x = 94;
y = -37;
},
{
segmentType = curve;
smooth = 0;
x = 149;
y = 25;
},
{
segmentType = line;
smooth = 0;
x = 125;
y = 25;
},
{
smooth = 0;
x = 49;
y = -46;
},
{
smooth = 0;
x = 3;
y = -103;
},
{
segmentType = curve;
smooth = 1;
x = 3;
y = -159;
},
{
smooth = 0;
x = 3;
y = -210;
},
{
smooth = 0;
x = 34;
y = -240;
}
);
}
);
lib = {
};
name = iogonek;
unicodes = (
);
width = 288;
};
};
};
width = 288;
},
{
anchors = (
{
name = top;
pos = (193,510);
}
);
layerId = "48B243E4-A9BC-4CE2-9E97-0DBF8BE24EDB";
shapes = (
{
closed = 1;
nodes = (
(222,-10,o),
(270,55,o),
(306,153,c),
(284,160,l),
(260,106,o),
(241,89,o),
(223,89,cs),
(207,89,o),
(201,107,o),
(205,131,cs),
(265,470,l),
(262,470,l),
(30,430,l),
(30,414,l),
(88,381,l),
(47,150,ls),
(28,43,o),
(69,-10,o),
(147,-10,cs)
);
},
{
closed = 1;
nodes = (
(167,-240,o),
(198,-220,o),
(218,-189,c),
(224,-167,l),
(220,-167,l),
(210,-177,o),
(192,-183,o),
(178,-183,cs),
(143,-183,o),
(125,-164,o),
(125,-130,cs),
(125,-76,o),
(152,-19,o),
(183,27,c),
(160,27,l),
(98,-25,o),
(32,-89,o),
(32,-160,cs),
(32,-209,o),
(66,-240,o),
(123,-240,cs)
);
}
);
userData = {
com.typemytype.robofont.layerData = {
mask = {
anchors = (
);
components = (
);
contours = (
{
points = (
{
segmentType = curve;
smooth = 1;
x = 147;
y = -10;
},
{
smooth = 0;
x = 222;
y = -10;
},
{
smooth = 0;
x = 270;
y = 55;
},
{
segmentType = curve;
smooth = 0;
x = 306;
y = 153;
},
{
segmentType = line;
smooth = 0;
x = 284;
y = 160;
},
{
smooth = 0;
x = 260;
y = 106;
},
{
smooth = 0;
x = 241;
y = 89;
},
{
segmentType = curve;
smooth = 1;
x = 223;
y = 89;
},
{
smooth = 0;
x = 207;
y = 89;
},
{
smooth = 0;
x = 201;
y = 107;
},
{
segmentType = curve;
smooth = 1;
x = 205;
y = 131;
},
{
segmentType = line;
smooth = 0;
x = 265;
y = 470;
},
{
segmentType = line;
smooth = 0;
x = 262;
y = 470;
},
{
segmentType = line;
smooth = 0;
x = 30;
y = 430;
},
{
segmentType = line;
smooth = 0;
x = 30;
y = 414;
},
{
segmentType = line;
smooth = 0;
x = 88;
y = 381;
},
{
segmentType = line;
smooth = 1;
x = 47;
y = 150;
},
{
smooth = 0;
x = 28;
y = 43;
},
{
smooth = 0;
x = 69;
y = -10;
}
);
},
{
points = (
{
segmentType = curve;
smooth = 1;
x = 211;
y = 552;
},
{
smooth = 0;
x = 260;
y = 552;
},
{
smooth = 0;
x = 296;
y = 587;
},
{
segmentType = curve;
smooth = 1;
x = 296;
y = 637;
},
{
smooth = 0;
x = 296;
y = 687;
},
{
smooth = 0;
x = 260;
y = 723;
},
{
segmentType = curve;
smooth = 1;
x = 211;
y = 723;
},
{
smooth = 0;
x = 162;
y = 723;
},
{
smooth = 0;
x = 125;
y = 687;
},
{
segmentType = curve;
smooth = 1;
x = 125;
y = 637;
},
{
smooth = 0;
x = 125;
y = 587;
},
{
smooth = 0;
x = 162;
y = 552;
}
);
},
{
points = (
{
segmentType = curve;
smooth = 1;
x = 123;
y = -240;
},
{
smooth = 0;
x = 167;
y = -240;
},
{
smooth = 0;
x = 198;
y = -220;
},
{
segmentType = curve;
smooth = 0;
x = 218;
y = -189;
},
{
segmentType = line;
smooth = 0;
x = 224;
y = -167;
},
{
segmentType = line;
smooth = 0;
x = 220;
y = -167;
},
{
smooth = 0;
x = 210;
y = -177;
},
{
smooth = 0;
x = 192;
y = -183;
},
{
segmentType = curve;
smooth = 1;
x = 178;
y = -183;
},
{
smooth = 0;
x = 143;
y = -183;
},
{
smooth = 0;
x = 125;
y = -164;
},
{
segmentType = curve;
smooth = 1;
x = 125;
y = -130;
},
{
smooth = 0;
x = 125;
y = -76;
},
{
smooth = 0;
x = 152;
y = -19;
},
{
segmentType = curve;
smooth = 0;
x = 183;
y = 27;
},
{
segmentType = line;
smooth = 0;
x = 160;
y = 27;
},
{
smooth = 0;
x = 98;
y = -25;
},
{
smooth = 0;
x = 32;
y = -89;
},
{
segmentType = curve;
smooth = 1;
x = 32;
y = -160;
},
{
smooth = 0;
x = 32;
y = -209;
},
{
smooth = 0;
x = 66;
y = -240;
}
);
}
);
lib = {
};
name = iogonek;
unicodes = (
);
width = 310;
};
};
};
width = 310;
}
);
},
{
glyphname = iogonek;
kernLeft = i;
kernRight = i;
layers = (
{
layerId = master01;
shapes = (
{
closed = 1;
nodes = (
(224,573,o),
(249,553,o),
(301,553,cs),
(365,553,o),
(395,585,o),
(395,630,cs),
(395,663,o),
(370,683,o),
(319,683,cs),
(254,683,o),
(224,650,o),
(224,606,cs)
);
},
{
closed = 1;
nodes = (
(279,48,o),
(307,68,o),
(331,86,c),
(309,123,l),
(246,83,o),
(189,72,o),
(137,75,c),
(162,40,l),
(303,397,ls),
(328,459,o),
(314,482,o),
(257,482,cs),
(209,482,o),
(138,466,o),
(22,375,c),
(47,338,l),
(125,388,o),
(181,401,o),
(231,398,c),
(209,433,l),
(67,76,ls),
(40,7,o),
(54,-10,o),
(105,-10,cs),
(124,-10,o),
(144,-8,o),
(167,-2,c),
(163,4,l),
(112,-28,ls),
(26,-79,o),
(9,-119,o),
(9,-154,cs),
(9,-187,o),
(28,-214,o),
(73,-214,cs),
(103,-214,o),
(130,-207,o),
(171,-182,c),
(171,-148,l),
(146,-160,o),
(132,-163,o),
(114,-163,cs),
(89,-163,o),
(77,-152,o),
(77,-132,cs),
(77,-102,o),
(94,-74,o),
(144,-41,cs),
(247,27,ls)
);
}
);
width = 363;
},
{
layerId = "48B243E4-A9BC-4CE2-9E97-0DBF8BE24EDB";
shapes = (
{
closed = 1;
nodes = (
(226,564,o),
(257,543,o),
(326,543,cs),
(415,543,o),
(446,578,o),
(446,626,cs),
(446,664,o),
(415,685,o),
(347,685,cs),
(257,685,o),
(226,650,o),
(226,602,cs)
);
},
{
closed = 1;
nodes = (
(324,52,o),
(355,72,o),
(387,96,c),
(361,137,l),
(299,98,o),
(247,87,o),
(173,93,c),
(215,41,l),
(353,378,ls),
(384,455,o),
(371,489,o),
(285,489,cs),
(217,489,o),
(138,465,o),
(14,368,c),
(42,327,l),
(119,379,o),
(169,390,o),
(239,387,c),
(204,436,l),
(67,98,ls),
(31,13,o),
(51,-12,o),
(118,-12,cs),
(142,-12,o),
(167,-10,o),
(194,-3,c),
(189,4,l),
(145,-19,ls),
(49,-68,o),
(26,-108,o),
(26,-148,cs),
(26,-184,o),
(46,-214,o),
(98,-214,cs),
(128,-214,o),
(158,-206,o),
(204,-180,c),
(204,-137,l),
(179,-147,o),
(166,-150,o),
(148,-150,cs),
(123,-150,o),
(111,-141,o),
(111,-120,cs),
(111,-92,o),
(129,-66,o),
(184,-33,cs),
(292,32,ls)
);
}
);
width = 409;
}
);
unicode = 303;
},
{
glyphname = j;
kernLeft = j;
kernRight = j;
layers = (
{
anchors = (
{
name = bottom;
pos = (-27,-204);
},
{
name = top;
pos = (292,650);
}
);
layerId = master01;
shapes = (
{
closed = 1;
nodes = (
(210,573,o),
(235,553,o),
(287,553,cs),
(351,553,o),
(381,585,o),
(381,630,cs),
(381,663,o),
(357,683,o),
(305,683,cs),
(240,683,o),
(210,650,o),
(210,606,cs)
);
},
{
closed = 1;
nodes = (
(288,397,ls),
(307,460,o),
(298,482,o),
(243,482,cs),
(192,482,o),
(125,457,o),
(16,371,c),
(40,335,l),
(123,387,o),
(175,401,o),
(217,398,c),
(195,433,l),
(78,42,ls),
(30,-119,o),
(-2,-141,o),
(-39,-141,cs),
(-45,-141,o),
(-55,-132,o),
(-74,-115,cs),
(-93,-97,o),
(-108,-81,o),
(-111,-81,cs),
(-142,-81,o),
(-168,-108,o),
(-168,-144,cs),
(-168,-184,o),
(-145,-214,o),
(-83,-214,cs),
(29,-214,o),
(136,-114,o),
(197,89,cs)
);
}
);
width = 326;
},
{
anchors = (
{
name = bottom;
pos = (3,-201);
},
{
name = top;
pos = (318,650);
}
);
layerId = "48B243E4-A9BC-4CE2-9E97-0DBF8BE24EDB";
shapes = (
{
closed = 1;
nodes = (
(209,564,o),
(241,543,o),
(309,543,cs),
(398,543,o),
(429,578,o),
(429,626,cs),
(429,664,o),
(398,685,o),
(330,685,cs),
(240,685,o),
(209,650,o),
(209,602,cs)
);
},
{
closed = 1;
nodes = (
(335,378,ls),
(359,457,o),
(353,489,o),
(268,489,cs),
(202,489,o),
(128,460,o),
(11,369,c),
(39,328,l),
(115,379,o),
(159,390,o),
(222,387,c),
(187,436,l),
(57,-12,ls),
(28,-113,o),
(6,-134,o),
(-26,-134,cs),
(-32,-134,o),
(-46,-116,o),
(-64,-95,cs),
(-81,-73,o),
(-98,-53,o),
(-103,-53,cs),
(-152,-53,o),
(-177,-87,o),
(-177,-127,cs),
(-177,-176,o),
(-147,-214,o),
(-62,-214,cs),
(64,-214,o),
(183,-130,o),
(250,93,cs)
);
}
);
width = 372;
}
);
unicode = 106;
},
{
glyphname = uni0237;
kernLeft = j;
kernRight = j;
layers = (
{
anchors = (
{
name = bottom;
pos = (-27,-204);
},
{
name = top;
pos = (238,475);
}
);
layerId = master01;
shapes = (
{
closed = 1;
nodes = (
(288,397,ls),
(307,460,o),
(298,482,o),
(243,482,cs),
(192,482,o),
(125,457,o),
(16,371,c),
(40,335,l),
(123,387,o),
(175,401,o),
(217,398,c),
(195,433,l),
(78,42,ls),
(30,-119,o),
(-2,-141,o),
(-39,-141,cs),
(-45,-141,o),
(-55,-132,o),
(-74,-115,cs),
(-93,-97,o),
(-108,-81,o),
(-111,-81,cs),
(-142,-81,o),
(-168,-108,o),
(-168,-144,cs),
(-168,-184,o),
(-145,-214,o),
(-83,-214,cs),
(29,-214,o),
(136,-114,o),
(197,89,cs)
);
}
);
width = 326;
},
{
anchors = (
{
name = bottom;
pos = (3,-201);
},
{
name = top;
pos = (261,477);
}
);
layerId = "48B243E4-A9BC-4CE2-9E97-0DBF8BE24EDB";
shapes = (
{
closed = 1;
nodes = (
(335,378,ls),
(359,457,o),
(353,489,o),
(268,489,cs),
(202,489,o),
(128,460,o),
(11,369,c),
(39,328,l),
(115,379,o),
(159,390,o),
(222,387,c),
(187,436,l),
(57,-12,ls),
(28,-113,o),
(6,-134,o),
(-26,-134,cs),
(-32,-134,o),
(-46,-116,o),
(-64,-95,cs),
(-81,-73,o),
(-98,-53,o),
(-103,-53,cs),
(-152,-53,o),
(-177,-87,o),
(-177,-127,cs),
(-177,-176,o),
(-147,-214,o),
(-62,-214,cs),
(64,-214,o),
(183,-130,o),
(250,93,cs)
);
}
);
width = 372;
}
);
unicode = 567;
},
{
glyphname = k;
kernLeft = h;
kernRight = k;
layers = (
{
anchors = (
{
name = UCtop;
pos = (390,650);
},
{
name = bottom;
pos = (239,0);
}
);
layerId = master01;
shapes = (
{
closed = 1;
nodes = (
(311,683,l),
(107,648,l),
(98,612,l),
(125,600,o),
(173,578,o),
(190,570,c),
(15,0,l),
(124,0,l),
(332,683,l)
);
},
{
closed = 1;
nodes = (
(279,51,o),
(323,-10,o),
(379,-10,cs),
(419,-10,o),
(474,19,o),
(551,112,c),
(525,140,l),
(479,93,o),
(456,73,o),
(434,73,cs),
(400,73,o),
(372,119,o),
(286,315,c),
(254,264,l),
(394,378,o),
(430,397,o),
(457,397,cs),
(466,397,o),
(477,384,o),
(488,369,cs),
(499,353,o),
(510,336,o),
(514,336,cs),
(541,336,o),
(591,360,o),
(591,420,cs),
(591,455,o),
(567,482,o),
(515,482,cs),
(442,482,o),
(384,443,o),
(203,274,c),
(197,261,l)
);
}
);
width = 587;
},
{
anchors = (
{
name = UCtop;
pos = (422,650);
},
{
name = bottom;
pos = (276,0);
}
);
layerId = "48B243E4-A9BC-4CE2-9E97-0DBF8BE24EDB";
shapes = (
{
closed = 1;
nodes = (
(361,685,l),
(94,643,l),
(83,598,l),
(109,582,o),
(159,553,o),
(176,543,c),
(9,0,l),
(178,0,l),
(387,685,l)
);
},
{
closed = 1;
nodes = (
(321,34,o),
(359,-12,o),
(417,-12,cs),
(471,-12,o),
(544,27,o),
(621,117,c),
(593,153,l),
(554,117,o),
(533,103,o),
(516,103,cs),
(484,103,o),
(458,146,o),
(379,353,c),
(315,267,l),
(451,368,o),
(472,380,o),
(500,380,cs),
(514,380,o),
(528,366,o),
(541,350,cs),
(554,334,o),
(567,313,o),
(570,313,cs),
(607,313,o),
(655,347,o),
(655,411,cs),
(655,455,o),
(626,489,o),
(567,489,cs),
(496,489,o),
(449,460,o),
(261,280,c),
(249,258,l)
);
}
);
width = 656;
}
);
unicode = 107;
},
{
glyphname = l;
kernLeft = l;
kernRight = l;
layers = (
{
anchors = (
{
name = UCtop;
pos = (261,650);
},
{
name = bottom;
pos = (102,0);
},
{
name = mid;
pos = (325,244);
},
{
name = right;
pos = (335,673);
}
);
layerId = master01;
shapes = (
{
closed = 1;
nodes = (
(42,75,ls),
(21,8,o),
(35,-10,o),
(83,-10,cs),
(137,-10,o),
(208,9,o),
(309,87,c),
(287,124,l),
(223,84,o),
(166,72,o),
(113,76,c),
(137,38,l),
(338,683,l),
(317,683,l),
(113,648,l),
(104,612,l),
(130,600,o),
(179,578,o),
(196,570,c)
);
}
);
width = 330;
},
{
anchors = (
{
name = UCtop;
pos = (290,650);
},
{
name = bottom;
pos = (112,0);
},
{
name = mid;
pos = (391,265);
},
{
name = right;
pos = (388,673);
}
);
layerId = "48B243E4-A9BC-4CE2-9E97-0DBF8BE24EDB";
shapes = (
{
closed = 1;
nodes = (
(39,97,ls),
(15,19,o),
(37,-12,o),
(93,-12,cs),
(168,-12,o),
(248,11,o),
(362,99,c),
(337,140,l),
(272,101,o),
(217,89,o),
(144,96,c),
(185,35,l),
(392,685,l),
(366,685,l),
(98,643,l),
(88,598,l),
(114,582,o),
(164,553,o),
(180,543,c)
);
}
);
width = 372;
}
);
unicode = 108;
},
{
color = 4;
glyphname = ldot;
kernLeft = kernLC_l2;
kernRight = kernLC_l1;
layers = (
{
layerId = master01;
shapes = (
{
ref = l;
},
{
closed = 1;
nodes = (
(371,189,o),
(395,217,o),
(395,255,cs),
(395,285,o),
(375,301,o),
(335,301,cs),
(279,301,o),
(255,273,o),
(255,235,cs),
(255,206,o),
(276,189,o),
(315,189,cs)
);
}
);
userData = {
com.typemytype.robofont.layerData = {
mask = {
anchors = (
);
components = (
);
contours = (
{
points = (
{
segmentType = curve;
smooth = 1;
x = 101;
y = -10;
},
{
smooth = 0;
x = 148;
y = -10;
},
{
smooth = 0;
x = 193;
y = 32;
},
{
segmentType = curve;
smooth = 0;
x = 232;
y = 132;
},
{
segmentType = line;
smooth = 0;
x = 219;
y = 138;
},
{
smooth = 0;
x = 195;
y = 87;
},
{
smooth = 0;
x = 167;
y = 63;
},
{
segmentType = curve;
smooth = 1;
x = 144;
y = 63;
},
{
smooth = 0;
x = 126;
y = 63;
},
{
smooth = 0;
x = 122;
y = 79;
},
{
segmentType = curve;
smooth = 1;
x = 129;
y = 119;
},
{
segmentType = line;
smooth = 0;
x = 240;
y = 750;
},
{
segmentType = line;
smooth = 0;
x = 237;
y = 750;
},
{
segmentType = line;
smooth = 0;
x = 64;
y = 720;
},
{
segmentType = line;
smooth = 0;
x = 64;
y = 714;
},
{
segmentType = line;
smooth = 0;
x = 151;
y = 680;
},
{
segmentType = line;
smooth = 1;
x = 48;
y = 89;
},
{
smooth = 0;
x = 38;
y = 29;
},
{
smooth = 0;
x = 54;
y = -10;
}
);
},
{
points = (
{
segmentType = curve;
smooth = 1;
x = 259;
y = 243;
},
{
smooth = 0;
x = 290;
y = 243;
},
{
smooth = 0;
x = 316;
y = 269;
},
{
segmentType = curve;
smooth = 1;
x = 316;
y = 300;
},
{
smooth = 0;
x = 316;
y = 331;
},
{
smooth = 0;
x = 290;
y = 357;
},
{
segmentType = curve;
smooth = 1;
x = 259;
y = 357;
},
{
smooth = 0;
x = 228;
y = 357;
},
{
smooth = 0;
x = 202;
y = 331;
},
{
segmentType = curve;
smooth = 1;
x = 202;
y = 300;
},
{
smooth = 0;
x = 202;
y = 269;
},
{
smooth = 0;
x = 228;
y = 243;
}
);
}
);
lib = {
};
name = ldot;
unicodes = (
);
width = 258;
};
};
};
width = 358;
},
{
layerId = "48B243E4-A9BC-4CE2-9E97-0DBF8BE24EDB";
shapes = (
{
ref = l;
},
{
closed = 1;
nodes = (
(449,200,o),
(477,237,o),
(477,281,cs),
(477,312,o),
(454,330,o),
(406,330,cs),
(332,330,o),
(304,293,o),
(304,250,cs),
(304,218,o),
(327,200,o),
(375,200,cs)
);
}
);
userData = {
com.typemytype.robofont.layerData = {
mask = {
anchors = (
);
components = (
);
contours = (
{
points = (
{
segmentType = curve;
smooth = 1;
x = 145;
y = -10;
},
{
smooth = 0;
x = 220;
y = -10;
},
{
smooth = 0;
x = 268;
y = 55;
},
{
segmentType = curve;
smooth = 0;
x = 304;
y = 153;
},
{
segmentType = line;
smooth = 0;
x = 282;
y = 160;
},
{
smooth = 0;
x = 258;
y = 106;
},
{
smooth = 0;
x = 239;
y = 89;
},
{
segmentType = curve;
smooth = 1;
x = 221;
y = 89;
},
{
smooth = 0;
x = 205;
y = 89;
},
{
smooth = 0;
x = 199;
y = 107;
},
{
segmentType = curve;
smooth = 1;
x = 203;
y = 131;
},
{
segmentType = line;
smooth = 0;
x = 313;
y = 750;
},
{
segmentType = line;
smooth = 0;
x = 310;
y = 750;
},
{
segmentType = line;
smooth = 0;
x = 66;
y = 710;
},
{
segmentType = line;
smooth = 0;
x = 66;
y = 694;
},
{
segmentType = line;
smooth = 0;
x = 135;
y = 661;
},
{
segmentType = line;
smooth = 1;
x = 45;
y = 150;
},
{
smooth = 0;
x = 26;
y = 43;
},
{
smooth = 0;
x = 67;
y = -10;
}
);
},
{
points = (
{
segmentType = curve;
smooth = 1;
x = 357;
y = 224;
},
{
smooth = 0;
x = 402;
y = 224;
},
{
smooth = 0;
x = 434;
y = 255;
},
{
segmentType = curve;
smooth = 1;
x = 434;
y = 300;
},
{
smooth = 0;
x = 434;
y = 345;
},
{
smooth = 0;
x = 402;
y = 378;
},
{
segmentType = curve;
smooth = 1;
x = 357;
y = 378;
},
{
smooth = 0;
x = 313;
y = 378;
},
{
smooth = 0;
x = 280;
y = 345;
},
{
segmentType = curve;
smooth = 1;
x = 280;
y = 300;
},
{
smooth = 0;
x = 280;
y = 255;
},
{
smooth = 0;
x = 313;
y = 224;
}
);
}
);
lib = {
};
name = ldot;
unicodes = (
);
width = 308;
};
};
};
width = 436;
}
);
unicode = 320;
},
{
glyphname = lslash;
layers = (
{
layerId = master01;
shapes = (
{
closed = 1;
nodes = (
(26,200,l),
(160,278,l),
(191,273,l),
(369,377,l),
(391,450,l),
(213,346,l),
(182,351,l),
(48,273,l)
);
},
{
closed = 1;
nodes = (
(68,75,ls),
(47,8,o),
(60,-10,o),
(108,-10,cs),
(163,-10,o),
(233,9,o),
(334,87,c),
(312,124,l),
(248,84,o),
(191,72,o),
(138,76,c),
(162,38,l),
(363,683,l),
(342,683,l),
(138,648,l),
(129,612,l),
(156,600,o),
(204,578,o),
(221,570,c)
);
}
);
width = 398;
},
{
layerId = "48B243E4-A9BC-4CE2-9E97-0DBF8BE24EDB";
shapes = (
{
closed = 1;
nodes = (
(18,186,l),
(158,265,l),
(201,254,l),
(406,372,l),
(430,450,l),
(225,332,l),
(182,343,l),
(42,264,l)
);
},
{
closed = 1;
nodes = (
(62,97,ls),
(37,19,o),
(60,-12,o),
(116,-12,cs),
(191,-12,o),
(271,11,o),
(385,99,c),
(360,140,l),
(295,101,o),
(240,89,o),
(167,96,c),
(208,35,l),
(415,685,l),
(389,685,l),
(121,643,l),
(110,598,l),
(137,582,o),
(187,553,o),
(203,543,c)
);
}
);
width = 439;
}
);
unicode = 322;
},
{
glyphname = m;
kernLeft = n;
kernRight = n;
layers = (
{
anchors = (
{
name = bottom;
pos = (407,0);
},
{
name = top;
pos = (553,472);
}
);
layerId = master01;
shapes = (
{
closed = 1;
nodes = (
(840,278,ls),
(865,337,o),
(872,370,o),
(872,395,cs),
(872,445,o),
(840,482,o),
(773,482,cs),
(679,482,o),
(600,422,o),
(503,213,c),
(486,213,l),
(514,295,ls),
(532,349,o),
(540,378,o),
(540,407,cs),
(540,452,o),
(516,482,o),
(458,482,cs),
(381,482,o),
(309,427,o),
(213,213,c),
(195,213,l),
(281,480,l),
(259,482,o),
(244,482,o),
(224,482,cs),
(123,482,o),
(60,450,o),
(31,330,c),
(39,327,l),
(76,377,o),
(114,393,o),
(174,393,cs),
(175,393,o),
(177,393,o),
(178,393,c),
(59,0,l),
(172,0,l),
(206,105,ls),
(263,277,o),
(341,392,o),
(419,392,cs),
(448,392,o),
(458,380,o),
(458,361,cs),
(458,349,o),
(455,331,o),
(442,293,cs),
(342,0,l),
(455,0,l),
(494,114,l),
(550,278,o),
(635,392,o),
(718,392,cs),
(747,392,o),
(758,380,o),
(758,361,cs),
(758,348,o),
(754,331,o),
(738,293,cs),
(638,57,ls),
(617,9,o),
(637,-10,o),
(681,-10,cs),
(739,-10,o),
(813,10,o),
(917,87,c),
(894,124,l),
(819,84,o),
(768,71,o),
(720,75,c),
(739,40,l)
);
}
);
width = 937;
},
{
anchors = (
{
name = bottom;
pos = (443,0);
},
{
name = top;
pos = (589,476);
}
);
layerId = "48B243E4-A9BC-4CE2-9E97-0DBF8BE24EDB";
shapes = (
{
closed = 1;
nodes = (
(905,261,ls),
(931,325,o),
(938,362,o),
(938,390,cs),
(938,446,o),
(899,489,o),
(819,489,cs),
(731,489,o),
(658,435,o),
(559,213,c),
(541,213,l),
(572,306,ls),
(586,348,o),
(592,377,o),
(592,403,cs),
(592,458,o),
(562,489,o),
(498,489,cs),
(420,489,o),
(360,443,o),
(262,213,c),
(244,213,l),
(326,485,l),
(292,487,o),
(275,487,o),
(243,487,cs),
(124,487,o),
(57,450,o),
(26,311,c),
(42,307,l),
(80,365,o),
(109,376,o),
(169,376,cs),
(171,376,o),
(173,376,o),
(174,376,c),
(60,0,l),
(227,0,l),
(257,91,ls),
(322,285,o),
(372,368,o),
(433,368,cs),
(453,368,o),
(461,358,o),
(461,341,cs),
(461,329,o),
(457,310,o),
(441,263,cs),
(351,0,l),
(519,0,l),
(551,95,l),
(616,288,o),
(675,368,o),
(731,368,cs),
(754,368,o),
(763,357,o),
(763,339,cs),
(763,328,o),
(759,310,o),
(740,263,cs),
(659,69,ls),
(637,14,o),
(665,-12,o),
(718,-12,cs),
(793,-12,o),
(876,10,o),
(985,96,c),
(961,137,l),
(876,92,o),
(829,85,o),
(773,90,c),
(814,41,l)
);
}
);
width = 998;
}
);
unicode = 109;
},
{
glyphname = n;
kernLeft = n;
kernRight = n;
layers = (
{
anchors = (
{
name = bottom;
pos = (278,0);
},
{
name = top;
pos = (401,472);
}
);
layerId = master01;
shapes = (
{
closed = 1;
nodes = (
(76,377,o),
(114,393,o),
(174,393,cs),
(175,393,o),
(177,393,o),
(178,393,c),
(59,0,l),
(172,0,l),
(206,105,l),
(262,276,o),
(356,391,o),
(443,391,cs),
(472,391,o),
(486,380,o),
(486,361,cs),
(486,347,o),
(482,330,o),
(466,293,cs),
(367,57,ls),
(347,9,o),
(366,-10,o),
(410,-10,cs),
(467,-10,o),
(542,10,o),
(646,87,c),
(623,124,l),
(548,84,o),
(497,71,o),
(449,75,c),
(468,40,l),
(569,278,ls),
(594,337,o),
(600,370,o),
(600,395,cs),
(600,445,o),
(568,482,o),
(499,482,cs),
(397,482,o),
(314,421,o),
(213,213,c),
(195,213,l),
(281,480,l),
(259,482,o),
(244,482,o),
(224,482,cs),
(123,482,o),
(60,450,o),
(31,330,c),
(39,327,l)
);
}
);
width = 665;
},
{
anchors = (
{
name = bottom;
pos = (309,0);
},
{
name = top;
pos = (428,476);
}
);
layerId = "48B243E4-A9BC-4CE2-9E97-0DBF8BE24EDB";
shapes = (
{
closed = 1;
nodes = (
(80,365,o),
(109,376,o),
(169,376,cs),
(171,376,o),
(173,376,o),
(174,376,c),
(60,0,l),
(227,0,l),
(257,91,l),
(319,276,o),
(384,365,o),
(451,365,cs),
(473,365,o),
(483,355,o),
(483,339,cs),
(483,325,o),
(479,307,o),
(460,260,cs),
(382,69,ls),
(360,14,o),
(388,-12,o),
(441,-12,cs),
(516,-12,o),
(599,10,o),
(708,96,c),
(684,137,l),
(599,92,o),
(552,85,o),
(496,90,c),
(537,41,l),
(626,261,ls),
(652,326,o),
(659,362,o),
(659,390,cs),
(659,446,o),
(622,489,o),
(545,489,cs),
(438,489,o),
(362,432,o),
(262,213,c),
(244,213,l),
(326,485,l),
(292,487,o),
(275,487,o),
(243,487,cs),
(124,487,o),
(57,450,o),
(26,311,c),
(42,307,l)
);
}
);
width = 719;
}
);
unicode = 110;
},
{
glyphname = eng;
kernLeft = n;
layers = (
{
layerId = master01;
shapes = (
{
closed = 1;
nodes = (
(339,-214,o),
(436,-114,o),
(501,84,cs),
(566,278,ls),
(586,340,o),
(591,372,o),
(591,396,cs),
(591,449,o),
(554,482,o),
(485,482,cs),
(385,482,o),
(313,421,o),
(213,213,c),
(195,213,l),
(281,480,l),
(259,482,o),
(244,482,o),
(224,482,cs),
(123,482,o),
(60,450,o),
(31,330,c),
(39,327,l),
(76,377,o),
(114,393,o),
(174,393,cs),
(175,393,o),
(177,393,o),
(178,393,c),
(59,0,l),
(172,0,l),
(206,105,l),
(262,276,o),
(348,391,o),
(433,391,cs),
(462,391,o),
(477,379,o),
(477,360,cs),
(477,345,o),
(476,331,o),
(464,293,cs),
(384,37,ls),
(334,-124,o),
(306,-144,o),
(274,-144,cs),
(268,-144,o),
(255,-132,o),
(242,-119,cs),
(228,-106,o),
(215,-93,o),
(212,-93,cs),
(186,-93,o),
(161,-117,o),
(161,-152,cs),
(161,-188,o),
(183,-214,o),
(244,-214,cs)
);
}
);
width = 631;
},
{
layerId = "48B243E4-A9BC-4CE2-9E97-0DBF8BE24EDB";
shapes = (
{
closed = 1;
nodes = (
(389,-214,o),
(490,-130,o),
(562,77,cs),
(625,261,ls),
(647,326,o),
(651,366,o),
(651,393,cs),
(651,450,o),
(614,489,o),
(539,489,cs),
(433,489,o),
(362,432,o),
(262,213,c),
(244,213,l),
(326,485,l),
(292,487,o),
(275,487,o),
(243,487,cs),
(124,487,o),
(57,450,o),
(26,311,c),
(42,307,l),
(80,365,o),
(109,376,o),
(169,376,cs),
(171,376,o),
(173,376,o),
(174,376,c),
(60,0,l),
(227,0,l),
(257,91,l),
(319,276,o),
(381,365,o),
(447,365,cs),
(469,365,o),
(479,355,o),
(479,339,cs),
(479,324,o),
(477,308,o),
(462,260,cs),
(371,-27,ls),
(339,-130,o),
(324,-142,o),
(299,-142,cs),
(293,-142,o),
(281,-127,o),
(268,-110,cs),
(255,-94,o),
(243,-78,o),
(238,-78,cs),
(198,-78,o),
(174,-104,o),
(174,-143,cs),
(174,-187,o),
(203,-214,o),
(279,-214,cs)
);
}
);
width = 688;
}
);
unicode = 331;
},
{
glyphname = o;
kernLeft = o;
kernRight = o;
layers = (
{
anchors = (
{
name = bottom;
pos = (202,0);
},
{
name = horn;
pos = (436,472);
},
{
name = right;
pos = (271,0);
},
{
name = top;
pos = (345,472);
}
);
layerId = master01;
shapes = (
{
closed = 1;
nodes = (
(158,482,o),
(36,330,o),
(36,158,cs),
(36,61,o),
(97,-10,o),
(222,-10,cs),
(395,-10,o),
(517,142,o),
(517,314,cs),
(517,411,o),
(456,482,o),
(331,482,cs)
);
},
{
closed = 1;
nodes = (
(175,61,o),
(146,92,o),
(146,148,cs),
(146,279,o),
(215,412,o),
(327,412,cs),
(378,412,o),
(407,381,o),
(407,325,cs),
(407,193,o),
(338,61,o),
(226,61,cs)
);
}
);
width = 554;
},
{
anchors = (
{
name = bottom;
pos = (227,0);
},
{
name = horn;
pos = (439,476);
},
{
name = right;
pos = (313,0);
},
{
name = top;
pos = (357,476);
}
);
layerId = "48B243E4-A9BC-4CE2-9E97-0DBF8BE24EDB";
shapes = (
{
closed = 1;
nodes = (
(146,489,o),
(33,334,o),
(33,172,cs),
(33,69,o),
(97,-12,o),
(246,-12,cs),
(444,-12,o),
(557,142,o),
(557,304,cs),
(557,408,o),
(494,489,o),
(345,489,cs)
);
},
{
closed = 1;
nodes = (
(214,86,o),
(194,107,o),
(194,158,cs),
(194,259,o),
(246,391,o),
(336,391,cs),
(376,391,o),
(397,369,o),
(397,319,cs),
(397,217,o),
(345,86,o),
(255,86,cs)
);
}
);
width = 591;
}
);
unicode = 111;
},
{
glyphname = oslash;
kernLeft = o;
kernRight = o;
layers = (
{
anchors = (
{
name = bottom;
pos = (214,0);
},
{
name = top;
pos = (357,472);
}
);
layerId = master01;
shapes = (
{
closed = 1;
nodes = (
(170,482,o),
(47,330,o),
(47,158,cs),
(47,61,o),
(108,-10,o),
(233,-10,cs),
(406,-10,o),
(529,142,o),
(529,314,cs),
(529,411,o),
(468,482,o),
(343,482,cs)
);
},
{
closed = 1;
nodes = (
(187,61,o),
(157,92,o),
(157,148,cs),
(157,279,o),
(227,412,o),
(338,412,cs),
(389,412,o),
(419,381,o),
(419,325,cs),
(419,193,o),
(349,61,o),
(238,61,cs)
);
},
{
closed = 1;
nodes = (
(448,411,l),
(429,397,l),
(107,108,l),
(84,95,l),
(-27,0,l),
(56,0,l),
(128,61,l),
(147,75,l),
(469,364,l),
(492,378,l),
(603,472,l),
(519,472,l)
);
}
);
width = 577;
},
{
anchors = (
{
name = bottom;
pos = (237,0);
},
{
name = top;
pos = (367,476);
}
);
layerId = "48B243E4-A9BC-4CE2-9E97-0DBF8BE24EDB";
shapes = (
{
closed = 1;
nodes = (
(157,489,o),
(44,334,o),
(44,172,cs),
(44,69,o),
(107,-12,o),
(256,-12,cs),
(455,-12,o),
(568,142,o),
(568,304,cs),
(568,408,o),
(505,489,o),
(355,489,cs)
);
},
{
closed = 1;
nodes = (
(225,86,o),
(204,107,o),
(204,158,cs),
(204,259,o),
(257,391,o),
(346,391,cs),
(387,391,o),
(407,369,o),
(407,319,cs),
(407,217,o),
(355,86,o),
(266,86,cs)
);
},
{
closed = 1;
nodes = (
(473,410,l),
(447,401,l),
(130,118,l),
(100,109,l),
(-37,0,l),
(56,0,l),
(138,66,l),
(165,76,l),
(481,358,l),
(512,368,l),
(648,476,l),
(556,476,l)
);
}
);
width = 611;
}
);
unicode = 248;
},
{
glyphname = oe;
kernLeft = o;
kernRight = e;
layers = (
{
anchors = (
{
name = bottom;
pos = (372,0);
},
{
name = top;
pos = (508,472);
}
);
layerId = master01;
shapes = (
{
closed = 1;
nodes = (
(158,482,o),
(36,330,o),
(36,158,cs),
(36,61,o),
(97,-10,o),
(222,-10,cs),
(323,-10,o),
(406,50,o),
(456,130,c),
(403,130,l),
(412,45,o),
(461,-10,o),
(561,-10,cs),
(654,-10,o),
(736,33,o),
(798,162,c),
(750,162,l),
(708,96,o),
(655,70,o),
(595,70,cs),
(528,70,o),
(501,96,o),
(501,181,cs),
(501,333,o),
(585,424,o),
(677,424,cs),
(720,424,o),
(742,400,o),
(742,362,cs),
(742,311,o),
(735,297,o),
(485,255,c),
(482,209,l),
(583,219,o),
(703,239,o),
(814,269,c),
(831,298,o),
(841,334,o),
(841,365,cs),
(841,431,o),
(801,482,o),
(697,482,cs),
(594,482,o),
(501,426,o),
(446,346,c),
(505,346,l),
(490,421,o),
(438,482,o),
(331,482,cs)
);
},
{
closed = 1;
nodes = (
(175,61,o),
(146,92,o),
(146,148,cs),
(146,279,o),
(215,412,o),
(327,412,cs),
(378,412,o),
(407,381,o),
(407,325,cs),
(407,193,o),
(338,61,o),
(226,61,cs)
);
}
);
width = 859;
},
{
anchors = (
{
name = bottom;
pos = (405,0);
},
{
name = top;
pos = (522,476);
}
);
layerId = "48B243E4-A9BC-4CE2-9E97-0DBF8BE24EDB";
shapes = (
{
closed = 1;
nodes = (
(146,489,o),
(33,334,o),
(33,172,cs),
(33,69,o),
(97,-12,o),
(246,-12,cs),
(356,-12,o),
(438,45,o),
(482,120,c),
(406,120,l),
(421,43,o),
(467,-12,o),
(575,-12,cs),
(686,-12,o),
(775,35,o),
(839,175,c),
(790,175,l),
(749,117,o),
(700,95,o),
(640,95,cs),
(568,95,o),
(545,122,o),
(545,204,cs),
(545,350,o),
(619,420,o),
(695,420,cs),
(731,420,o),
(747,402,o),
(747,371,cs),
(747,316,o),
(739,303,o),
(506,258,c),
(503,210,l),
(613,220,o),
(740,238,o),
(856,266,c),
(876,303,o),
(884,338,o),
(884,370,cs),
(884,436,o),
(837,489,o),
(716,489,cs),
(602,489,o),
(510,437,o),
(452,366,c),
(536,366,l),
(514,429,o),
(462,489,o),
(345,489,cs)
);
},
{
closed = 1;
nodes = (
(214,86,o),
(194,107,o),
(194,158,cs),
(194,259,o),
(246,391,o),
(336,391,cs),
(376,391,o),
(397,369,o),
(397,319,cs),
(397,217,o),
(345,86,o),
(255,86,cs)
);
}
);
width = 895;
}
);
unicode = 339;
},
{
glyphname = p;
kernLeft = n;
kernRight = p;
layers = (
{
anchors = (
{
name = bottom;
pos = (53,-204);
},
{
name = top;
pos = (383,472);
}
);
layerId = master01;
shapes = (
{
closed = 1;
nodes = (
(220,204,ls),
(243,287,o),
(336,401,o),
(408,401,cs),
(450,401,o),
(474,378,o),
(474,316,cs),
(474,191,o),
(392,47,o),
(285,47,cs),
(226,47,o),
(197,74,o),
(197,111,cs),
(197,118,o),
(199,126,o),
(201,136,cs)
);
},
{
closed = 1;
nodes = (
(160,18,o),
(212,-10,o),
(286,-10,cs),
(456,-10,o),
(590,159,o),
(590,339,cs),
(590,424,o),
(544,482,o),
(458,482,cs),
(384,482,o),
(313,432,o),
(236,305,c),
(224,305,l),
(281,480,l),
(261,482,o),
(246,482,o),
(226,482,cs),
(124,482,o),
(59,450,o),
(30,330,c),
(38,327,l),
(75,377,o),
(113,394,o),
(174,394,cs),
(176,394,o),
(178,394,o),
(179,394,c),
(18,-144,l),
(-51,-162,l),
(-63,-204,l),
(196,-204,l),
(209,-162,l),
(125,-144,l),
(189,71,l),
(153,71,l)
);
}
);
width = 620;
},
{
anchors = (
{
name = bottom;
pos = (86,-201);
},
{
name = top;
pos = (401,476);
}
);
layerId = "48B243E4-A9BC-4CE2-9E97-0DBF8BE24EDB";
shapes = (
{
closed = 1;
nodes = (
(273,203,ls),
(296,285,o),
(365,379,o),
(422,379,cs),
(453,379,o),
(469,359,o),
(469,312,cs),
(469,190,o),
(396,58,o),
(314,58,cs),
(273,58,o),
(252,80,o),
(252,112,cs),
(252,120,o),
(253,129,o),
(257,145,cs)
);
},
{
closed = 1;
nodes = (
(183,17,o),
(241,-12,o),
(324,-12,cs),
(499,-12,o),
(642,155,o),
(642,338,cs),
(642,429,o),
(595,489,o),
(503,489,cs),
(419,489,o),
(352,435,o),
(282,305,c),
(267,305,l),
(325,485,l),
(299,487,o),
(280,488,o),
(246,488,cs),
(126,488,o),
(54,450,o),
(23,312,c),
(37,307,l),
(76,365,o),
(106,377,o),
(168,377,cs),
(171,377,o),
(173,377,o),
(176,376,c),
(24,-139,l),
(-36,-155,l),
(-49,-201,l),
(247,-201,l),
(261,-155,l),
(185,-139,l),
(248,75,l),
(177,75,l)
);
}
);
width = 667;
}
);
unicode = 112;
},
{
glyphname = thorn;
kernLeft = h;
kernRight = p;
layers = (
{
layerId = master01;
shapes = (
{
closed = 1;
nodes = (
(176,204,ls),
(199,287,o),
(292,401,o),
(364,401,cs),
(406,401,o),
(429,378,o),
(429,316,cs),
(429,191,o),
(348,47,o),
(240,47,cs),
(182,47,o),
(153,74,o),
(153,111,cs),
(153,118,o),
(154,126,o),
(157,136,cs)
);
},
{
closed = 1;
nodes = (
(325,683,l),
(304,683,l),
(105,648,l),
(96,612,l),
(123,600,o),
(171,578,o),
(188,570,c),
(-27,-144,l),
(-96,-162,l),
(-108,-204,l),
(152,-204,l),
(165,-162,l),
(80,-144,l),
(145,71,l),
(108,71,l),
(115,18,o),
(168,-10,o),
(242,-10,cs),
(411,-10,o),
(545,159,o),
(545,339,cs),
(545,424,o),
(499,482,o),
(413,482,cs),
(339,482,o),
(268,432,o),
(192,305,c),
(180,305,l)
);
}
);
width = 576;
},
{
layerId = "48B243E4-A9BC-4CE2-9E97-0DBF8BE24EDB";
shapes = (
{
closed = 1;
nodes = (
(220,203,ls),
(243,285,o),
(312,379,o),
(369,379,cs),
(400,379,o),
(417,359,o),
(417,312,cs),
(417,190,o),
(343,58,o),
(261,58,cs),
(220,58,o),
(199,80,o),
(199,112,cs),
(199,120,o),
(200,129,o),
(205,145,cs)
);
},
{
closed = 1;
nodes = (
(366,685,l),
(340,685,l),
(91,643,l),
(80,598,l),
(106,582,o),
(156,553,o),
(172,543,c),
(-29,-139,l),
(-88,-155,l),
(-102,-201,l),
(194,-201,l),
(208,-155,l),
(133,-139,l),
(195,75,l),
(124,75,l),
(130,17,o),
(188,-12,o),
(271,-12,cs),
(446,-12,o),
(589,155,o),
(589,338,cs),
(589,429,o),
(542,489,o),
(450,489,cs),
(366,489,o),
(300,435,o),
(229,305,c),
(214,305,l)
);
}
);
width = 614;
}
);
unicode = 254;
},
{
glyphname = q;
kernLeft = a;
layers = (
{
anchors = (
{
name = bottom;
pos = (328,-204);
},
{
name = top;
pos = (383,472);
}
);
layerId = master01;
shapes = (
{
closed = 1;
nodes = (
(204,-162,l),
(192,-204,l),
(456,-204,l),
(469,-162,l),
(401,-144,l),
(577,472,l),
(502,472,l),
(452,388,l),
(425,310,ls),
(381,184,o),
(268,65,o),
(195,65,cs),
(155,65,o),
(130,85,o),
(130,125,cs),
(130,231,o),
(239,418,o),
(360,418,cs),
(398,418,o),
(431,401,o),
(455,349,c),
(459,377,l),
(443,445,o),
(404,482,o),
(339,482,cs),
(165,482,o),
(18,262,o),
(18,108,cs),
(18,30,o),
(73,-10,o),
(145,-10,cs),
(208,-10,o),
(274,10,o),
(381,169,c),
(393,169,l),
(291,-145,l)
);
}
);
width = 585;
},
{
anchors = (
{
name = bottom;
pos = (360,-201);
},
{
name = top;
pos = (408,476);
}
);
layerId = "48B243E4-A9BC-4CE2-9E97-0DBF8BE24EDB";
shapes = (
{
closed = 1;
nodes = (
(221,-155,l),
(207,-201,l),
(506,-201,l),
(521,-155,l),
(463,-137,l),
(634,476,l),
(513,476,l),
(453,389,l),
(423,313,ls),
(382,208,o),
(291,90,o),
(231,90,cs),
(200,90,o),
(182,104,o),
(182,134,cs),
(182,227,o),
(290,400,o),
(380,400,cs),
(411,400,o),
(436,387,o),
(456,339,c),
(466,364,l),
(446,447,o),
(405,489,o),
(337,489,cs),
(176,489,o),
(16,283,o),
(16,117,cs),
(16,30,o),
(80,-12,o),
(150,-12,cs),
(224,-12,o),
(285,13,o),
(394,187,c),
(408,187,l),
(294,-139,l)
);
}
);
width = 638;
}
);
unicode = 113;
},
{
glyphname = r;
kernLeft = n;
kernRight = r;
layers = (
{
anchors = (
{
name = bottom;
pos = (116,0);
},
{
name = top;
pos = (323,472);
}
);
layerId = master01;
shapes = (
{
closed = 1;
nodes = (
(59,0,l),
(172,0,l),
(208,112,ls),
(254,258,o),
(341,384,o),
(398,384,cs),
(405,384,o),
(420,371,o),
(434,358,cs),
(449,346,o),
(463,332,o),
(465,332,cs),
(486,332,o),
(538,365,o),
(538,422,cs),
(538,455,o),
(515,482,o),
(462,482,cs),
(385,482,o),
(316,424,o),
(221,238,c),
(204,238,l),
(282,480,l),
(262,482,o),
(246,482,o),
(224,482,cs),
(123,482,o),
(60,450,o),
(31,330,c),
(39,327,l),
(76,377,o),
(114,393,o),
(174,393,cs),
(175,393,o),
(177,393,o),
(178,393,c)
);
}
);
width = 502;
},
{
anchors = (
{
name = bottom;
pos = (144,0);
},
{
name = top;
pos = (347,476);
}
);
layerId = "48B243E4-A9BC-4CE2-9E97-0DBF8BE24EDB";
shapes = (
{
closed = 1;
nodes = (
(60,0,l),
(227,0,l),
(258,94,ls),
(311,260,o),
(378,363,o),
(435,363,cs),
(446,363,o),
(462,350,o),
(478,337,cs),
(493,323,o),
(509,308,o),
(513,308,cs),
(547,308,o),
(599,355,o),
(599,414,cs),
(599,457,o),
(571,489,o),
(512,489,cs),
(423,489,o),
(355,421,o),
(266,224,c),
(247,224,l),
(327,485,l),
(298,487,o),
(281,487,o),
(243,487,cs),
(124,487,o),
(57,450,o),
(26,311,c),
(42,307,l),
(80,365,o),
(109,376,o),
(169,376,cs),
(171,376,o),
(173,376,o),
(174,376,c)
);
}
);
width = 563;
}
);
unicode = 114;
},
{
glyphname = s;
kernLeft = s;
kernRight = s;
layers = (
{
anchors = (
{
name = bottom;
pos = (191,0);
},
{
name = top;
pos = (287,472);
}
);
layerId = master01;
shapes = (
{
closed = 1;
nodes = (
(32,141,o),
(12,117,o),
(12,75,cs),
(12,27,o),
(52,-10,o),
(161,-10,cs),
(299,-10,o),
(393,49,o),
(393,154,cs),
(393,212,o),
(372,252,o),
(283,284,cs),
(194,317,o),
(182,332,o),
(182,363,cs),
(182,401,o),
(223,426,o),
(284,426,cs),
(305,426,o),
(318,424,o),
(329,414,cs),
(341,404,o),
(349,383,o),
(357,344,cs),
(415,344,o),
(443,368,o),
(443,405,cs),
(443,456,o),
(395,482,o),
(304,482,cs),
(173,482,o),
(90,422,o),
(90,329,cs),
(90,272,o),
(115,239,o),
(201,212,cs),
(286,185,o),
(303,164,o),
(303,128,cs),
(303,75,o),
(250,46,o),
(179,46,cs),
(156,46,o),
(143,48,o),
(132,59,cs),
(121,70,o),
(115,94,o),
(109,141,cs)
);
}
);
width = 460;
},
{
anchors = (
{
name = bottom;
pos = (212,0);
},
{
name = top;
pos = (313,476);
}
);
layerId = "48B243E4-A9BC-4CE2-9E97-0DBF8BE24EDB";
shapes = (
{
closed = 1;
nodes = (
(27,146,o),
(5,124,o),
(5,78,cs),
(5,27,o),
(50,-12,o),
(179,-12,cs),
(352,-12,o),
(444,48,o),
(444,170,cs),
(444,237,o),
(414,272,o),
(324,300,cs),
(233,328,o),
(222,342,o),
(222,371,cs),
(222,404,o),
(250,423,o),
(313,423,cs),
(335,423,o),
(351,420,o),
(364,409,cs),
(378,398,o),
(387,376,o),
(395,340,cs),
(472,340,o),
(496,362,o),
(496,406,cs),
(496,457,o),
(450,488,o),
(332,488,cs),
(173,488,o),
(84,424,o),
(84,323,cs),
(84,249,o),
(116,217,o),
(206,193,cs),
(296,168,o),
(312,153,o),
(312,119,cs),
(312,77,o),
(273,54,o),
(198,54,cs),
(169,54,o),
(152,57,o),
(140,69,cs),
(128,81,o),
(123,104,o),
(119,146,cs)
);
}
);
width = 504;
}
);
unicode = 115;
},
{
glyphname = scedilla;
kernLeft = s;
kernRight = s;
layers = (
{
layerId = master01;
shapes = (
{
closed = 1;
nodes = (
(197,-214,o),
(239,-171,o),
(239,-115,cs),
(239,-83,o),
(216,-59,o),
(145,-45,c),
(141,-79,l),
(237,11,l),
(188,11,l),
(90,-84,l),
(86,-96,l),
(152,-106,o),
(170,-118,o),
(170,-136,cs),
(170,-162,o),
(151,-179,o),
(115,-179,cs),
(83,-179,o),
(67,-155,o),
(59,-155,cs),
(45,-155,o),
(35,-168,o),
(35,-183,cs),
(35,-203,o),
(51,-214,o),
(99,-214,c)
);
},
{
closed = 1;
nodes = (
(32,141,o),
(12,117,o),
(12,75,cs),
(12,27,o),
(52,-10,o),
(161,-10,cs),
(299,-10,o),
(393,49,o),
(393,154,cs),
(393,212,o),
(372,252,o),
(283,284,cs),
(194,317,o),
(182,332,o),
(182,363,cs),
(182,401,o),
(223,426,o),
(284,426,cs),
(305,426,o),
(318,424,o),
(329,414,cs),
(341,404,o),
(349,383,o),
(357,344,cs),
(415,344,o),
(443,368,o),
(443,405,cs),
(443,456,o),
(395,482,o),
(304,482,cs),
(173,482,o),
(90,422,o),
(90,329,cs),
(90,272,o),
(115,239,o),
(201,212,cs),
(286,185,o),
(303,164,o),
(303,128,cs),
(303,75,o),
(250,46,o),
(179,46,cs),
(156,46,o),
(143,48,o),
(132,59,cs),
(121,70,o),
(115,94,o),
(109,141,cs)
);
}
);
width = 460;
},
{
layerId = "48B243E4-A9BC-4CE2-9E97-0DBF8BE24EDB";
shapes = (
{
closed = 1;
nodes = (
(228,-214,o),
(271,-170,o),
(271,-109,cs),
(271,-74,o),
(247,-48,o),
(169,-37,c),
(159,-84,l),
(273,18,l),
(211,18,l),
(99,-84,l),
(94,-101,l),
(164,-108,o),
(181,-118,o),
(181,-135,cs),
(181,-157,o),
(166,-171,o),
(131,-171,cs),
(100,-171,o),
(78,-149,o),
(69,-149,cs),
(54,-149,o),
(42,-162,o),
(42,-180,cs),
(42,-203,o),
(60,-214,o),
(112,-214,c)
);
},
{
closed = 1;
nodes = (
(27,146,o),
(5,124,o),
(5,78,cs),
(5,27,o),
(50,-12,o),
(179,-12,cs),
(352,-12,o),
(444,48,o),
(444,170,cs),
(444,237,o),
(414,272,o),
(324,300,cs),
(233,328,o),
(222,342,o),
(222,371,cs),
(222,404,o),
(250,423,o),
(313,423,cs),
(335,423,o),
(351,420,o),
(364,409,cs),
(378,398,o),
(387,376,o),
(395,340,cs),
(472,340,o),
(496,362,o),
(496,406,cs),
(496,457,o),
(450,488,o),
(332,488,cs),
(173,488,o),
(84,424,o),
(84,323,cs),
(84,249,o),
(116,217,o),
(206,193,cs),
(296,168,o),
(312,153,o),
(312,119,cs),
(312,77,o),
(273,54,o),
(198,54,cs),
(169,54,o),
(152,57,o),
(140,69,cs),
(128,81,o),
(123,104,o),
(119,146,cs)
);
}
);
width = 504;
}
);
unicode = 351;
},
{
glyphname = germandbls;
kernLeft = f;
layers = (
{
layerId = master01;
shapes = (
{
closed = 1;
nodes = (
(241,412,l),
(241,472,l),
(65,472,l),
(65,412,l)
);
},
{
closed = 1;
nodes = (
(308,495,ls),
(328,591,o),
(363,630,o),
(452,630,cs),
(517,630,o),
(541,607,o),
(541,565,cs),
(541,527,o),
(525,497,o),
(464,455,cs),
(403,412,o),
(386,377,o),
(386,334,cs),
(386,290,o),
(404,260,o),
(466,221,cs),
(528,183,o),
(542,160,o),
(542,128,cs),
(542,74,o),
(504,46,o),
(449,46,cs),
(429,46,o),
(416,48,o),
(407,59,cs),
(397,71,o),
(389,94,o),
(384,141,cs),
(310,141,o),
(287,120,o),
(287,75,cs),
(287,27,o),
(326,-10,o),
(431,-10,cs),
(556,-10,o),
(633,51,o),
(633,156,cs),
(633,207,o),
(612,248,o),
(552,287,cs),
(492,327,o),
(481,345,o),
(481,368,cs),
(481,397,o),
(496,417,o),
(558,453,cs),
(619,489,o),
(643,525,o),
(643,575,cs),
(643,640,o),
(594,683,o),
(461,683,cs),
(309,683,o),
(222,610,o),
(193,456,cs),
(110,11,ls),
(85,-116,o),
(43,-157,o),
(-7,-157,cs),
(-25,-157,o),
(-37,-154,o),
(-45,-143,cs),
(-54,-131,o),
(-58,-110,o),
(-61,-73,cs),
(-123,-73,o),
(-149,-95,o),
(-149,-137,cs),
(-149,-185,o),
(-117,-214,o),
(-47,-214,cs),
(85,-214,o),
(182,-110,o),
(229,118,cs)
);
}
);
width = 704;
},
{
layerId = "48B243E4-A9BC-4CE2-9E97-0DBF8BE24EDB";
shapes = (
{
closed = 1;
nodes = (
(258,403,l),
(258,476,l),
(62,476,l),
(62,403,l)
);
},
{
closed = 1;
nodes = (
(364,504,ls),
(381,584,o),
(406,612,o),
(480,612,cs),
(541,612,o),
(563,591,o),
(563,557,cs),
(563,516,o),
(546,487,o),
(489,447,cs),
(430,405,o),
(412,370,o),
(412,325,cs),
(412,282,o),
(432,250,o),
(492,214,cs),
(551,179,o),
(568,155,o),
(568,124,cs),
(568,74,o),
(542,54,o),
(496,54,cs),
(476,54,o),
(462,57,o),
(452,69,cs),
(442,80,o),
(434,103,o),
(431,146,cs),
(341,146,o),
(318,125,o),
(318,78,cs),
(318,26,o),
(359,-12,o),
(477,-12,cs),
(631,-12,o),
(707,53,o),
(707,166,cs),
(707,221,o),
(680,266,o),
(622,304,cs),
(565,341,o),
(549,361,o),
(549,381,cs),
(549,407,o),
(562,424,o),
(625,454,cs),
(687,484,o),
(711,517,o),
(711,567,cs),
(711,636,o),
(658,685,o),
(509,685,cs),
(331,685,o),
(219,611,o),
(190,452,cs),
(103,-32,ls),
(87,-115,o),
(57,-142,o),
(12,-142,cs),
(-5,-142,o),
(-16,-140,o),
(-26,-127,cs),
(-36,-115,o),
(-39,-91,o),
(-41,-49,cs),
(-119,-49,o),
(-152,-73,o),
(-152,-122,cs),
(-152,-182,o),
(-120,-214,o),
(-28,-214,cs),
(112,-214,o),
(229,-107,o),
(288,160,cs)
);
}
);
width = 771;
}
);
unicode = 223;
},
{
glyphname = t;
kernLeft = t;
kernRight = t;
layers = (
{
anchors = (
{
name = bottom;
pos = (167,0);
},
{
name = right;
pos = (359,705);
}
);
layerId = master01;
shapes = (
{
closed = 1;
nodes = (
(426,412,l),
(426,472,l),
(70,472,l),
(69,412,l)
);
},
{
closed = 1;
nodes = (
(341,576,l),
(235,576,l),
(104,158,ls),
(87,107,o),
(81,78,o),
(81,56,cs),
(81,11,o),
(104,-10,o),
(143,-10,cs),
(191,-10,o),
(260,14,o),
(358,105,c),
(331,139,l),
(264,85,o),
(231,74,o),
(211,74,cs),
(198,74,o),
(192,77,o),
(192,93,cs),
(192,104,o),
(198,127,o),
(210,167,cs)
);
}
);
width = 405;
},
{
anchors = (
{
name = bottom;
pos = (188,0);
},
{
name = right;
pos = (422,705);
}
);
layerId = "48B243E4-A9BC-4CE2-9E97-0DBF8BE24EDB";
shapes = (
{
closed = 1;
nodes = (
(487,403,l),
(487,476,l),
(63,476,l),
(62,403,l)
);
},
{
closed = 1;
nodes = (
(409,597,l),
(244,597,l),
(115,207,ls),
(93,141,o),
(84,100,o),
(84,70,cs),
(84,13,o),
(113,-12,o),
(166,-12,cs),
(221,-12,o),
(298,5,o),
(415,114,c),
(385,153,l),
(322,106,o),
(296,99,o),
(276,99,cs),
(262,99,o),
(255,102,o),
(255,120,cs),
(255,133,o),
(259,160,o),
(282,228,cs)
);
}
);
width = 457;
}
);
unicode = 116;
},
{
glyphname = u;
kernLeft = u;
kernRight = u;
layers = (
{
anchors = (
{
name = bottom;
pos = (265,0);
},
{
name = horn;
pos = (585,472);
},
{
name = right;
pos = (554,0);
},
{
name = top;
pos = (379,472);
}
);
layerId = master01;
shapes = (
{
closed = 1;
nodes = (
(372,7,o),
(386,-10,o),
(426,-10,cs),
(466,-10,o),
(536,9,o),
(635,90,c),
(614,125,l),
(543,80,o),
(483,67,o),
(433,72,c),
(460,34,l),
(603,472,l),
(490,472,l),
(421,293,ls),
(352,108,o),
(273,74,o),
(226,74,cs),
(201,74,o),
(184,84,o),
(184,105,cs),
(184,118,o),
(189,137,o),
(200,165,cs),
(292,395,ls),
(316,457,o),
(301,482,o),
(251,482,cs),
(199,482,o),
(125,461,o),
(20,370,c),
(45,334,l),
(111,381,o),
(165,400,o),
(215,399,c),
(196,433,l),
(105,201,ls),
(79,132,o),
(73,101,o),
(73,76,cs),
(73,26,o),
(105,-10,o),
(177,-10,cs),
(259,-10,o),
(319,19,o),
(429,215,c),
(444,215,l),
(386,49,ls)
);
}
);
width = 649;
},
{
anchors = (
{
name = bottom;
pos = (295,0);
},
{
name = horn;
pos = (618,476);
},
{
name = right;
pos = (601,0);
},
{
name = top;
pos = (404,476);
}
);
layerId = "48B243E4-A9BC-4CE2-9E97-0DBF8BE24EDB";
shapes = (
{
closed = 1;
nodes = (
(385,10,o),
(405,-12,o),
(454,-12,cs),
(505,-12,o),
(590,14,o),
(694,101,c),
(668,141,l),
(596,97,o),
(543,84,o),
(477,88,c),
(519,32,l),
(664,476,l),
(496,476,l),
(451,353,ls),
(380,152,o),
(325,106,o),
(278,106,cs),
(259,106,o),
(248,114,o),
(248,131,cs),
(248,144,o),
(253,164,o),
(269,207,cs),
(335,377,ls),
(363,451,o),
(347,489,o),
(277,489,cs),
(204,489,o),
(115,456,o),
(18,362,c),
(47,324,l),
(105,369,o),
(152,388,o),
(220,389,c),
(189,436,l),
(108,219,ls),
(82,149,o),
(74,114,o),
(74,86,cs),
(74,30,o),
(110,-12,o),
(184,-12,cs),
(281,-12,o),
(332,21,o),
(440,215,c),
(457,215,l),
(405,65,ls)
);
}
);
width = 699;
}
);
unicode = 117;
},
{
glyphname = uogonek;
kernLeft = u;
kernRight = u;
layers = (
{
layerId = master01;
shapes = (
{
closed = 1;
nodes = (
(614,125,l),
(543,80,o),
(483,67,o),
(433,72,c),
(460,34,l),
(603,472,l),
(490,472,l),
(421,293,ls),
(352,108,o),
(273,74,o),
(226,74,cs),
(201,74,o),
(184,84,o),
(184,105,cs),
(184,118,o),
(189,137,o),
(200,165,cs),
(292,395,ls),
(316,457,o),
(301,482,o),
(251,482,cs),
(199,482,o),
(125,461,o),
(20,370,c),
(45,334,l),
(111,381,o),
(165,400,o),
(215,399,c),
(196,433,l),
(105,201,ls),
(79,132,o),
(73,101,o),
(73,76,cs),
(73,26,o),
(105,-10,o),
(177,-10,cs),
(259,-10,o),
(319,19,o),
(429,215,c),
(444,215,l),
(386,49,ls),
(372,7,o),
(386,-10,o),
(426,-10,cs),
(448,-10,o),
(479,-4,o),
(521,16,c),
(516,25,l),
(448,-29,ls),
(368,-91,o),
(354,-119,o),
(354,-154,cs),
(354,-187,o),
(373,-214,o),
(418,-214,cs),
(448,-214,o),
(475,-207,o),
(516,-182,c),
(516,-148,l),
(491,-160,o),
(477,-163,o),
(459,-163,cs),
(434,-163,o),
(422,-152,o),
(422,-132,cs),
(422,-108,o),
(432,-81,o),
(500,-25,cs),
(541,9,ls),
(573,35,o),
(604,61,o),
(635,90,c)
);
}
);
width = 651;
},
{
layerId = "48B243E4-A9BC-4CE2-9E97-0DBF8BE24EDB";
shapes = (
{
closed = 1;
nodes = (
(668,141,l),
(596,97,o),
(543,84,o),
(477,88,c),
(519,32,l),
(664,476,l),
(496,476,l),
(451,353,ls),
(380,152,o),
(325,106,o),
(278,106,cs),
(259,106,o),
(248,114,o),
(248,131,cs),
(248,144,o),
(253,164,o),
(269,207,cs),
(335,377,ls),
(363,451,o),
(347,489,o),
(277,489,cs),
(204,489,o),
(115,456,o),
(18,362,c),
(47,324,l),
(105,369,o),
(152,388,o),
(220,389,c),
(189,436,l),
(108,219,ls),
(82,149,o),
(74,114,o),
(74,86,cs),
(74,30,o),
(110,-12,o),
(184,-12,cs),
(281,-12,o),
(332,21,o),
(440,215,c),
(457,215,l),
(405,65,ls),
(385,10,o),
(405,-12,o),
(454,-12,cs),
(477,-12,o),
(508,-6,o),
(547,9,c),
(540,21,l),
(492,-16,ls),
(404,-80,o),
(387,-108,o),
(387,-148,cs),
(387,-184,o),
(407,-214,o),
(459,-214,cs),
(489,-214,o),
(519,-206,o),
(565,-180,c),
(565,-137,l),
(540,-147,o),
(527,-150,o),
(509,-150,cs),
(484,-150,o),
(472,-141,o),
(472,-120,cs),
(472,-99,o),
(479,-78,o),
(540,-28,cs),
(592,14,ls),
(626,42,o),
(660,70,o),
(694,101,c)
);
}
);
width = 703;
}
);
unicode = 371;
},
{
glyphname = v;
layers = (
{
anchors = (
{
name = bottom;
pos = (228,0);
},
{
name = top;
pos = (360,472);
}
);
layerId = master01;
shapes = (
{
closed = 1;
nodes = (
(550,449,o),
(518,482,o),
(471,482,cs),
(425,482,o),
(391,453,o),
(391,405,cs),
(391,379,o),
(469,377,o),
(469,302,cs),
(469,176,o),
(355,67,o),
(257,67,cs),
(214,67,o),
(192,79,o),
(192,109,cs),
(192,120,o),
(195,133,o),
(200,149,cs),
(313,480,l),
(288,482,o),
(269,482,o),
(246,482,cs),
(125,482,o),
(66,450,o),
(33,330,c),
(41,327,l),
(78,377,o),
(116,393,o),
(176,393,cs),
(178,393,o),
(180,393,o),
(181,393,c),
(99,158,ls),
(91,133,o),
(86,110,o),
(86,90,cs),
(86,26,o),
(131,-10,o),
(222,-10,cs),
(385,-10,o),
(550,156,o),
(550,378,cs)
);
}
);
width = 581;
},
{
anchors = (
{
name = bottom;
pos = (269,0);
},
{
name = top;
pos = (394,476);
}
);
layerId = "48B243E4-A9BC-4CE2-9E97-0DBF8BE24EDB";
shapes = (
{
closed = 1;
nodes = (
(600,456,o),
(563,489,o),
(513,489,cs),
(451,489,o),
(421,453,o),
(421,395,cs),
(421,378,o),
(500,375,o),
(500,292,cs),
(500,177,o),
(408,88,o),
(318,88,cs),
(276,88,o),
(257,102,o),
(257,133,cs),
(257,146,o),
(260,162,o),
(266,182,cs),
(367,485,l),
(326,488,o),
(306,489,o),
(268,489,cs),
(115,489,o),
(60,449,o),
(25,311,c),
(41,307,l),
(79,365,o),
(107,376,o),
(167,376,cs),
(170,376,o),
(172,376,o),
(173,376,c),
(109,183,ls),
(100,155,o),
(95,129,o),
(95,106,cs),
(95,29,o),
(149,-12,o),
(259,-12,cs),
(438,-12,o),
(600,151,o),
(600,366,cs)
);
}
);
width = 633;
}
);
unicode = 118;
},
{
glyphname = w;
kernLeft = w;
kernRight = w;
layers = (
{
anchors = (
{
name = bottom;
pos = (366,0);
},
{
name = top;
pos = (507,472);
}
);
layerId = master01;
shapes = (
{
closed = 1;
nodes = (
(404,266,ls),
(359,113,o),
(292,67,o),
(236,67,cs),
(205,67,o),
(188,76,o),
(188,102,cs),
(188,113,o),
(191,126,o),
(196,142,cs),
(312,480,l),
(286,482,o),
(268,482,o),
(244,482,cs),
(123,482,o),
(65,450,o),
(32,330,c),
(40,327,l),
(77,377,o),
(115,393,o),
(175,393,cs),
(177,393,o),
(177,393,o),
(179,393,c),
(98,158,ls),
(89,132,o),
(84,108,o),
(84,88,cs),
(84,26,o),
(124,-10,o),
(195,-10,cs),
(282,-10,o),
(354,45,o),
(426,214,c),
(441,214,l),
(417,134,ls),
(409,110,o),
(405,88,o),
(405,71,cs),
(405,14,o),
(440,-10,o),
(504,-10,cs),
(647,-10,o),
(796,153,o),
(796,378,cs),
(796,450,o),
(765,482,o),
(718,482,cs),
(673,482,o),
(638,451,o),
(638,404,cs),
(638,378,o),
(716,376,o),
(716,302,cs),
(716,180,o),
(612,67,o),
(519,67,cs),
(486,67,o),
(468,78,o),
(468,109,cs),
(468,120,o),
(471,134,o),
(475,150,cs),
(570,472,l),
(465,472,l)
);
}
);
width = 828;
},
{
anchors = (
{
name = bottom;
pos = (421,0);
},
{
name = top;
pos = (555,476);
}
);
layerId = "48B243E4-A9BC-4CE2-9E97-0DBF8BE24EDB";
shapes = (
{
closed = 1;
nodes = (
(428,273,ls),
(388,125,o),
(338,88,o),
(289,88,cs),
(262,88,o),
(249,97,o),
(249,121,cs),
(249,132,o),
(251,145,o),
(257,162,cs),
(363,485,l),
(323,487,o),
(302,489,o),
(264,489,cs),
(112,489,o),
(57,449,o),
(21,311,c),
(37,307,l),
(75,365,o),
(104,376,o),
(164,376,cs),
(166,376,o),
(168,376,o),
(170,376,c),
(106,183,ls),
(95,153,o),
(90,125,o),
(90,100,cs),
(90,30,o),
(132,-12,o),
(216,-12,cs),
(313,-12,o),
(391,43,o),
(460,214,c),
(478,214,l),
(461,144,ls),
(455,122,o),
(453,103,o),
(453,87,cs),
(453,18,o),
(494,-12,o),
(571,-12,cs),
(709,-12,o),
(867,125,o),
(867,366,cs),
(867,460,o),
(835,489,o),
(785,489,cs),
(724,489,o),
(692,446,o),
(692,392,cs),
(692,375,o),
(772,372,o),
(772,292,cs),
(772,174,o),
(685,88,o),
(610,88,cs),
(575,88,o),
(559,102,o),
(559,134,cs),
(559,147,o),
(562,165,o),
(568,186,cs),
(646,476,l),
(485,476,l)
);
}
);
width = 900;
}
);
unicode = 119;
},
{
glyphname = x;
layers = (
{
anchors = (
{
name = bottom;
pos = (223,0);
},
{
name = top;
pos = (368,472);
}
);
layerId = master01;
shapes = (
{
closed = 1;
nodes = (
(388,296,ls),
(436,355,o),
(475,382,o),
(495,382,cs),
(500,382,o),
(512,372,o),
(524,361,cs),
(536,349,o),
(549,338,o),
(553,338,cs),
(570,338,o),
(616,370,o),
(616,420,cs),
(616,455,o),
(591,482,o),
(542,482,cs),
(494,482,o),
(456,461,o),
(393,383,cs),
(303,268,l),
(276,261,l),
(202,176,ls),
(147,111,o),
(113,90,o),
(96,90,cs),
(90,90,o),
(78,101,o),
(65,112,cs),
(53,124,o),
(41,135,o),
(38,135,cs),
(20,135,o),
(-26,102,o),
(-26,53,cs),
(-26,17,o),
(0,-10,o),
(49,-10,cs),
(98,-10,o),
(134,14,o),
(197,89,cs),
(292,206,l),
(322,217,l)
);
},
{
closed = 1;
nodes = (
(537,143,l),
(472,94,o),
(421,72,o),
(405,72,cs),
(399,72,o),
(398,75,o),
(392,94,cs),
(304,417,ls),
(291,465,o),
(277,482,o),
(239,482,cs),
(188,482,o),
(125,441,o),
(51,328,c),
(84,302,l),
(135,362,o),
(181,398,o),
(198,398,cs),
(203,398,o),
(204,394,o),
(208,381,cs),
(296,55,ls),
(309,6,o),
(323,-10,o),
(360,-10,cs),
(398,-10,o),
(460,15,o),
(562,112,c)
);
}
);
width = 598;
},
{
anchors = (
{
name = bottom;
pos = (240,0);
},
{
name = top;
pos = (386,476);
}
);
layerId = "48B243E4-A9BC-4CE2-9E97-0DBF8BE24EDB";
shapes = (
{
closed = 1;
nodes = (
(405,271,ls),
(449,322,o),
(494,363,o),
(518,363,cs),
(527,363,o),
(540,354,o),
(552,344,cs),
(565,334,o),
(577,322,o),
(582,322,cs),
(605,322,o),
(655,362,o),
(655,415,cs),
(655,460,o),
(626,489,o),
(576,489,cs),
(520,489,o),
(484,467,o),
(404,365,cs),
(318,255,l),
(289,281,l),
(222,206,ls),
(156,132,o),
(125,114,o),
(108,114,cs),
(98,114,o),
(85,124,o),
(72,134,cs),
(60,144,o),
(48,154,o),
(44,154,cs),
(21,154,o),
(-28,114,o),
(-28,61,cs),
(-28,17,o),
(0,-12,o),
(50,-12,cs),
(110,-12,o),
(143,17,o),
(222,111,cs),
(308,216,l),
(338,194,l)
);
},
{
closed = 1;
nodes = (
(564,162,l),
(496,112,o),
(454,94,o),
(441,94,cs),
(435,94,o),
(434,97,o),
(430,112,cs),
(358,399,ls),
(342,466,o),
(324,489,o),
(273,489,cs),
(202,489,o),
(135,446,o),
(45,328,c),
(81,295,l),
(143,357,o),
(179,381,o),
(192,381,cs),
(196,381,o),
(197,379,o),
(200,365,cs),
(274,77,ls),
(290,10,o),
(308,-12,o),
(358,-12,cs),
(413,-12,o),
(480,18,o),
(593,125,c)
);
}
);
width = 629;
}
);
unicode = 120;
},
{
glyphname = y;
kernLeft = y;
kernRight = y;
layers = (
{
anchors = (
{
name = bottom;
pos = (427,-57);
},
{
name = top;
pos = (341,472);
}
);
layerId = master01;
shapes = (
{
closed = 1;
nodes = (
(104,343,o),
(142,378,o),
(155,378,cs),
(163,378,o),
(168,366,o),
(187,305,cs),
(206,245,o),
(238,125,o),
(276,-86,c),
(362,-10,l),
(323,231,o),
(280,371,o),
(259,420,cs),
(238,468,o),
(226,482,o),
(200,482,cs),
(158,482,o),
(96,454,o),
(16,279,c),
(58,260,l)
);
},
{
closed = 1;
nodes = (
(231,-101,o),
(167,-132,o),
(124,-132,cs),
(116,-132,o),
(99,-117,o),
(84,-104,cs),
(70,-90,o),
(56,-78,o),
(52,-78,cs),
(23,-78,o),
(-7,-105,o),
(-7,-141,cs),
(-7,-181,o),
(16,-214,o),
(74,-214,cs),
(177,-214,o),
(305,-116,o),
(398,28,cs),
(488,168,o),
(548,313,o),
(572,453,cs),
(575,471,o),
(559,480,o),
(531,481,cs),
(507,481,o),
(488,479,o),
(464,473,c),
(451,252,o),
(388,100,o),
(320,1,c),
(297,-16,l)
);
}
);
width = 579;
},
{
anchors = (
{
name = bottom;
pos = (461,-49);
},
{
name = top;
pos = (362,476);
}
);
layerId = "48B243E4-A9BC-4CE2-9E97-0DBF8BE24EDB";
shapes = (
{
closed = 1;
nodes = (
(101,330,o),
(128,354,o),
(142,354,cs),
(150,354,o),
(157,342,o),
(183,269,cs),
(209,196,o),
(242,84,o),
(284,-107,c),
(402,27,l),
(356,251,o),
(317,374,o),
(292,424,cs),
(267,473,o),
(247,489,o),
(215,489,cs),
(154,489,o),
(96,454,o),
(12,270,c),
(58,249,l)
);
},
{
closed = 1;
nodes = (
(256,-83,o),
(193,-113,o),
(140,-113,cs),
(131,-113,o),
(113,-95,o),
(98,-80,cs),
(83,-64,o),
(69,-51,o),
(64,-51,cs),
(18,-51,o),
(-15,-86,o),
(-15,-128,cs),
(-15,-177,o),
(15,-214,o),
(84,-214,cs),
(190,-214,o),
(316,-129,o),
(420,23,cs),
(513,163,o),
(594,356,o),
(605,456,cs),
(606,474,o),
(593,485,o),
(557,485,cs),
(518,485,o),
(486,481,o),
(467,477,c),
(456,266,o),
(403,112,o),
(327,0,c),
(314,-3,l)
);
}
);
width = 602;
}
);
unicode = 121;
},
{
glyphname = z;
kernLeft = z;
kernRight = z;
layers = (
{
anchors = (
{
name = bottom;
pos = (203,0);
},
{
name = top;
pos = (318,472);
}
);
layerId = master01;
shapes = (
{
closed = 1;
nodes = (
(48,-13,l),
(523,443,l),
(484,485,l),
(10,29,l)
);
},
{
closed = 1;
nodes = (
(165,401,o),
(173,397,o),
(249,367,cs),
(368,321,l),
(442,410,l),
(281,471,ls),
(211,497,o),
(145,490,o),
(49,325,c),
(91,303,l)
);
},
{
closed = 1;
nodes = (
(317,-28,o),
(371,-20,o),
(497,130,c),
(470,158,l),
(376,72,o),
(366,70,o),
(294,108,cs),
(199,159,l),
(113,78,l),
(250,7,ls)
);
}
);
width = 529;
},
{
anchors = (
{
name = bottom;
pos = (219,0);
},
{
name = top;
pos = (332,476);
}
);
layerId = "48B243E4-A9BC-4CE2-9E97-0DBF8BE24EDB";
shapes = (
{
closed = 1;
nodes = (
(47,-13,l),
(561,436,l),
(516,490,l),
(5,41,l)
);
},
{
closed = 1;
nodes = (
(152,371,o),
(160,371,o),
(239,340,cs),
(365,290,l),
(469,414,l),
(292,476,ls),
(209,505,o),
(141,495,o),
(42,322,c),
(89,291,l)
);
},
{
closed = 1;
nodes = (
(337,-33,o),
(408,-20,o),
(540,147,c),
(510,176,l),
(424,102,o),
(406,102,o),
(335,143,cs),
(232,204,l),
(104,90,l),
(260,7,ls)
);
}
);
width = 561;
}
);
unicode = 122;
},
{
glyphname = f_f;
kernLeft = f;
kernRight = f;
layers = (
{
layerId = master01;
shapes = (
{
closed = 1;
nodes = (
(65,472,l),
(65,412,l),
(721,412,l),
(721,472,l)
);
},
{
closed = 1;
nodes = (
(110,11,ls),
(85,-116,o),
(43,-157,o),
(-7,-157,cs),
(-25,-157,o),
(-37,-154,o),
(-45,-143,cs),
(-54,-131,o),
(-58,-110,o),
(-61,-73,cs),
(-123,-73,o),
(-149,-95,o),
(-149,-137,cs),
(-149,-185,o),
(-117,-214,o),
(-47,-214,cs),
(85,-214,o),
(182,-110,o),
(229,118,cs),
(305,478,ls),
(325,575,o),
(365,613,o),
(436,613,cs),
(489,613,o),
(518,588,o),
(517,530,c),
(602,600,l),
(582,636,o),
(538,666,o),
(452,666,cs),
(313,666,o),
(216,581,o),
(190,439,cs)
);
},
{
closed = 1;
nodes = (
(399,22,ls),
(374,-107,o),
(318,-146,o),
(256,-146,cs),
(201,-146,o),
(165,-119,o),
(156,-50,c),
(82,-112,l),
(103,-173,o),
(153,-203,o),
(238,-203,cs),
(376,-203,o),
(463,-118,o),
(514,109,cs),
(598,495,ls),
(618,591,o),
(659,630,o),
(729,630,cs),
(749,630,o),
(761,629,o),
(772,619,cs),
(782,609,o),
(788,588,o),
(793,549,cs),
(857,549,o),
(883,571,o),
(883,612,cs),
(883,655,o),
(842,683,o),
(749,683,cs),
(610,683,o),
(510,597,o),
(483,456,cs)
);
}
);
width = 678;
},
{
layerId = "48B243E4-A9BC-4CE2-9E97-0DBF8BE24EDB";
shapes = (
{
closed = 1;
nodes = (
(62,476,l),
(62,403,l),
(811,403,l),
(811,476,l)
);
},
{
closed = 1;
nodes = (
(103,-32,ls),
(88,-115,o),
(57,-142,o),
(12,-142,cs),
(-5,-142,o),
(-16,-140,o),
(-26,-127,cs),
(-36,-115,o),
(-39,-91,o),
(-41,-49,cs),
(-119,-49,o),
(-152,-73,o),
(-152,-122,cs),
(-152,-182,o),
(-120,-214,o),
(-28,-214,cs),
(112,-214,o),
(229,-107,o),
(288,160,cs),
(359,483,ls),
(377,564,o),
(407,592,o),
(470,592,cs),
(525,592,o),
(549,573,o),
(538,502,c),
(653,591,l),
(626,636,o),
(583,664,o),
(476,664,cs),
(328,664,o),
(215,588,o),
(186,431,cs)
);
},
{
closed = 1;
nodes = (
(429,4,ls),
(409,-96,o),
(367,-127,o),
(305,-127,cs),
(247,-127,o),
(211,-100,o),
(197,-23,c),
(106,-95,l),
(134,-169,o),
(192,-199,o),
(284,-199,cs),
(428,-199,o),
(537,-110,o),
(599,133,cs),
(691,504,ls),
(711,583,o),
(739,612,o),
(803,612,cs),
(826,612,o),
(841,610,o),
(851,599,cs),
(861,589,o),
(866,569,o),
(867,536,cs),
(950,536,o),
(976,558,o),
(976,604,cs),
(976,653,o),
(936,685,o),
(820,685,cs),
(672,685,o),
(550,608,o),
(518,452,cs)
);
}
);
width = 765;
}
);
unicode = 64256;
},
{
glyphname = f_f_i;
kernLeft = f;
kernRight = i;
layers = (
{
layerId = master01;
shapes = (
{
closed = 1;
nodes = (
(110,11,ls),
(85,-116,o),
(43,-157,o),
(-7,-157,cs),
(-25,-157,o),
(-37,-154,o),
(-45,-143,cs),
(-54,-131,o),
(-58,-110,o),
(-61,-73,cs),
(-123,-73,o),
(-149,-95,o),
(-149,-137,cs),
(-149,-185,o),
(-117,-214,o),
(-47,-214,cs),
(85,-214,o),
(181,-110,o),
(229,118,cs),
(305,478,ls),
(325,575,o),
(365,613,o),
(436,613,cs),
(489,613,o),
(518,588,o),
(518,530,c),
(602,600,l),
(582,636,o),
(538,666,o),
(452,666,cs),
(314,666,o),
(216,581,o),
(190,439,cs)
);
},
{
closed = 1;
nodes = (
(399,22,ls),
(374,-107,o),
(318,-146,o),
(256,-146,cs),
(201,-146,o),
(166,-119,o),
(156,-50,c),
(82,-112,l),
(103,-173,o),
(154,-203,o),
(238,-203,cs),
(376,-203,o),
(464,-118,o),
(514,109,cs),
(598,495,ls),
(618,591,o),
(661,630,o),
(736,630,cs),
(767,630,o),
(786,625,o),
(798,612,cs),
(810,599,o),
(815,578,o),
(816,546,cs),
(887,547,o),
(914,569,o),
(914,610,cs),
(914,654,o),
(869,683,o),
(768,683,cs),
(612,683,o),
(510,595,o),
(483,456,cs)
);
},
{
closed = 1;
nodes = (
(811,412,l),
(780,433,l),
(650,76,ls),
(625,6,o),
(637,-10,o),
(689,-10,cs),
(743,-10,o),
(811,10,o),
(909,86,c),
(887,123,l),
(823,83,o),
(771,72,o),
(718,75,c),
(745,40,l),
(909,482,l),
(888,482,l),
(850,475,o),
(823,472,o),
(774,472,cs),
(65,472,l),
(65,412,l)
);
}
);
width = 941;
},
{
layerId = "48B243E4-A9BC-4CE2-9E97-0DBF8BE24EDB";
shapes = (
{
closed = 1;
nodes = (
(103,-32,ls),
(87,-115,o),
(57,-142,o),
(12,-142,cs),
(-5,-142,o),
(-16,-140,o),
(-26,-127,cs),
(-36,-115,o),
(-39,-91,o),
(-41,-49,cs),
(-119,-49,o),
(-152,-73,o),
(-152,-122,cs),
(-152,-182,o),
(-120,-214,o),
(-28,-214,cs),
(112,-214,o),
(229,-107,o),
(288,160,cs),
(359,483,ls),
(377,564,o),
(407,592,o),
(471,592,cs),
(525,592,o),
(550,573,o),
(539,502,c),
(653,591,l),
(626,636,o),
(584,664,o),
(477,664,cs),
(328,664,o),
(215,588,o),
(186,431,cs)
);
},
{
closed = 1;
nodes = (
(429,4,ls),
(409,-96,o),
(367,-127,o),
(305,-127,cs),
(247,-127,o),
(211,-100,o),
(197,-23,c),
(106,-95,l),
(134,-169,o),
(192,-199,o),
(284,-199,cs),
(429,-199,o),
(537,-110,o),
(599,133,cs),
(692,504,ls),
(711,581,o),
(748,612,o),
(823,612,cs),
(860,612,o),
(882,606,o),
(894,594,cs),
(905,581,o),
(910,562,o),
(910,534,cs),
(1005,535,o),
(1031,557,o),
(1031,603,cs),
(1031,652,o),
(983,685,o),
(856,685,cs),
(677,685,o),
(549,601,o),
(519,452,cs)
);
},
{
closed = 1;
nodes = (
(879,403,l),
(851,436,l),
(731,98,ls),
(701,11,o),
(716,-12,o),
(783,-12,cs),
(858,-12,o),
(940,14,o),
(1044,96,c),
(1019,137,l),
(953,99,o),
(905,87,o),
(832,93,c),
(880,41,l),
(1045,489,l),
(1014,489,l),
(963,480,o),
(918,476,o),
(863,476,cs),
(62,476,l),
(62,403,l)
);
}
);
width = 1067;
}
);
unicode = 64259;
},
{
glyphname = f_f_l;
kernLeft = f;
kernRight = l;
layers = (
{
layerId = master01;
shapes = (
{
closed = 1;
nodes = (
(710,412,l),
(710,472,l),
(65,472,l),
(65,412,l)
);
},
{
closed = 1;
nodes = (
(103,-173,o),
(154,-203,o),
(238,-203,cs),
(376,-203,o),
(464,-118,o),
(514,109,cs),
(598,495,ls),
(618,591,o),
(661,630,o),
(740,630,cs),
(802,630,o),
(837,609,o),
(836,560,cs),
(685,75,ls),
(664,8,o),
(678,-10,o),
(726,-10,cs),
(780,-10,o),
(851,9,o),
(952,87,c),
(930,124,l),
(880,92,o),
(833,79,o),
(792,76,c),
(981,683,l),
(960,683,l),
(850,642,l),
(906,632,l),
(882,660,o),
(839,683,o),
(760,683,cs),
(615,683,o),
(511,604,o),
(483,456,cs),
(399,22,ls),
(374,-107,o),
(318,-146,o),
(256,-146,cs),
(201,-146,o),
(166,-119,o),
(156,-50,c),
(82,-112,l)
);
},
{
closed = 1;
nodes = (
(305,478,ls),
(325,575,o),
(365,613,o),
(436,613,cs),
(489,613,o),
(518,588,o),
(518,530,c),
(602,600,l),
(582,636,o),
(538,666,o),
(452,666,cs),
(314,666,o),
(216,581,o),
(190,439,cs),
(110,11,ls),
(85,-116,o),
(43,-157,o),
(-7,-157,cs),
(-25,-157,o),
(-37,-154,o),
(-45,-143,cs),
(-54,-131,o),
(-58,-110,o),
(-61,-73,cs),
(-123,-73,o),
(-149,-95,o),
(-149,-137,cs),
(-149,-185,o),
(-117,-214,o),
(-47,-214,cs),
(85,-214,o),
(181,-110,o),
(229,118,cs)
);
}
);
width = 973;
},
{
layerId = "48B243E4-A9BC-4CE2-9E97-0DBF8BE24EDB";
shapes = (
{
closed = 1;
nodes = (
(791,403,l),
(791,476,l),
(62,476,l),
(62,403,l)
);
},
{
closed = 1;
nodes = (
(134,-169,o),
(192,-199,o),
(284,-199,cs),
(429,-199,o),
(537,-110,o),
(599,133,cs),
(692,504,ls),
(711,581,o),
(748,612,o),
(814,612,cs),
(875,612,o),
(901,592,o),
(893,540,cs),
(753,97,ls),
(728,19,o),
(750,-12,o),
(807,-12,cs),
(882,-12,o),
(962,11,o),
(1075,99,c),
(1050,140,l),
(1004,112,o),
(962,98,o),
(918,95,c),
(1105,685,l),
(1079,685,l),
(918,633,l),
(1013,602,l),
(1002,644,o),
(969,685,o),
(837,685,cs),
(689,685,o),
(551,611,o),
(519,452,cs),
(429,4,ls),
(409,-96,o),
(367,-127,o),
(305,-127,cs),
(247,-127,o),
(211,-100,o),
(197,-23,c),
(106,-95,l)
);
},
{
closed = 1;
nodes = (
(359,483,ls),
(377,564,o),
(407,592,o),
(471,592,cs),
(525,592,o),
(550,573,o),
(539,502,c),
(653,591,l),
(626,636,o),
(584,664,o),
(477,664,cs),
(328,664,o),
(215,588,o),
(186,431,cs),
(103,-32,ls),
(87,-115,o),
(57,-142,o),
(12,-142,cs),
(-5,-142,o),
(-16,-140,o),
(-26,-127,cs),
(-36,-115,o),
(-39,-91,o),
(-41,-49,cs),
(-119,-49,o),
(-152,-73,o),
(-152,-122,cs),
(-152,-182,o),
(-120,-214,o),
(-28,-214,cs),
(112,-214,o),
(229,-107,o),
(288,160,cs)
);
}
);
width = 1086;
}
);
unicode = 64260;
},
{
glyphname = fi;
kernLeft = f;
kernRight = i;
layers = (
{
layerId = master01;
shapes = (
{
closed = 1;
nodes = (
(521,412,l),
(490,433,l),
(361,76,ls),
(336,6,o),
(347,-10,o),
(399,-10,cs),
(453,-10,o),
(522,10,o),
(619,86,c),
(597,123,l),
(533,83,o),
(481,72,o),
(429,75,c),
(456,40,l),
(619,482,l),
(598,482,l),
(560,475,o),
(534,472,o),
(484,472,cs),
(65,472,l),
(65,412,l)
);
},
{
closed = 1;
nodes = (
(309,495,ls),
(329,591,o),
(372,630,o),
(446,630,cs),
(477,630,o),
(497,625,o),
(509,612,cs),
(520,599,o),
(526,578,o),
(526,546,cs),
(598,547,o),
(625,569,o),
(625,610,cs),
(625,654,o),
(579,683,o),
(478,683,cs),
(322,683,o),
(220,595,o),
(193,456,cs),
(107,11,ls),
(83,-116,o),
(41,-157,o),
(-9,-157,cs),
(-28,-157,o),
(-39,-154,o),
(-48,-143,cs),
(-56,-131,o),
(-60,-110,o),
(-63,-73,cs),
(-125,-73,o),
(-151,-95,o),
(-151,-137,cs),
(-151,-185,o),
(-120,-214,o),
(-49,-214,cs),
(82,-214,o),
(177,-109,o),
(227,118,cs)
);
}
);
width = 652;
},
{
layerId = "48B243E4-A9BC-4CE2-9E97-0DBF8BE24EDB";
shapes = (
{
closed = 1;
nodes = (
(552,403,l),
(524,436,l),
(404,98,ls),
(374,11,o),
(389,-12,o),
(456,-12,cs),
(530,-12,o),
(613,14,o),
(716,96,c),
(691,137,l),
(626,99,o),
(578,87,o),
(505,93,c),
(552,41,l),
(717,489,l),
(686,489,l),
(636,480,o),
(591,476,o),
(535,476,cs),
(63,476,l),
(63,403,l)
);
},
{
closed = 1;
nodes = (
(365,504,ls),
(383,581,o),
(420,612,o),
(496,612,cs),
(533,612,o),
(555,606,o),
(566,594,cs),
(578,581,o),
(583,562,o),
(583,534,cs),
(677,535,o),
(703,557,o),
(703,603,cs),
(703,652,o),
(655,685,o),
(528,685,cs),
(350,685,o),
(221,601,o),
(191,452,cs),
(95,-32,ls),
(79,-115,o),
(49,-142,o),
(4,-142,cs),
(-13,-142,o),
(-25,-140,o),
(-34,-127,cs),
(-44,-115,o),
(-47,-91,o),
(-49,-49,cs),
(-127,-49,o),
(-160,-73,o),
(-160,-122,cs),
(-160,-182,o),
(-128,-214,o),
(-37,-214,cs),
(104,-214,o),
(213,-105,o),
(280,160,cs)
);
}
);
width = 739;
}
);
unicode = 64257;
},
{
glyphname = fl;
kernLeft = f;
kernRight = l;
layers = (
{
layerId = master01;
shapes = (
{
closed = 1;
nodes = (
(421,412,l),
(421,472,l),
(65,472,l),
(65,412,l)
);
},
{
closed = 1;
nodes = (
(309,495,ls),
(329,591,o),
(372,630,o),
(451,630,cs),
(513,630,o),
(548,609,o),
(546,560,cs),
(396,75,ls),
(375,8,o),
(388,-10,o),
(437,-10,cs),
(491,-10,o),
(562,9,o),
(663,87,c),
(641,124,l),
(591,92,o),
(544,79,o),
(503,76,c),
(692,683,l),
(671,683,l),
(560,642,l),
(617,632,l),
(592,660,o),
(550,683,o),
(471,683,cs),
(326,683,o),
(222,604,o),
(194,456,cs),
(107,11,ls),
(83,-116,o),
(41,-157,o),
(-9,-157,cs),
(-28,-157,o),
(-39,-154,o),
(-48,-143,cs),
(-56,-131,o),
(-60,-110,o),
(-63,-73,cs),
(-125,-73,o),
(-151,-95,o),
(-151,-137,cs),
(-151,-185,o),
(-120,-214,o),
(-49,-214,cs),
(82,-214,o),
(177,-109,o),
(227,118,cs)
);
}
);
width = 684;
},
{
layerId = "48B243E4-A9BC-4CE2-9E97-0DBF8BE24EDB";
shapes = (
{
closed = 1;
nodes = (
(464,403,l),
(464,476,l),
(63,476,l),
(63,403,l)
);
},
{
closed = 1;
nodes = (
(365,504,ls),
(384,581,o),
(421,612,o),
(487,612,cs),
(549,612,o),
(574,592,o),
(566,540,cs),
(426,97,ls),
(401,19,o),
(424,-12,o),
(480,-12,cs),
(555,-12,o),
(635,11,o),
(749,99,c),
(724,140,l),
(678,112,o),
(636,98,o),
(591,95,c),
(779,685,l),
(753,685,l),
(591,633,l),
(687,602,l),
(676,644,o),
(643,685,o),
(511,685,cs),
(362,685,o),
(224,611,o),
(192,452,cs),
(95,-32,ls),
(79,-115,o),
(49,-142,o),
(4,-142,cs),
(-13,-142,o),
(-25,-140,o),
(-34,-127,cs),
(-44,-115,o),
(-47,-91,o),
(-49,-49,cs),
(-127,-49,o),
(-160,-73,o),
(-160,-122,cs),
(-160,-182,o),
(-128,-214,o),
(-37,-214,cs),
(104,-214,o),
(213,-105,o),
(280,160,cs)
);
}
);
width = 759;
}
);
unicode = 64258;
},
{
glyphname = ordfeminine;
layers = (
{
layerId = master01;
shapes = (
{
closed = 1;
nodes = (
(407,225,l),
(428,294,l),
(110,294,l),
(89,225,l)
);
},
{
closed = 1;
nodes = (
(322,360,o),
(334,350,o),
(366,350,cs),
(401,350,o),
(437,358,o),
(499,398,c),
(491,421,l),
(443,401,o),
(415,398,o),
(375,401,c),
(408,369,l),
(505,650,l),
(423,650,l),
(393,599,l),
(373,546,ls),
(348,479,o),
(294,408,o),
(252,408,cs),
(227,408,o),
(217,418,o),
(217,442,cs),
(217,503,o),
(283,610,o),
(342,610,cs),
(364,610,o),
(382,600,o),
(395,571,c),
(404,583,l),
(389,631,o),
(364,657,o),
(322,657,cs),
(216,657,o),
(122,526,o),
(122,427,cs),
(122,377,o),
(154,350,o),
(203,350,cs),
(252,350,o),
(296,371,o),
(360,477,c),
(366,477,l),
(335,397,ls)
);
}
);
width = 490;
},
{
layerId = "48B243E4-A9BC-4CE2-9E97-0DBF8BE24EDB";
shapes = (
{
closed = 1;
nodes = (
(432,205,l),
(457,287,l),
(103,287,l),
(78,205,l)
);
},
{
closed = 1;
nodes = (
(323,353,o),
(340,341,o),
(380,341,cs),
(422,341,o),
(458,351,o),
(526,396,c),
(515,424,l),
(470,407,o),
(444,404,o),
(395,407,c),
(436,367,l),
(533,650,l),
(427,650,l),
(390,595,l),
(370,546,ls),
(344,480,o),
(298,417,o),
(268,417,cs),
(249,417,o),
(242,425,o),
(242,443,cs),
(242,497,o),
(303,598,o),
(349,598,cs),
(366,598,o),
(380,591,o),
(392,562,c),
(401,575,l),
(387,630,o),
(361,658,o),
(318,658,cs),
(215,658,o),
(115,531,o),
(115,425,cs),
(115,368,o),
(153,341,o),
(202,341,cs),
(252,341,o),
(293,362,o),
(358,474,c),
(366,474,l),
(339,399,ls)
);
}
);
width = 514;
}
);
unicode = 170;
},
{
glyphname = ordmasculine;
layers = (
{
layerId = master01;
shapes = (
{
closed = 1;
nodes = (
(384,225,l),
(405,294,l),
(87,294,l),
(66,225,l)
);
},
{
closed = 1;
nodes = (
(216,660,o),
(146,558,o),
(146,457,cs),
(146,389,o),
(192,350,o),
(280,350,cs),
(419,350,o),
(489,451,o),
(489,553,cs),
(489,621,o),
(443,660,o),
(355,660,cs)
);
},
{
closed = 1;
nodes = (
(256,410,o),
(234,426,o),
(234,466,cs),
(234,531,o),
(274,600,o),
(344,600,cs),
(378,600,o),
(401,583,o),
(401,544,cs),
(401,479,o),
(361,410,o),
(291,410,cs)
);
}
);
width = 465;
},
{
layerId = "48B243E4-A9BC-4CE2-9E97-0DBF8BE24EDB";
shapes = (
{
closed = 1;
nodes = (
(409,205,l),
(434,287,l),
(80,287,l),
(55,205,l)
);
},
{
closed = 1;
nodes = (
(211,662,o),
(138,562,o),
(138,455,cs),
(138,383,o),
(189,341,o),
(289,341,cs),
(440,341,o),
(513,441,o),
(513,548,cs),
(513,621,o),
(462,662,o),
(362,662,cs)
);
},
{
closed = 1;
nodes = (
(277,419,o),
(259,432,o),
(259,465,cs),
(259,523,o),
(291,585,o),
(346,585,cs),
(374,585,o),
(392,572,o),
(392,538,cs),
(392,480,o),
(360,419,o),
(305,419,cs)
);
}
);
width = 486;
}
);
unicode = 186;
},
{
glyphname = "alef-hb";
kernLeft = "alef-hb";
kernRight = "alef-hb";
layers = (
{
anchors = (
{
name = bottom;
pos = (125,0);
},
{
name = bottomleft;
pos = (-56,0);
},
{
name = center;
pos = (305,334);
},
{
name = top;
pos = (547,800);
},
{
name = topleft;
pos = (67,604);
}
);
layerId = master01;
shapes = (
{
closed = 1;
nodes = (
(-5,-29,o),
(-8,-19,o),
(-8,-4,cs),
(-8,11,o),
(42,192,o),
(56,256,cs),
(67,307,o),
(92,382,o),
(147,437,cs),
(156,446,o),
(164,454,o),
(164,459,cs),
(164,464,o),
(160,467,o),
(138,470,cs),
(105,475,o),
(101,494,o),
(101,517,cs),
(101,570,o),
(132,635,o),
(163,636,cs),
(198,637,o),
(203,639,o),
(208,653,cs),
(231,720,o),
(258,758,o),
(298,811,cs),
(340,863,o),
(359,888,o),
(424,888,cs),
(455,888,o),
(487,874,o),
(487,843,cs),
(487,790,o),
(369,744,o),
(310,696,cs),
(296,685,o),
(254,646,o),
(254,636,cs),
(254,631,o),
(258,629,o),
(267,629,cs),
(294,629,o),
(337,636,o),
(381,636,cs),
(501,636,o),
(539,591,o),
(539,463,cs),
(539,289,o),
(373,22,o),
(257,22,cs),
(233,22,o),
(216,32,o),
(216,47,cs),
(216,73,o),
(224,89,o),
(247,99,cs),
(340,139,o),
(464,268,o),
(464,365,cs),
(464,449,o),
(428,466,o),
(347,465,cs),
(261,464,ls),
(244,464,o),
(231,459,o),
(192,414,cs),
(170,389,o),
(160,373,o),
(157,325,cs),
(154,275,o),
(150,137,o),
(140,88,cs),
(130,38,o),
(43,-29,o),
(7,-29,cs)
);
}
);
width = 541;
},
{
associatedMasterId = master01;
layerId = "437746D2-CA92-46A6-81C4-901113463B8A";
name = "Jun 8, 23 at 18:02";
shapes = (
{
closed = 1;
nodes = (
(219,694,o),
(257,758,o),
(297,811,cs),
(311,828,o),
(327,852,o),
(345,865,cs),
(366,880,o),
(397,888,o),
(423,888,cs),
(442,888,o),
(459,884,o),
(470,875,cs),
(479,866,o),
(488,859,o),
(486,843,cs),
(486,839,o),
(485,836,o),
(484,833,cs),
(475,801,o),
(444,781,o),
(414,763,cs),
(379,743,o),
(342,722,o),
(310,696,cs),
(293,683,o),
(276,667,o),
(263,650,cs),
(260,646,o),
(255,640,o),
(253,635,cs),
(253,634,o),
(253,633,o),
(253,632,c),
(254,630,o),
(256,629,o),
(259,629,cs),
(262,629,o),
(266,630,o),
(269,630,cs),
(286,630,o),
(302,631,o),
(319,633,cs),
(339,635,o),
(360,636,o),
(380,636,cs),
(419,636,o),
(457,631,o),
(485,614,cs),
(532,586,o),
(540,521,o),
(538,463,cs),
(536,428,o),
(530,391,o),
(520,354,cs),
(493,254,o),
(438,152,o),
(357,77,cs),
(331,53,o),
(297,27,o),
(264,22,cs),
(256,22,ls),
(242,22,o),
(225,27,o),
(218,36,cs),
(214,43,o),
(215,57,o),
(218,69,cs),
(219,74,o),
(220,78,o),
(223,82,cs),
(228,91,o),
(237,94,o),
(246,99,cs),
(260,106,o),
(274,113,o),
(288,122,cs),
(328,148,o),
(367,179,o),
(397,217,cs),
(425,251,o),
(445,291,o),
(456,329,cs),
(459,342,o),
(461,354,o),
(463,365,cs),
(465,396,o),
(461,425,o),
(440,442,cs),
(414,463,o),
(381,466,o),
(346,466,cs),
(337,466,o),
(329,466,o),
(320,466,cs),
(300,466,o),
(280,466,o),
(260,464,cs),
(256,464,l),
(249,464,ls),
(246,464,o),
(243,463,o),
(239,462,cs),
(231,459,o),
(220,443,o),
(213,437,cs),
(192,417,o),
(169,393,o),
(161,368,cs),
(160,368,o),
(160,366,o),
(160,365,c),
(156,351,o),
(157,337,o),
(156,325,cs),
(154,265,o),
(154,204,o),
(146,143,cs),
(144,126,o),
(143,105,o),
(137,86,cs),
(135,76,o),
(132,67,o),
(127,60,cs),
(120,47,o),
(106,34,o),
(96,23,cs),
(85,13,o),
(75,3,o),
(63,-6,cs),
(55,-11,o),
(46,-16,o),
(37,-20,cs),
(29,-24,o),
(16,-29,o),
(6,-29,cs),
(1,-29,o),
(-2,-28,o),
(-5,-26,c),
(-11,-19,o),
(-8,1,o),
(-6,11,cs),
(2,40,o),
(8,69,o),
(15,98,cs),
(28,145,o),
(39,192,o),
(51,238,cs),
(55,256,ls),
(66,297,o),
(80,337,o),
(103,377,cs),
(114,398,o),
(129,418,o),
(146,437,cs),
(154,446,o),
(166,454,o),
(173,463,c),
(151,464,o),
(118,470,o),
(107,485,cs),
(101,494,o),
(101,505,o),
(101,517,cs),
(101,531,o),
(104,545,o),
(107,560,cs),
(111,571,o),
(114,583,o),
(120,594,cs),
(125,606,o),
(131,621,o),
(142,629,cs),
(151,635,o),
(163,636,o),
(174,636,cs),
(185,636,o),
(195,635,o),
(203,635,c)
);
}
);
width = 541;
},
{
anchors = (
{
name = bottom;
pos = (165,0);
},
{
name = bottomleft;
pos = (-65,0);
},
{
name = center;
pos = (347,325);
},
{
name = top;
pos = (547,800);
},
{
name = topleft;
pos = (67,604);
}
);
layerId = "48B243E4-A9BC-4CE2-9E97-0DBF8BE24EDB";
shapes = (
{
closed = 1;
nodes = (
(-3,-27,o),
(-18,-15,o),
(-18,5,cs),
(-18,20,o),
(30,192,o),
(44,256,cs),
(55,307,o),
(75,371,o),
(116,426,cs),
(124,436,o),
(129,441,o),
(129,445,cs),
(129,449,o),
(124,452,o),
(109,461,cs),
(93,470,o),
(87,492,o),
(87,517,cs),
(87,570,o),
(112,638,o),
(161,650,cs),
(187,656,o),
(196,659,o),
(202,672,cs),
(233,735,o),
(268,780,o),
(309,825,cs),
(348,868,o),
(397,887,o),
(462,887,cs),
(515,887,o),
(553,859,o),
(553,830,cs),
(553,777,o),
(493,727,o),
(395,690,cs),
(381,685,o),
(333,663,o),
(333,653,cs),
(333,648,o),
(337,646,o),
(346,646,cs),
(373,646,o),
(403,653,o),
(447,653,cs),
(567,653,o),
(620,598,o),
(620,463,cs),
(620,289,o),
(462,6,o),
(296,6,cs),
(254,6,o),
(226,20,o),
(226,47,cs),
(226,82,o),
(241,112,o),
(284,130,cs),
(408,182,o),
(495,275,o),
(495,365,cs),
(495,409,o),
(480,441,o),
(398,441,cs),
(291,441,ls),
(272,441,o),
(255,427,o),
(232,406,cs),
(210,385,o),
(203,370,o),
(203,325,cs),
(203,275,o),
(204,146,o),
(194,97,cs),
(184,49,o),
(66,-27,o),
(21,-27,cs)
);
}
);
width = 636;
},
{
associatedMasterId = "48B243E4-A9BC-4CE2-9E97-0DBF8BE24EDB";
layerId = "04F2C8FE-022B-435E-BC10-3187CF637CD8";
name = "Jun 14, 23 at 22:07";
shapes = (
{
closed = 1;
nodes = (
(299,811,o),
(320,840,o),
(348,858,cs),
(384,880,o),
(430,886,o),
(455,886,cs),
(499,886,o),
(518,872,o),
(523,869,cs),
(528,866,o),
(538,859,o),
(544,850,cs),
(548,846,o),
(550,841,o),
(551,835,cs),
(552,831,o),
(552,828,o),
(551,826,cs),
(551,821,o),
(550,817,o),
(549,813,cs),
(536,762,o),
(483,732,o),
(454,717,cs),
(416,700,o),
(376,684,o),
(345,666,cs),
(336,660,o),
(327,653,o),
(319,647,c),
(329,647,o),
(339,648,o),
(349,649,cs),
(372,651,o),
(396,653,o),
(421,653,cs),
(456,653,o),
(511,650,o),
(554,628,cs),
(608,600,o),
(622,535,o),
(620,469,cs),
(618,432,o),
(612,393,o),
(602,354,cs),
(579,267,o),
(528,154,o),
(433,68,cs),
(399,39,o),
(356,12,o),
(309,8,cs),
(305,7,o),
(302,7,o),
(298,7,cs),
(258,7,o),
(241,22,o),
(236,26,cs),
(232,30,o),
(230,34,o),
(229,38,cs),
(225,50,o),
(227,65,o),
(229,72,cs),
(230,76,o),
(233,85,o),
(237,93,cs),
(238,95,l),
(239,96,ls),
(246,105,o),
(250,113,o),
(271,124,cs),
(281,128,ls),
(295,135,o),
(310,142,o),
(324,149,cs),
(367,173,o),
(405,201,o),
(435,234,cs),
(462,263,o),
(481,297,o),
(490,330,cs),
(492,341,o),
(494,351,o),
(495,362,cs),
(498,401,o),
(481,416,o),
(473,422,cs),
(449,438,o),
(418,441,o),
(379,441,cs),
(369,441,o),
(360,441,o),
(349,441,cs),
(326,441,o),
(304,441,o),
(282,439,cs),
(281,439,o),
(278,439,o),
(276,439,cs),
(275,439,o),
(272,439,o),
(270,439,c),
(264,435,o),
(258,427,o),
(251,422,cs),
(217,393,o),
(209,379,o),
(205,370,cs),
(205,370,o),
(205,368,o),
(205,368,cs),
(203,360,o),
(203,355,o),
(203,335,cs),
(204,279,o),
(208,221,o),
(202,161,cs),
(201,145,o),
(200,123,o),
(194,101,cs),
(192,92,o),
(188,81,o),
(181,71,cs),
(171,54,o),
(146,35,o),
(142,32,cs),
(130,22,o),
(117,11,o),
(100,1,cs),
(91,-4,o),
(79,-11,o),
(66,-16,cs),
(57,-19,o),
(38,-27,o),
(21,-27,cs),
(20,-27,o),
(19,-27,o),
(19,-27,cs),
(11,-26,o),
(9,-26,o),
(4,-24,cs),
(0,-23,o),
(-3,-22,o),
(-6,-19,cs),
(-8,-17,o),
(-12,-15,o),
(-14,-6,cs),
(-17,7,o),
(-14,23,o),
(-13,30,cs),
(-5,57,o),
(0,85,o),
(8,114,cs),
(20,159,o),
(30,204,o),
(42,250,cs),
(43,255,o),
(44,261,o),
(46,266,cs),
(57,307,o),
(70,349,o),
(94,391,cs),
(106,412,o),
(120,432,o),
(136,450,c),
(123,453,o),
(107,460,o),
(97,472,cs),
(88,484,o),
(87,499,o),
(87,512,cs),
(87,528,o),
(90,545,o),
(94,562,cs),
(97,574,o),
(102,586,o),
(107,598,cs),
(113,610,o),
(116,617,o),
(122,625,cs),
(127,631,o),
(132,637,o),
(141,641,cs),
(150,646,o),
(151,646,o),
(157,648,cs),
(160,649,o),
(170,652,o),
(189,652,cs),
(191,652,o),
(193,652,o),
(194,652,c),
(207,688,o),
(234,737,o),
(288,799,cs)
);
}
);
visible = 1;
width = 636;
}
);
unicode = 1488;
},
{
glyphname = "bet-hb";
kernLeft = "bet-hb";
kernRight = "bet-hb";
layers = (
{
anchors = (
{
name = bottom;
pos = (124,0);
},
{
name = center;
pos = (170,322);
}
);
layerId = master01;
shapes = (
{
closed = 1;
nodes = (
(-1,-27,o),
(-14,-25,o),
(-14,0,cs),
(-14,35,o),
(27,141,o),
(65,141,cs),
(329,141,o),
(361,171,o),
(361,196,cs),
(361,275,o),
(292,292,o),
(291,317,cs),
(291,331,o),
(295,337,o),
(313,366,cs),
(359,439,o),
(376,453,o),
(376,469,cs),
(376,476,o),
(373,480,o),
(360,480,cs),
(309,480,o),
(259,473,o),
(210,473,cs),
(177,473,o),
(157,484,o),
(157,526,cs),
(157,564,o),
(197,699,o),
(228,699,cs),
(247,699,ls),
(259,699,o),
(260,693,o),
(260,682,cs),
(260,644,o),
(300,637,o),
(368,637,cs),
(414,637,o),
(467,642,o),
(513,642,cs),
(528,642,o),
(531,638,o),
(531,632,cs),
(531,613,o),
(496,560,o),
(474,524,cs),
(463,506,o),
(435,467,o),
(435,457,cs),
(435,421,o),
(463,349,o),
(463,314,cs),
(463,129,o),
(214,-27,o),
(23,-27,cs)
);
}
);
width = 465;
},
{
anchors = (
{
name = bottom;
pos = (124,0);
},
{
name = center;
pos = (191,310);
}
);
layerId = "48B243E4-A9BC-4CE2-9E97-0DBF8BE24EDB";
shapes = (
{
closed = 1;
nodes = (
(6,-24,o),
(-10,-13,o),
(-10,20,cs),
(-10,95,o),
(47,183,o),
(105,183,cs),
(389,183,o),
(406,193,o),
(406,219,cs),
(406,251,o),
(315,289,o),
(315,321,cs),
(315,335,o),
(324,353,o),
(333,366,cs),
(371,421,o),
(393,433,o),
(393,449,cs),
(393,456,o),
(390,460,o),
(377,460,cs),
(326,460,o),
(259,450,o),
(210,450,cs),
(177,450,o),
(150,470,o),
(150,512,cs),
(150,580,o),
(201,711,o),
(262,711,cs),
(293,711,ls),
(305,711,o),
(310,704,o),
(310,692,cs),
(310,654,o),
(330,645,o),
(377,645,cs),
(434,645,o),
(529,652,o),
(595,652,cs),
(610,652,o),
(623,646,o),
(623,632,cs),
(623,613,o),
(585,559,o),
(564,524,cs),
(536,478,o),
(532,467,o),
(532,457,cs),
(532,437,o),
(555,385,o),
(555,310,cs),
(555,125,o),
(294,-24,o),
(33,-24,cs)
);
}
);
width = 560;
},
{
associatedMasterId = master01;
layerId = "CDFD7952-AB35-415B-9F45-53A8F881633C";
name = "Jun 8, 23 at 18:19";
shapes = (
{
closed = 1;
nodes = (
(405.3,478.1,o),
(387.8,480.2,o),
(370.3,480.2,cs),
(359.1,480.2,o),
(347.9,479.5,o),
(337.4,478.1,cs),
(324.8,476.7,o),
(312.9,473.2,o),
(300.3,472.5,cs),
(296.1,472.5,ls),
(282.1,472.5,o),
(268.8,475.3,o),
(255.5,477.4,cs),
(238.7,479.5,o),
(219.1,476,o),
(208.6,487.2,cs),
(192.5,504,o),
(193.9,529.9,o),
(201.6,557.2,cs),
(208.6,584.5,o),
(221.2,612.5,o),
(228.2,634.9,cs),
(233.8,651.7,o),
(238,679.7,o),
(254.8,693,cs),
(261.1,697.9,o),
(270.2,699.3,o),
(278.6,699.3,cs),
(287,699.3,o),
(294.7,697.9,o),
(301,697.9,c),
(291.9,663.6,o),
(314.3,642.6,o),
(345.1,638.4,cs),
(358.4,637,o),
(372.4,637,o),
(386.4,637,cs),
(407.4,637,l),
(422.1,637,ls),
(471.1,635.6,o),
(520.1,634.9,o),
(569.8,634.9,c),
(557.2,597.8,o),
(535.5,558.6,o),
(513.1,524.3,cs),
(504,510.3,o),
(496.3,496.3,o),
(487.9,482.3,cs),
(483.7,475.3,o),
(476.7,466.2,o),
(474.6,458.5,cs),
(473.9,457.8,o),
(473.9,457.8,o),
(473.9,457.1,cs),
(471.8,445.2,o),
(479.5,431.9,o),
(481.6,420.7,cs),
(487.9,392.7,o),
(494.9,365.4,o),
(499.1,336.7,cs),
(502.6,310.8,o),
(501.2,282.1,o),
(493.5,254.1,cs),
(488.6,236.6,o),
(482.3,219.1,o),
(473.2,203,cs),
(455,170.8,o),
(425.6,137.9,o),
(398.3,110.6,cs),
(320.6,34.3,o),
(212.8,-8.4,o),
(116.9,-21.7,cs),
(100.1,-23.8,o),
(80.5,-27.3,o),
(62.3,-27.3,cs),
(56,-27.3,o),
(50.4,-26.6,o),
(44.8,-25.9,c),
(37.1,-23.8,o),
(25.9,-21.7,o),
(25.9,-12.6,cs),
(25.2,-0.7,o),
(28,13.3,o),
(31.5,27.3,cs),
(34.3,35.7,o),
(36.4,44.1,o),
(39.9,51.8,cs),
(49.7,77.7,o),
(62.3,120.4,o),
(90.3,137.9,cs),
(96.6,141.4,o),
(103.6,140.7,o),
(109.9,140.7,cs),
(121.1,141.4,o),
(133,140.7,o),
(144.2,142.1,cs),
(152.6,143.5,o),
(161,143.5,o),
(169.4,143.5,cs),
(181.3,143.5,o),
(193.2,142.8,o),
(204.4,142.8,cs),
(243.6,142.8,o),
(284.9,143.5,o),
(326.2,153.3,cs),
(343.7,157.5,o),
(375.9,163.8,o),
(389.9,179.2,cs),
(394.8,184.8,o),
(397.6,190.4,o),
(399.7,196,c),
(401.8,205.8,o),
(400.4,215.6,o),
(397.6,224.7,cs),
(389.2,252.7,o),
(369.6,273,o),
(350.7,293.3,cs),
(345.1,298.9,o),
(331.1,308,o),
(330.4,317.1,cs),
(330.4,317.8,o),
(330.4,319.2,o),
(331.1,320.6,cs),
(331.8,324.1,o),
(333.9,327.6,o),
(335.3,330.4,cs),
(340.2,343,o),
(346.5,355.6,o),
(354.2,367.5,cs),
(376.6,401.8,o),
(403.2,436.8,o),
(420.7,473.2,c)
);
}
);
width = 600;
},
{
anchors = (
{
name = bottom;
pos = (124,0);
},
{
name = center;
pos = (170,322);
}
);
associatedMasterId = "48B243E4-A9BC-4CE2-9E97-0DBF8BE24EDB";
layerId = "29459037-26DC-47F7-A703-A7A5E433BCAF";
name = "Jun 14, 23 at 22:42";
shapes = (
{
closed = 1;
nodes = (
(392,456,o),
(383,457,o),
(374,457,cs),
(362,457,o),
(350,456,o),
(337,455,cs),
(325,454,o),
(311,450,o),
(292,449,cs),
(291,449,o),
(287,449,o),
(286,449,cs),
(265,449,o),
(248,452,o),
(233,454,cs),
(213,456,o),
(196,454,o),
(180,460,cs),
(179,461,o),
(178,461,o),
(176,462,cs),
(175,463,o),
(174,463,o),
(171,465,cs),
(170,466,o),
(170,467,o),
(167,469,cs),
(145,492,o),
(148,525,o),
(155,553,cs),
(163,581,o),
(176,609,o),
(181,627,cs),
(185,640,o),
(190,666,o),
(204,684,cs),
(207,689,o),
(212,694,o),
(218,698,cs),
(219,699,l),
(219,699,ls),
(228,704,o),
(233,709,o),
(250,710,cs),
(253,711,o),
(257,711,o),
(261,711,cs),
(272,711,o),
(282,710,o),
(287,710,cs),
(315,710,l),
(310,687,ls),
(305,669,o),
(320,656,o),
(348,653,cs),
(362,652,o),
(378,652,o),
(394,652,cs),
(402,652,o),
(411,652,o),
(419,652,cs),
(425,652,o),
(432,652,o),
(438,652,cs),
(497,651,o),
(551,650,o),
(599,650,cs),
(626,650,l),
(617,625,ls),
(604,586,o),
(582,547,o),
(559,513,cs),
(551,501,o),
(545,488,o),
(535,474,cs),
(528,463,o),
(527,461,o),
(526,460,c),
(526,459,o),
(526,459,o),
(526,459,cs),
(527,454,o),
(532,442,o),
(534,434,cs),
(540,408,o),
(548,381,o),
(553,353,cs),
(557,326,o),
(556,295,o),
(548,265,cs),
(543,247,o),
(536,228,o),
(526,211,cs),
(503,170,o),
(465,132,o),
(447,115,cs),
(362,36,o),
(227,-7,o),
(109,-19,cs),
(90,-21,o),
(66,-25,o),
(45,-25,cs),
(37,-25,o),
(30,-25,o),
(22,-23,cs),
(15,-21,o),
(6,-20,o),
(-2,-13,cs),
(-6,-9,o),
(-10,-2,o),
(-11,7,cs),
(-11,24,o),
(-7,43,o),
(-5,51,cs),
(-2,60,o),
(1,69,o),
(4,77,cs),
(17,110,o),
(29,152,o),
(67,175,cs),
(68,175,l),
(68,176,ls),
(71,177,o),
(80,181,o),
(84,181,cs),
(91,183,o),
(96,182,o),
(101,183,cs),
(110,183,o),
(126,183,o),
(136,184,cs),
(148,185,o),
(159,185,o),
(170,185,cs),
(184,185,o),
(199,184,o),
(212,184,cs),
(258,184,o),
(306,185,o),
(350,194,cs),
(377,199,o),
(394,202,o),
(404,207,cs),
(404,207,o),
(405,208,o),
(405,208,cs),
(406,209,o),
(407,211,o),
(407,211,cs),
(408,214,o),
(407,219,o),
(404,226,cs),
(394,247,o),
(372,265,o),
(347,285,cs),
(338,292,o),
(330,295,o),
(323,303,cs),
(319,308,o),
(316,313,o),
(315,317,cs),
(315,319,o),
(315,325,o),
(316,329,cs),
(318,335,o),
(321,341,o),
(322,342,cs),
(325,350,o),
(333,367,o),
(345,383,cs),
(364,408,o),
(384,432,o),
(400,455,c)
);
},
{
closed = 1;
nodes = (
(512,452,o),
(515,451,o),
(518,450,c),
(519,451,o),
(520,451,o),
(521,452,c),
(510,453,l)
);
}
);
visible = 1;
width = 560;
}
);
unicode = 1489;
},
{
glyphname = "gimel-hb";
kernLeft = "gimel-hb";
kernRight = "gimel-hb";
layers = (
{
anchors = (
{
name = bottom;
pos = (138,0);
},
{
name = center;
pos = (170,315);
}
);
layerId = master01;
shapes = (
{
closed = 1;
nodes = (
(14,-15,o),
(-38,7,o),
(-38,41,cs),
(-38,47,o),
(-33,50,o),
(-21,54,cs),
(23,69,o),
(35,106,o),
(51,132,cs),
(72,166,o),
(115,195,o),
(165,195,cs),
(191,195,o),
(227,184,o),
(251,170,cs),
(272,158,o),
(281,150,o),
(289,150,cs),
(294,150,o),
(298,154,o),
(303,172,cs),
(313,208,o),
(325,281,o),
(325,320,cs),
(325,396,o),
(311,449,o),
(253,480,cs),
(237,489,o),
(209,497,o),
(209,517,cs),
(209,559,o),
(284,662,o),
(326,662,cs),
(383,662,o),
(442,594,o),
(442,522,cs),
(442,460,o),
(377,230,o),
(317,15,cs),
(312,-4,o),
(304,-7,o),
(292,-7,cs),
(266,-7,ls),
(257,-7,o),
(255,-4,o),
(255,2,cs),
(255,8,o),
(266,32,o),
(273,54,cs),
(276,63,o),
(279,77,o),
(279,88,cs),
(279,102,o),
(265,108,o),
(249,108,cs),
(172,108,o),
(153,-15,o),
(50,-15,cs)
);
}
);
width = 426;
},
{
anchors = (
{
name = bottom;
pos = (148,0);
},
{
name = center;
pos = (240,358);
}
);
layerId = "48B243E4-A9BC-4CE2-9E97-0DBF8BE24EDB";
shapes = (
{
closed = 1;
nodes = (
(26,-16,o),
(-31,11,o),
(-31,73,cs),
(-31,81,o),
(-23,87,o),
(-8,92,cs),
(14,100,o),
(34,112,o),
(47,138,cs),
(81,204,o),
(133,245,o),
(214,245,cs),
(251,245,o),
(286,238,o),
(319,225,cs),
(332,220,o),
(339,216,o),
(348,216,cs),
(355,216,o),
(358,221,o),
(361,234,cs),
(370,272,o),
(372,301,o),
(372,340,cs),
(372,416,o),
(345,456,o),
(266,490,cs),
(243,500,o),
(221,511,o),
(221,531,cs),
(221,588,o),
(311,708,o),
(384,708,cs),
(456,708,o),
(543,648,o),
(543,562,cs),
(543,500,o),
(472,230,o),
(412,15,cs),
(407,-4,o),
(399,-7,o),
(387,-7,cs),
(312,-7,ls),
(303,-7,o),
(301,-4,o),
(301,2,cs),
(301,8,o),
(312,32,o),
(319,54,cs),
(322,63,o),
(326,81,o),
(326,92,cs),
(326,101,o),
(320,106,o),
(307,106,cs),
(267,106,o),
(205,-16,o),
(92,-16,cs)
);
}
);
width = 521;
},
{
associatedMasterId = master01;
layerId = "2ACADB5C-67C1-4633-8D01-8F6AE2B05937";
name = "Jun 8, 23 at 19:05";
shapes = (
{
closed = 1;
nodes = (
(298,154,o),
(301,165,o),
(305,175,cs),
(309,192,o),
(310,208,o),
(313,225,cs),
(326,296,o),
(338,384,o),
(300,437,cs),
(287,454,o),
(272,470,o),
(253,480,cs),
(237,489,o),
(212,495,o),
(209,517,cs),
(209,520,o),
(209,524,o),
(211,528,cs),
(213,535,o),
(216,542,o),
(219,548,cs),
(231,580,o),
(251,610,o),
(279,635,cs),
(288,643,o),
(305,659,o),
(317,661,cs),
(320,662,o),
(323,662,o),
(326,662,cs),
(372,662,o),
(403,623,o),
(425,592,cs),
(453,552,o),
(440,485,o),
(427,433,cs),
(403,333,o),
(376,232,o),
(349,132,cs),
(322,32,ls),
(319,22,o),
(311,1,o),
(300,-5,c),
(297,-7,o),
(294,-7,o),
(292,-7,cs),
(286,-7,l),
(255,-7,l),
(272,57,ls),
(273,63,o),
(276,70,o),
(278,76,c),
(279,81,o),
(279,84,o),
(279,88,cs),
(279,102,o),
(265,108,o),
(249,108,cs),
(235,108,o),
(219,103,o),
(208,96,cs),
(170,69,o),
(149,21,o),
(105,-1,cs),
(87,-11,o),
(68,-15,o),
(50,-15,cs),
(27,-15,o),
(6,-9,o),
(-10,1,cs),
(-26,12,o),
(-40,23,o),
(-38,45,c),
(-13,53,o),
(11,68,o),
(27,90,cs),
(43,113,o),
(48,136,o),
(70,155,cs),
(79,164,o),
(90,172,o),
(101,178,cs),
(123,190,o),
(144,195,o),
(165,195,cs),
(214,195,o),
(257,167,o),
(291,143,c)
);
}
);
width = 426;
},
{
anchors = (
{
name = bottom;
pos = (108,0);
},
{
name = center;
pos = (200,315);
}
);
associatedMasterId = "48B243E4-A9BC-4CE2-9E97-0DBF8BE24EDB";
layerId = "FD8B5AFF-6563-4246-963C-A7C5A0CB56F0";
name = "Jun 14, 23 at 23:02";
shapes = (
{
closed = 1;
nodes = (
(275,245,o),
(323,225,o),
(359,207,c),
(362,220,o),
(363,236,o),
(365,248,cs),
(376,325,o),
(381,399,o),
(340,443,cs),
(332,452,o),
(313,472,o),
(288,482,cs),
(268,491,o),
(241,496,o),
(228,516,cs),
(228,517,o),
(227,518,o),
(227,518,cs),
(227,518,o),
(227,519,o),
(227,519,cs),
(227,519,o),
(226,520,o),
(226,521,cs),
(225,522,o),
(225,522,o),
(225,522,cs),
(225,523,o),
(225,523,o),
(225,524,cs),
(224,524,o),
(224,525,o),
(224,526,cs),
(224,526,o),
(224,526,o),
(223,527,cs),
(223,527,o),
(223,528,o),
(223,531,cs),
(222,532,o),
(221,537,o),
(223,546,cs),
(223,547,o),
(224,550,o),
(224,551,cs),
(226,561,o),
(231,571,o),
(233,575,cs),
(248,610,o),
(274,645,o),
(310,673,cs),
(322,683,o),
(332,690,o),
(343,697,cs),
(352,702,o),
(363,707,o),
(375,708,cs),
(380,708,o),
(385,708,o),
(389,708,cs),
(455,708,o),
(499,666,o),
(523,632,cs),
(557,584,o),
(541,508,o),
(528,457,cs),
(505,357,o),
(479,257,o),
(452,158,cs),
(426,58,ls),
(423,48,o),
(419,35,o),
(409,22,cs),
(404,14,o),
(397,6,o),
(387,1,cs),
(378,-4,o),
(370,-5,o),
(365,-5,cs),
(364,-5,o),
(360,-5,o),
(359,-5,cs),
(303,-5,l),
(325,81,ls),
(327,87,o),
(330,95,o),
(331,100,cs),
(331,101,o),
(332,102,o),
(332,102,c),
(332,103,o),
(332,104,o),
(329,105,cs),
(329,105,o),
(328,105,o),
(326,106,cs),
(323,106,o),
(320,107,o),
(317,107,cs),
(306,107,o),
(293,103,o),
(288,101,cs),
(250,77,o),
(224,26,o),
(165,1,cs),
(139,-10,o),
(110,-13,o),
(85,-13,cs),
(52,-13,o),
(25,-5,o),
(5,7,cs),
(-11,17,o),
(-33,34,o),
(-30,67,cs),
(-28,87,l),
(-6,94,ls),
(13,100,o),
(30,111,o),
(40,126,cs),
(52,143,o),
(59,172,o),
(88,197,cs),
(101,208,o),
(116,216,o),
(131,224,cs),
(162,239,o),
(194,245,o),
(223,245,cs)
);
}
);
visible = 1;
width = 521;
}
);
unicode = 1490;
},
{
glyphname = "dalet-hb";
kernLeft = "dalet-hb";
kernRight = "dalet-hb";
layers = (
{
anchors = (
{
name = bottom;
pos = (178,0);
},
{
name = center;
pos = (182,348);
}
);
layerId = master01;
shapes = (
{
closed = 1;
nodes = (
(166,-29,o),
(126,28,o),
(126,58,cs),
(126,83,o),
(158,131,o),
(203,187,cs),
(340,360,ls),
(361,386,o),
(406,442,o),
(406,458,cs),
(406,469,o),
(397,474,o),
(385,474,cs),
(291,474,o),
(188,466,o),
(160,466,cs),
(119,466,o),
(83,472,o),
(83,513,cs),
(83,547,o),
(106,619,o),
(123,660,cs),
(135,689,o),
(142,694,o),
(154,694,cs),
(174,694,ls),
(186,694,o),
(191,684,o),
(192,671,cs),
(194,641,o),
(207,635,o),
(232,635,cs),
(529,635,ls),
(546,635,o),
(552,631,o),
(552,615,cs),
(552,588,o),
(533,532,o),
(505,515,cs),
(477,498,o),
(463,478,o),
(463,458,cs),
(463,420,o),
(412,318,o),
(365,228,cs),
(256,18,o),
(255,-29,o),
(196,-29,cs)
);
}
);
width = 501;
},
{
anchors = (
{
name = bottom;
pos = (178,0);
},
{
name = center;
pos = (182,318);
}
);
layerId = "48B243E4-A9BC-4CE2-9E97-0DBF8BE24EDB";
shapes = (
{
closed = 1;
nodes = (
(205,-26,o),
(145,29,o),
(145,72,cs),
(145,103,o),
(167,140,o),
(203,179,cs),
(344,333,ls),
(414,409,o),
(426,423,o),
(426,434,cs),
(426,442,o),
(420,448,o),
(406,448,cs),
(372,448,o),
(258,436,o),
(190,436,cs),
(119,436,o),
(80,450,o),
(80,498,cs),
(80,532,o),
(103,601,o),
(130,660,cs),
(141,684,o),
(153,692,o),
(170,692,cs),
(213,692,ls),
(225,692,o),
(231,684,o),
(233,671,cs),
(235,655,o),
(247,649,o),
(272,649,cs),
(612,649,ls),
(635,649,o),
(645,636,o),
(645,610,cs),
(645,553,o),
(604,506,o),
(577,485,cs),
(563,474,o),
(559,451,o),
(553,431,cs),
(536,376,o),
(490,283,o),
(441,196,cs),
(325,-10,o),
(313,-26,o),
(256,-26,cs)
);
}
);
width = 597;
},
{
associatedMasterId = master01;
layerId = "FF3B9377-3F5D-4BA1-BC35-3DF0219AE9E9";
name = "Jun 8, 23 at 19:05";
shapes = (
{
closed = 1;
nodes = (
(184,694,l),
(183,675,o),
(188,648,o),
(205,640,cs),
(216,635,o),
(230,634,o),
(245,634,cs),
(259,634,o),
(273,635,o),
(286,635,cs),
(455,635,l),
(523,635,l),
(534,635,ls),
(541,635,o),
(547,634,o),
(548,624,cs),
(550,612,o),
(549,599,o),
(546,585,cs),
(539,560,o),
(524,535,o),
(504,515,cs),
(492,501,o),
(474,497,o),
(466,480,c),
(464,476,o),
(462,472,o),
(462,467,cs),
(458,454,o),
(457,441,o),
(454,429,cs),
(453,427,ls),
(446,400,o),
(434,373,o),
(422,347,cs),
(385,265,o),
(336,184,o),
(297,102,cs),
(284,74,o),
(268,45,o),
(252,18,cs),
(245,6,o),
(238,-9,o),
(227,-18,cs),
(220,-25,o),
(206,-29,o),
(195,-29,cs),
(189,-29,o),
(185,-28,o),
(182,-27,cs),
(174,-22,o),
(168,-15,o),
(161,-8,cs),
(144,11,o),
(119,39,o),
(128,71,c),
(128,72,l),
(140,113,o),
(173,152,o),
(202,187,cs),
(339,360,ls),
(360,386,o),
(392,417,o),
(400,447,cs),
(401,451,o),
(403,455,o),
(404,460,cs),
(405,463,o),
(406,466,o),
(405,468,cs),
(404,473,o),
(391,472,o),
(387,473,cs),
(373,474,o),
(359,475,o),
(345,475,cs),
(337,475,o),
(329,475,o),
(322,474,cs),
(308,473,o),
(296,473,o),
(282,473,cs),
(247,470,o),
(213,468,o),
(178,467,cs),
(172,466,o),
(165,466,o),
(159,466,cs),
(133,466,o),
(107,469,o),
(92,483,cs),
(77,496,o),
(82,524,o),
(86,545,cs),
(87,550,o),
(89,555,o),
(90,559,cs),
(102,605,o),
(123,649,o),
(141,694,c)
);
}
);
width = 501;
},
{
anchors = (
{
name = bottom;
pos = (178,0);
},
{
name = center;
pos = (182,348);
}
);
associatedMasterId = "48B243E4-A9BC-4CE2-9E97-0DBF8BE24EDB";
layerId = "1C2F5775-EF6B-4AF3-ACE6-06E77B840DB5";
name = "Jun 14, 23 at 23:33";
shapes = (
{
closed = 1;
nodes = (
(144,692,l),
(230,692,l),
(232,682,ls),
(232,672,o),
(237,656,o),
(247,653,cs),
(250,652,o),
(261,649,o),
(283,649,cs),
(283,649,o),
(284,649,o),
(284,649,cs),
(299,649,o),
(315,650,o),
(332,650,cs),
(599,650,ls),
(602,650,o),
(605,651,o),
(610,651,cs),
(633,651,o),
(641,640,o),
(644,629,cs),
(646,615,o),
(645,600,o),
(641,585,cs),
(632,551,o),
(613,520,o),
(592,499,cs),
(574,480,o),
(568,481,o),
(562,476,cs),
(562,477,o),
(561,477,o),
(561,477,cs),
(561,476,o),
(560,474,o),
(559,471,cs),
(557,462,o),
(555,445,o),
(552,434,cs),
(552,433,o),
(551,432,o),
(551,431,cs),
(543,403,o),
(531,376,o),
(520,351,cs),
(483,268,o),
(432,191,o),
(393,114,cs),
(379,85,o),
(361,57,o),
(344,30,cs),
(339,23,o),
(329,4,o),
(311,-10,cs),
(311,-10,l),
(310,-10,ls),
(306,-13,o),
(301,-17,o),
(286,-21,cs),
(275,-25,o),
(263,-26,o),
(253,-26,cs),
(253,-26,o),
(252,-26,o),
(252,-26,cs),
(250,-26,o),
(244,-26,o),
(242,-26,cs),
(241,-26,o),
(239,-25,o),
(237,-25,cs),
(237,-25,o),
(234,-24,o),
(233,-24,cs),
(232,-24,o),
(229,-23,o),
(228,-23,cs),
(212,-17,o),
(202,-6,o),
(197,-2,cs),
(165,22,o),
(138,50,o),
(147,85,cs),
(147,86,o),
(147,87,o),
(147,87,cs),
(162,136,o),
(210,185,o),
(233,210,cs),
(379,370,ls),
(400,393,o),
(432,421,o),
(438,442,cs),
(438,442,l),
(423,444,o),
(408,445,o),
(393,445,cs),
(385,445,o),
(378,444,o),
(371,444,cs),
(361,443,o),
(353,442,o),
(345,442,cs),
(344,442,o),
(343,442,o),
(342,442,cs),
(336,442,o),
(331,442,o),
(324,442,cs),
(284,440,o),
(244,438,o),
(204,437,cs),
(197,436,o),
(188,436,o),
(180,436,cs),
(152,436,o),
(119,438,o),
(97,456,cs),
(71,478,o),
(82,523,o),
(84,533,cs),
(86,538,o),
(87,543,o),
(88,548,cs),
(100,594,o),
(121,636,o),
(137,678,cs)
);
}
);
visible = 1;
width = 597;
}
);
unicode = 1491;
},
{
glyphname = "he-hb";
kernLeft = "he-hb";
kernRight = "he-hb";
layers = (
{
anchors = (
{
name = bottom;
pos = (211,0);
},
{
name = center;
pos = (309,328);
}
);
layerId = master01;
shapes = (
{
closed = 1;
nodes = (
(106,-29,o),
(40,44,o),
(40,160,cs),
(40,224,o),
(63,303,o),
(78,337,cs),
(83,349,o),
(88,355,o),
(98,355,cs),
(111,355,ls),
(120,355,o),
(125,351,o),
(125,340,cs),
(125,331,o),
(122,317,o),
(122,307,cs),
(122,226,o),
(154,190,o),
(237,164,cs),
(261,156,o),
(276,143,o),
(276,122,cs),
(276,103,o),
(264,58,o),
(258,41,cs),
(243,-1,o),
(239,-29,o),
(188,-29,cs)
);
},
{
closed = 1;
nodes = (
(405,105,o),
(386,117,o),
(386,134,cs),
(386,150,o),
(401,180,o),
(438,215,cs),
(467,243,o),
(501,314,o),
(501,373,cs),
(501,442,o),
(437,466,o),
(330,466,cs),
(312,466,o),
(242,462,o),
(194,462,cs),
(143,462,o),
(115,473,o),
(115,515,cs),
(115,567,o),
(150,642,o),
(169,677,cs),
(174,686,o),
(181,692,o),
(190,692,cs),
(201,692,ls),
(216,692,o),
(221,687,o),
(221,666,cs),
(221,644,o),
(252,629,o),
(303,629,cs),
(338,629,o),
(373,633,o),
(407,633,cs),
(535,633,o),
(571,582,o),
(571,451,cs),
(571,353,o),
(503,105,o),
(424,105,cs)
);
}
);
width = 580;
},
{
anchors = (
{
name = bottom;
pos = (211,0);
},
{
name = center;
pos = (358,325);
}
);
layerId = "48B243E4-A9BC-4CE2-9E97-0DBF8BE24EDB";
shapes = (
{
closed = 1;
nodes = (
(114,-27,o),
(43,54,o),
(43,180,cs),
(43,244,o),
(64,327,o),
(87,373,cs),
(99,396,o),
(117,403,o),
(127,403,cs),
(166,403,ls),
(175,403,o),
(180,399,o),
(180,388,cs),
(180,379,o),
(177,365,o),
(177,355,cs),
(177,256,o),
(221,237,o),
(316,209,cs),
(340,202,o),
(359,178,o),
(359,157,cs),
(359,138,o),
(342,68,o),
(336,51,cs),
(320,8,o),
(293,-27,o),
(242,-27,cs)
);
},
{
closed = 1;
nodes = (
(444,82,o),
(421,102,o),
(421,127,cs),
(421,153,o),
(430,179,o),
(471,216,cs),
(501,243,o),
(543,296,o),
(543,355,cs),
(543,424,o),
(472,442,o),
(391,442,cs),
(287,442,o),
(215,439,o),
(197,439,cs),
(146,439,o),
(111,457,o),
(111,501,cs),
(111,553,o),
(152,658,o),
(175,690,cs),
(182,700,o),
(194,707,o),
(203,707,cs),
(244,707,ls),
(259,707,o),
(264,702,o),
(264,681,cs),
(264,659,o),
(277,651,o),
(348,651,cs),
(383,651,o),
(438,655,o),
(472,655,cs),
(600,655,o),
(664,610,o),
(664,479,cs),
(664,361,o),
(596,82,o),
(483,82,cs)
);
}
);
width = 675;
},
{
associatedMasterId = master01;
layerId = "5D0D966B-8937-4924-8793-E86AFD8FCDD8";
name = "Jun 8, 23 at 19:35";
shapes = (
{
closed = 1;
nodes = (
(116,305,o),
(121,249,o),
(149,214,cs),
(160,200,o),
(177,190,o),
(192,181,cs),
(217,167,o),
(257,165,o),
(273,140,cs),
(279,130,o),
(275,116,o),
(273,103,cs),
(270,88,o),
(266,73,o),
(263,58,cs),
(259,42,o),
(253,27,o),
(246,12,cs),
(241,1,o),
(232,-17,o),
(221,-24,cs),
(215,-28,o),
(207,-28,o),
(201,-29,cs),
(197,-29,o),
(192,-29,o),
(188,-29,cs),
(173,-29,o),
(159,-27,o),
(147,-22,cs),
(122,-11,o),
(96,5,o),
(79,25,cs),
(38,76,o),
(33,154,o),
(46,227,cs),
(49,241,o),
(51,255,o),
(55,269,cs),
(60,288,o),
(66,306,o),
(74,323,cs),
(77,330,o),
(81,350,o),
(88,354,cs),
(89,355,o),
(91,355,o),
(93,355,cs),
(99,355,l),
(126,355,l)
);
},
{
closed = 1;
nodes = (
(181,692,o),
(186,692,o),
(189,692,cs),
(201,692,ls),
(208,692,o),
(215,691,o),
(219,686,cs),
(224,680,o),
(219,671,o),
(221,664,cs),
(228,644,o),
(245,634,o),
(267,631,cs),
(279,630,o),
(291,629,o),
(303,629,cs),
(338,629,o),
(373,633,o),
(407,633,cs),
(456,633,o),
(501,627,o),
(534,594,cs),
(559,571,o),
(566,533,o),
(570,498,cs),
(575,446,o),
(568,389,o),
(553,333,cs),
(543,298,o),
(531,262,o),
(516,228,cs),
(504,200,o),
(491,174,o),
(476,147,cs),
(468,132,o),
(461,118,o),
(443,109,cs),
(437,106,o),
(431,105,o),
(424,105,cs),
(408,105,o),
(394,112,o),
(388,123,cs),
(385,129,o),
(385,137,o),
(387,145,cs),
(388,149,o),
(390,153,o),
(392,157,c),
(402,177,o),
(422,197,o),
(438,215,cs),
(455,236,o),
(470,259,o),
(480,283,cs),
(487,296,o),
(492,310,o),
(496,324,cs),
(498,333,o),
(500,342,o),
(501,351,cs),
(502,363,o),
(502,377,o),
(500,388,cs),
(483,459,o),
(403,466,o),
(330,466,cs),
(312,466,o),
(294,466,o),
(278,466,cs),
(259,466,o),
(240,465,o),
(221,465,cs),
(212,465,o),
(203,464,o),
(194,464,cs),
(173,464,o),
(152,466,o),
(136,476,cs),
(114,489,o),
(114,511,o),
(118,538,cs),
(119,549,o),
(121,559,o),
(124,568,cs),
(130,592,o),
(140,615,o),
(150,638,cs),
(156,651,o),
(162,664,o),
(169,677,cs),
(171,680,o),
(174,687,o),
(178,690,cs)
);
}
);
width = 580;
},
{
associatedMasterId = "48B243E4-A9BC-4CE2-9E97-0DBF8BE24EDB";
layerId = "E6EDB722-F402-4E8B-916F-429D2B9CF377";
name = "Jun 14, 23 at 23:58";
shapes = (
{
closed = 1;
nodes = (
(194,705,o),
(202,707,o),
(208,707,cs),
(208,707,o),
(213,707,o),
(213,707,cs),
(216,707,o),
(219,707,o),
(223,707,cs),
(223,707,o),
(225,707,o),
(225,707,cs),
(237,707,o),
(245,706,o),
(254,700,cs),
(258,698,o),
(259,696,o),
(260,696,cs),
(261,693,o),
(266,688,o),
(266,685,cs),
(269,676,o),
(268,677,o),
(268,671,c),
(271,665,o),
(280,655,o),
(304,653,cs),
(316,653,o),
(329,652,o),
(342,652,cs),
(379,652,o),
(419,655,o),
(459,655,cs),
(516,655,o),
(576,649,o),
(619,612,cs),
(651,584,o),
(658,540,o),
(662,505,cs),
(668,450,o),
(660,391,o),
(645,333,cs),
(635,296,o),
(622,259,o),
(607,224,cs),
(595,196,o),
(582,169,o),
(567,141,cs),
(560,129,o),
(552,115,o),
(538,102,cs),
(538,102,o),
(536,101,o),
(534,99,cs),
(533,98,o),
(532,97,o),
(529,95,cs),
(528,95,o),
(527,94,o),
(524,92,cs),
(523,92,o),
(522,91,o),
(519,89,cs),
(509,85,o),
(498,82,o),
(486,82,cs),
(466,82,o),
(438,90,o),
(427,108,cs),
(425,110,o),
(420,117,o),
(421,132,cs),
(421,137,o),
(422,142,o),
(423,146,cs),
(424,152,o),
(427,158,o),
(430,163,cs),
(443,188,o),
(466,209,o),
(484,228,cs),
(501,247,o),
(514,267,o),
(524,288,cs),
(530,300,o),
(535,312,o),
(538,324,cs),
(540,332,o),
(541,340,o),
(542,347,cs),
(543,358,o),
(543,368,o),
(540,377,cs),
(523,432,o),
(452,441,o),
(366,441,cs),
(346,441,o),
(326,441,o),
(308,441,cs),
(287,440,o),
(266,440,o),
(244,440,cs),
(234,440,o),
(224,439,o),
(213,439,cs),
(188,439,o),
(161,440,o),
(140,453,cs),
(109,471,o),
(108,499,o),
(113,532,cs),
(114,543,o),
(117,553,o),
(119,564,cs),
(126,588,o),
(135,612,o),
(146,635,cs),
(152,649,o),
(159,662,o),
(165,675,cs),
(168,680,o),
(169,683,o),
(170,685,cs),
(177,695,o),
(184,700,o),
(186,701,cs)
);
},
{
closed = 1;
nodes = (
(173,341,o),
(176,289,o),
(207,257,cs),
(217,247,o),
(235,237,o),
(253,228,cs),
(276,216,o),
(330,213,o),
(351,182,cs),
(357,174,o),
(356,172,o),
(358,167,cs),
(358,165,o),
(358,163,o),
(359,162,cs),
(360,150,o),
(357,136,o),
(356,131,cs),
(353,116,o),
(350,100,o),
(346,84,cs),
(341,67,o),
(336,50,o),
(327,33,cs),
(323,26,o),
(316,9,o),
(302,-5,cs),
(296,-11,o),
(291,-15,o),
(285,-18,cs),
(284,-18,l),
(284,-18,ls),
(279,-20,o),
(275,-23,o),
(262,-25,cs),
(261,-25,o),
(258,-25,o),
(257,-26,cs),
(255,-26,o),
(252,-26,o),
(250,-26,cs),
(244,-27,o),
(238,-27,o),
(232,-27,cs),
(211,-27,o),
(193,-24,o),
(176,-18,cs),
(145,-7,o),
(113,10,o),
(91,33,cs),
(72,53,o),
(27,116,o),
(50,249,cs),
(52,264,o),
(55,279,o),
(59,294,cs),
(64,313,o),
(71,333,o),
(78,352,cs),
(83,362,o),
(84,371,o),
(90,381,cs),
(94,386,o),
(99,393,o),
(106,397,cs),
(113,402,o),
(119,404,o),
(128,404,cs),
(128,404,o),
(133,403,o),
(133,403,cs),
(184,403,l),
(180,381,ls)
);
}
);
visible = 1;
width = 675;
}
);
unicode = 1492;
},
{
glyphname = "vav-hb";
kernLeft = "vav-hb";
kernRight = "vav-hb";
layers = (
{
anchors = (
{
name = bottom;
pos = (104,0);
},
{
name = bottomleft;
},
{
name = center;
pos = (67,270);
},
{
name = top;
pos = (235,630);
},
{
name = topleft;
pos = (206,630);
}
);
layerId = master01;
shapes = (
{
closed = 1;
nodes = (
(84,-19,o),
(81,-13,o),
(81,-6,cs),
(81,9,o),
(98,32,o),
(138,174,cs),
(156,238,o),
(161,286,o),
(161,330,cs),
(161,377,o),
(150,433,o),
(113,461,cs),
(96,474,o),
(72,488,o),
(72,505,cs),
(72,541,o),
(145,656,o),
(194,656,cs),
(239,656,o),
(292,600,o),
(292,547,cs),
(292,450,o),
(215,216,o),
(183,120,cs),
(148,14,o),
(136,0,o),
(129,-7,cs),
(120,-16,o),
(106,-19,o),
(93,-19,cs)
);
}
);
width = 308;
},
{
anchors = (
{
name = bottom;
pos = (137,0);
},
{
name = bottomleft;
pos = (50,0);
},
{
name = center;
pos = (77,279);
},
{
name = top;
pos = (255,630);
},
{
name = topleft;
pos = (256,680);
}
);
layerId = "48B243E4-A9BC-4CE2-9E97-0DBF8BE24EDB";
shapes = (
{
closed = 1;
nodes = (
(126,-19,o),
(117,-13,o),
(117,-3,cs),
(117,12,o),
(122,28,o),
(173,162,cs),
(197,226,o),
(202,248,o),
(202,284,cs),
(202,349,o),
(193,402,o),
(113,458,cs),
(83,479,o),
(72,490,o),
(72,509,cs),
(72,577,o),
(161,689,o),
(226,689,cs),
(334,689,o),
(390,631,o),
(390,568,cs),
(390,450,o),
(316,239,o),
(284,143,cs),
(249,37,o),
(237,13,o),
(220,0,cs),
(202,-14,o),
(151,-19,o),
(138,-19,cs)
);
}
);
width = 404;
},
{
associatedMasterId = master01;
layerId = "B40780A4-1869-4634-A08D-7FE1BFB47021";
name = "Jun 8, 23 at 20:27";
shapes = (
{
closed = 1;
nodes = (
(97,46,o),
(120,111,o),
(138,174,cs),
(155,238,o),
(166,301,o),
(159,362,cs),
(155,401,o),
(138,434,o),
(113,460,cs),
(99,476,o),
(68,485,o),
(73,512,cs),
(73,515,o),
(74,517,o),
(75,520,cs),
(84,555,o),
(114,595,o),
(140,623,cs),
(153,638,o),
(166,651,o),
(185,655,cs),
(188,655,o),
(191,656,o),
(194,656,cs),
(206,656,o),
(217,651,o),
(227,645,cs),
(255,630,o),
(278,605,o),
(288,573,cs),
(292,557,o),
(292,536,o),
(290,517,cs),
(288,485,o),
(282,452,o),
(273,420,cs),
(271,410,o),
(268,400,o),
(264,391,cs),
(236,301,o),
(213,211,o),
(180,120,cs),
(169,90,o),
(161,59,o),
(148,28,cs),
(144,19,o),
(139,0,o),
(131,-7,cs),
(121,-15,o),
(104,-17,o),
(91,-17,cs),
(81,-17,l)
);
}
);
width = 308;
},
{
associatedMasterId = "48B243E4-A9BC-4CE2-9E97-0DBF8BE24EDB";
layerId = "C3C5A40C-0F00-4347-AC9B-D8AE27056013";
name = "Jun 15, 23 at 00:46";
shapes = (
{
closed = 1;
nodes = (
(207,255,o),
(209,314,o),
(189,369,cs),
(177,404,o),
(147,434,o),
(119,458,cs),
(104,471,o),
(84,477,o),
(75,498,cs),
(73,506,o),
(72,516,o),
(74,526,cs),
(75,529,o),
(76,533,o),
(77,536,cs),
(83,559,o),
(101,597,o),
(148,648,cs),
(160,661,o),
(180,682,o),
(213,687,cs),
(221,689,o),
(228,689,o),
(235,689,cs),
(250,689,o),
(270,689,o),
(305,677,cs),
(353,659,o),
(375,627,o),
(385,598,cs),
(391,578,o),
(390,555,o),
(389,537,cs),
(387,504,o),
(381,470,o),
(372,437,cs),
(369,427,o),
(366,417,o),
(363,407,cs),
(336,318,o),
(313,228,o),
(281,138,cs),
(270,108,o),
(261,77,o),
(248,45,cs),
(244,35,o),
(242,25,o),
(236,16,cs),
(235,14,o),
(234,12,o),
(233,11,cs),
(233,10,o),
(231,8,o),
(229,6,cs),
(228,5,o),
(226,2,o),
(223,1,cs),
(217,-3,o),
(211,-8,o),
(194,-12,cs),
(182,-14,o),
(170,-14,o),
(163,-14,cs),
(160,-14,o),
(151,-14,o),
(148,-14,cs),
(114,-14,l),
(119,3,ls),
(136,67,o),
(165,131,o),
(186,194,cs)
);
}
);
visible = 1;
width = 404;
}
);
unicode = 1493;
},
{
glyphname = "zayin-hb";
layers = (
{
anchors = (
{
name = bottom;
pos = (47,0);
},
{
name = bottomleft;
pos = (-33,0);
},
{
name = center;
pos = (0,254);
},
{
name = top;
pos = (344,660);
},
{
name = topleft;
pos = (217,660);
}
);
layerId = master01;
shapes = (
{
closed = 1;
nodes = (
(9,-27,o),
(3,-24,o),
(3,-15,cs),
(3,-8,o),
(11,5,o),
(16,18,cs),
(35,67,o),
(49,116,o),
(61,165,cs),
(83,243,o),
(108,342,o),
(108,398,cs),
(108,447,o),
(106,465,o),
(106,490,cs),
(106,538,o),
(124,566,o),
(166,596,cs),
(206,624,o),
(248,652,o),
(286,652,cs),
(308,652,o),
(314,636,o),
(314,544,cs),
(314,532,o),
(306,517,o),
(303,512,cs),
(286,475,o),
(251,452,o),
(219,426,cs),
(184,398,o),
(171,378,o),
(171,359,cs),
(171,342,o),
(175,333,o),
(175,310,cs),
(175,220,o),
(121,78,o),
(79,11,cs),
(64,-14,o),
(49,-27,o),
(18,-27,cs)
);
}
);
width = 270;
},
{
anchors = (
{
name = bottom;
pos = (47,0);
},
{
name = bottomleft;
pos = (-33,0);
},
{
name = center;
pos = (-9,314);
},
{
name = top;
pos = (344,660);
},
{
name = topleft;
pos = (217,660);
}
);
layerId = "48B243E4-A9BC-4CE2-9E97-0DBF8BE24EDB";
shapes = (
{
closed = 1;
nodes = (
(18,-25,o),
(3,-17,o),
(3,0,cs),
(3,12,o),
(11,27,o),
(16,40,cs),
(35,89,o),
(49,116,o),
(61,165,cs),
(83,243,o),
(109,362,o),
(109,418,cs),
(109,467,o),
(107,495,o),
(107,520,cs),
(107,568,o),
(125,598,o),
(166,629,cs),
(223,672,o),
(308,699,o),
(376,699,cs),
(398,699,o),
(411,681,o),
(411,652,cs),
(411,567,o),
(405,543,o),
(391,520,cs),
(372,489,o),
(316,443,o),
(285,417,cs),
(273,407,o),
(263,399,o),
(263,387,cs),
(263,373,o),
(271,358,o),
(271,330,cs),
(271,240,o),
(214,100,o),
(172,33,cs),
(157,8,o),
(115,-25,o),
(36,-25,cs)
);
}
);
width = 366;
},
{
associatedMasterId = master01;
layerId = "80B529D2-415B-4762-A102-2DA165424DF0";
name = "Jun 8, 23 at 20:33";
shapes = (
{
closed = 1;
nodes = (
(312,652,o),
(310,629,o),
(310,620,cs),
(312,592,o),
(318,560,o),
(310,530,cs),
(308,524,o),
(306,517,o),
(303,512,cs),
(286,475,o),
(249,452,o),
(219,426,cs),
(203,413,o),
(187,400,o),
(178,382,cs),
(176,378,o),
(175,374,o),
(174,370,cs),
(169,354,o),
(172,339,o),
(173,323,cs),
(174,305,o),
(172,285,o),
(169,265,cs),
(166,248,o),
(163,230,o),
(158,211,cs),
(145,167,o),
(128,121,o),
(111,76,cs),
(102,53,o),
(93,33,o),
(79,11,cs),
(71,-2,o),
(60,-17,o),
(45,-23,cs),
(39,-26,o),
(32,-27,o),
(25,-27,cs),
(14,-27,l),
(10,-26,o),
(4,-26,o),
(2,-23,cs),
(2,-22,o),
(2,-20,o),
(3,-17,cs),
(4,-15,o),
(5,-12,o),
(6,-10,cs),
(9,-1,o),
(11,9,o),
(16,18,cs),
(34,66,o),
(49,116,o),
(61,165,cs),
(83,243,o),
(103,321,o),
(108,398,cs),
(110,430,o),
(109,459,o),
(109,490,cs),
(109,505,o),
(110,520,o),
(114,535,cs),
(116,540,o),
(117,545,o),
(120,550,cs),
(129,571,o),
(148,583,o),
(166,596,cs),
(206,624,o),
(252,652,o),
(296,652,cs),
(299,652,ls)
);
}
);
width = 270;
},
{
associatedMasterId = "48B243E4-A9BC-4CE2-9E97-0DBF8BE24EDB";
layerId = "08D83699-ABCC-462D-BFF5-4773E5563445";
name = "Jun 15, 23 at 00:57";
shapes = (
{
closed = 1;
nodes = (
(384,697,o),
(395,697,o),
(402,684,cs),
(408,672,o),
(406,656,o),
(407,649,cs),
(408,624,o),
(416,589,o),
(406,553,cs),
(404,545,o),
(401,537,o),
(397,529,cs),
(376,487,o),
(338,461,o),
(305,433,cs),
(280,413,o),
(273,410,o),
(267,400,cs),
(265,398,o),
(265,396,o),
(264,394,cs),
(261,384,o),
(265,381,o),
(271,355,cs),
(271,355,l),
(271,354,ls),
(272,334,o),
(270,313,o),
(267,293,cs),
(265,274,o),
(261,255,o),
(256,237,cs),
(243,190,o),
(225,144,o),
(209,99,cs),
(200,75,o),
(190,52,o),
(167,27,cs),
(147,6,o),
(129,-7,o),
(102,-16,cs),
(100,-17,o),
(98,-17,o),
(93,-19,cs),
(74,-24,o),
(56,-24,o),
(45,-24,cs),
(40,-24,o),
(36,-24,o),
(33,-24,cs),
(31,-24,o),
(25,-23,o),
(23,-23,cs),
(11,-20,o),
(7,-12,o),
(6,-10,cs),
(3,-4,o),
(4,3,o),
(5,9,cs),
(7,14,o),
(8,17,o),
(9,20,cs),
(13,28,o),
(15,37,o),
(19,48,cs),
(36,93,o),
(51,142,o),
(63,190,cs),
(64,192,o),
(64,194,o),
(65,197,cs),
(85,272,o),
(103,346,o),
(108,418,cs),
(110,447,o),
(108,476,o),
(109,508,cs),
(109,522,o),
(109,539,o),
(114,558,cs),
(116,565,o),
(118,571,o),
(121,578,cs),
(135,609,o),
(162,625,o),
(179,637,cs),
(224,669,o),
(301,699,o),
(374,699,cs),
(375,699,o),
(377,699,o),
(377,699,cs),
(378,699,l),
(379,698,ls)
);
}
);
visible = 1;
width = 366;
}
);
unicode = 1494;
},
